<?xml version="1.0" encoding="UTF-8"?>
<svg version="1.1" xmlns="http://www.w3.org/2000/svg" width="500" height="500">
<path d="M0 0 C165 0 330 0 500 0 C500 165 500 330 500 500 C335 500 170 500 0 500 C0 335 0 170 0 0 Z " fill="#F9F6F4" transform="translate(0,0)"/>
<path d="M0 0 C2.35258145 0.9828967 3.51406013 1.54765349 5.1875 3.5 C5.6875 5.75 5.6875 5.75 5.6875 12.75 C30.4375 12.75 55.1875 12.75 80.6875 12.75 C80.6875 27.6 80.6875 42.45 80.6875 57.75 C-39.4325 57.75 -159.5525 57.75 -283.3125 57.75 C-283.3125 42.9 -283.3125 28.05 -283.3125 12.75 C-195.2025 12.75 -107.0925 12.75 -16.3125 12.75 C-16.3125 9.45 -16.3125 6.15 -16.3125 2.75 C-11.90985779 -2.85336281 -6.22896331 -2.04246804 0 0 Z " fill="#F8F4F1" transform="translate(351.3125,288.25)"/>
<path d="M0 0 C3.3 0 6.6 0 10 0 C11.89749418 4.84447301 13.79462125 9.68908924 15.69116211 14.53393555 C17.32098789 18.69732858 18.95219896 22.86017547 20.58422852 27.02270508 C24.49045297 36.99135993 28.38115407 46.96504645 32.20703125 56.96484375 C33.15228214 59.4273151 34.09795111 61.8896256 35.04364014 64.35192871 C35.63756561 65.9037998 36.22861087 67.45677639 36.81671143 69.01086426 C37.62995993 71.1597195 38.45264481 73.30473744 39.27734375 75.44921875 C39.73359131 76.64893311 40.18983887 77.84864746 40.65991211 79.0847168 C41.88359549 81.74676876 42.69586391 83.24900486 45 85 C46.485 85.495 46.485 85.495 48 86 C48 86.99 48 87.98 48 89 C35.46 89 22.92 89 10 89 C10 88.01 10 87.02 10 86 C13.465 85.01 13.465 85.01 17 84 C17.59355319 77.31325229 15.48276433 72.20092409 13 66.0625 C11.68 62.741875 10.36 59.42125 9 56 C0.09 56 -8.82 56 -18 56 C-18.99 58.660625 -19.98 61.32125 -21 64.0625 C-21.31324219 64.8862915 -21.62648438 65.71008301 -21.94921875 66.55883789 C-23.89101855 71.92126188 -24.7316157 76.6162774 -23.5 82.3125 C-20.96586949 85.16339682 -17.66976753 85.28972241 -14 86 C-14 86.99 -14 87.98 -14 89 C-22.25 89 -30.5 89 -39 89 C-39 88.01 -39 87.02 -39 86 C-38.2575 85.566875 -37.515 85.13375 -36.75 84.6875 C-31.13038093 81.23909739 -29.06298695 75.17819369 -26.85546875 69.21875 C-26.56852142 68.46372696 -26.2815741 67.70870392 -25.9859314 66.93080139 C-25.36820306 65.30339839 -24.75378148 63.67473707 -24.1423645 62.04495239 C-22.50826613 57.68967208 -20.85002552 53.34357386 -19.1953125 48.99609375 C-18.85442093 48.09841782 -18.51352936 47.20074188 -18.16230774 46.27586365 C-14.38203139 36.33734262 -10.47860394 26.44811972 -6.5625 16.5625 C-5.8993193 14.88672405 -5.23615163 13.21094294 -4.57299805 11.53515625 C-3.05048517 7.68938067 -1.52592767 3.84442185 0 0 Z " fill="#2C4D2F" transform="translate(339,191)"/>
<path d="M0 0 C3.3 0 6.6 0 10 0 C15.37735151 12.89853699 20.58815543 25.84701699 25.5625 38.90625 C26.15606796 40.46387306 26.15606796 40.46387306 26.7616272 42.05296326 C28.75503275 47.29002366 30.74007808 52.53011729 32.71630859 57.77368164 C33.46441971 59.74629388 34.21262543 61.71887024 34.9609375 63.69140625 C35.29399902 64.58230957 35.62706055 65.47321289 35.97021484 66.39111328 C39.34521081 77.13159783 39.34521081 77.13159783 46.15609741 85.28004456 C46.76458527 85.51762985 47.37307312 85.75521515 48 86 C48 86.99 48 87.98 48 89 C35.46 89 22.92 89 10 89 C10 88.01 10 87.02 10 86 C12.64 85.67 15.28 85.34 18 85 C17.05845614 77.33778102 14.88586291 70.52191154 12.03271484 63.39648438 C10.85775687 60.43840611 10 58.21585044 10 55 C0.76 55 -8.48 55 -18 55 C-18.99 58.3 -19.98 61.6 -21 65 C-21.5775 66.505625 -22.155 68.01125 -22.75 69.5625 C-24.2668207 74.04909596 -24.51669897 78.45950246 -23 83 C-19.55549263 85.29633824 -17.06187717 85.54016485 -13 86 C-13 86.99 -13 87.98 -13 89 C-21.58 89 -30.16 89 -39 89 C-39 88.01 -39 87.02 -39 86 C-37.9171875 85.4121875 -37.9171875 85.4121875 -36.8125 84.8125 C-30.37254695 80.66230804 -27.80472346 72.60282524 -25.21484375 65.68359375 C-24.87662598 64.80105423 -24.5384082 63.91851471 -24.18994141 63.00923157 C-23.09799989 60.15489182 -22.01772162 57.29629308 -20.9375 54.4375 C-20.1858344 52.46679523 -19.43330505 50.49641971 -18.67993164 48.52636719 C-17.16840743 44.57152144 -15.66079846 40.61521937 -14.15625 36.65771484 C-11.37484482 29.34909265 -8.55067777 22.05720428 -5.7204895 14.7673645 C-4.48745705 11.59046892 -3.25756653 8.4123596 -2.02734375 5.234375 C-1.35158542 3.48957445 -0.6758142 1.7447789 0 0 Z " fill="#2B4D2E" transform="translate(62,191)"/>
<path d="M0 0 C12.87 0 25.74 0 39 0 C39 0.99 39 1.98 39 3 C37.88625 3.103125 36.7725 3.20625 35.625 3.3125 C34.42875 3.539375 33.2325 3.76625 32 4 C29.66902366 7.4964645 29.73812783 8.9217765 29.70947266 13.05688477 C29.69671295 14.30570938 29.68395325 15.554534 29.67080688 16.84120178 C29.66774756 18.20793503 29.66552069 19.57467036 29.6640625 20.94140625 C29.65763152 22.34805944 29.65090293 23.75471129 29.64389038 25.16136169 C29.63190839 28.11452324 29.62821002 31.06756781 29.62939453 34.02075195 C29.62959671 37.78095998 29.60240535 41.54040355 29.56785011 45.30043125 C29.54545224 48.20978643 29.54156104 51.11896219 29.54261398 54.0283947 C29.54027309 55.4129084 29.53153591 56.79742821 29.51594925 58.18185616 C29.41987017 67.60538067 29.74385778 76.41646223 36.4375 83.625 C43.09453206 86.19438079 50.85932891 86.3279664 57.5 83.5 C62.83847913 80.30141756 65.23935794 75.4357619 67.04418945 69.65625 C68.45320316 63.86209398 68.30539782 58.04133003 68.30078125 52.109375 C68.30720894 50.27611664 68.30720894 50.27611664 68.31376648 48.40582275 C68.31948865 45.83403135 68.3200257 43.26222377 68.31567383 40.69042969 C68.31249925 36.74907148 68.33605101 32.80845385 68.36132812 28.8671875 C68.3635998 26.36458428 68.36430523 23.86197904 68.36328125 21.359375 C68.372491 20.18018494 68.38170074 19.00099487 68.39118958 17.78607178 C68.38184639 16.1435141 68.38184639 16.1435141 68.37231445 14.46777344 C68.37294388 13.50595154 68.3735733 12.54412964 68.3742218 11.55316162 C67.93464244 8.55409222 67.05763439 7.19307228 65 5 C62.97993559 4.10594825 62.97993559 4.10594825 60.8125 3.75 C58.9253125 3.37875 58.9253125 3.37875 57 3 C57 2.01 57 1.02 57 0 C65.25 0 73.5 0 82 0 C82 0.99 82 1.98 82 3 C81.071875 3.226875 80.14375 3.45375 79.1875 3.6875 C75.36197375 5.26271669 74.7556464 6.33610121 73 10 C72.55457139 12.68896357 72.55457139 12.68896357 72.61523438 15.54956055 C72.60512329 16.63806808 72.59501221 17.72657562 72.58459473 18.84806824 C72.58761597 20.01582291 72.59063721 21.18357758 72.59375 22.38671875 C72.57749573 24.20499931 72.57749573 24.20499931 72.56091309 26.06001282 C72.52665003 29.93589594 72.51106539 33.81148538 72.5 37.6875 C72.48537612 42.77501981 72.45154873 47.8618897 72.40625 52.94921875 C72.40927124 54.10685226 72.41229248 55.26448578 72.41540527 56.4571991 C72.32072842 66.79720356 70.73480045 75.75918775 63.5390625 83.58984375 C56.91113253 89.95327886 49.52568688 91.15540985 40.5625 91.4375 C30.77353654 91.20067024 22.8245517 88.84811095 15.65625 81.98828125 C8.17463821 73.00681804 8.84792884 61.74476399 8.75390625 50.69921875 C8.7210005 48.08788686 8.68778837 45.47655882 8.65429688 42.86523438 C8.60568133 38.75907629 8.5617089 34.65289593 8.52319336 30.54663086 C8.48540439 26.57651183 8.4321163 22.60666156 8.37890625 18.63671875 C8.3704921 17.4003215 8.36207794 16.16392426 8.35340881 14.89006042 C8.33676682 13.75160172 8.32012482 12.61314301 8.30297852 11.44018555 C8.29267105 10.43537643 8.28236359 9.43056732 8.27174377 8.39530945 C8.23096156 5.81570084 8.23096156 5.81570084 6 4 C4.01178687 3.60235737 2.01055661 3.26224651 0 3 C0 2.01 0 1.02 0 0 Z " fill="#2C4D2F" transform="translate(112,191)"/>
<path d="M0 0 C2.07260773 1.71283906 2.07260773 1.71283906 5.9140625 1.33203125 C6.2440625 -0.64796875 6.5740625 -2.62796875 6.9140625 -4.66796875 C7.9040625 -4.66796875 8.8940625 -4.66796875 9.9140625 -4.66796875 C9.9140625 5.23203125 9.9140625 15.13203125 9.9140625 25.33203125 C8.9240625 25.33203125 7.9340625 25.33203125 6.9140625 25.33203125 C6.69492187 24.25824219 6.47578125 23.18445313 6.25 22.078125 C4.05463482 10.8483249 4.05463482 10.8483249 -3.0859375 2.33203125 C-9.14901363 -1.43690797 -14.89006961 -3.36434306 -22.0859375 -2.66796875 C-27.89054122 -0.86495397 -32.11284678 1.62449058 -35.4609375 6.76953125 C-36.39478054 8.59476992 -37.26844599 10.45180077 -38.0859375 12.33203125 C-38.4984375 13.26015625 -38.9109375 14.18828125 -39.3359375 15.14453125 C-44.92999593 30.68358245 -44.36621475 50.81762578 -38.57421875 66.203125 C-35.3324519 73.01849311 -31.7014856 77.65672675 -25.0859375 81.33203125 C-17.87192303 83.73670274 -12.23548905 82.40569097 -5.54296875 79.109375 C1.25662211 74.19075204 3.8579168 69.0415579 5.2890625 60.89453125 C5.45277344 60.06759766 5.61648438 59.24066406 5.78515625 58.38867188 C6.18118802 56.37356905 6.55045932 54.35323715 6.9140625 52.33203125 C7.9040625 52.33203125 8.8940625 52.33203125 9.9140625 52.33203125 C9.9140625 62.89203125 9.9140625 73.45203125 9.9140625 84.33203125 C9.2540625 84.33203125 8.5940625 84.33203125 7.9140625 84.33203125 C7.2540625 82.35203125 6.5940625 80.37203125 5.9140625 78.33203125 C1.36557611 79.04223351 -1.7240695 80.71162074 -5.609375 83.078125 C-15.2234749 87.94583173 -26.62719212 87.58522511 -36.8359375 84.83203125 C-48.57517208 80.70743532 -56.42681511 73.23613182 -62.140625 62.31640625 C-65.30555077 55.38371171 -65.29778223 48.61819528 -65.3359375 41.14453125 C-65.3565625 40.15388672 -65.3771875 39.16324219 -65.3984375 38.14257812 C-65.46627615 25.21083489 -61.21964761 14.59013887 -52.3984375 5.08203125 C-38.7249597 -7.80861385 -15.58456002 -12.4618111 0 0 Z " fill="#2C4E2F" transform="translate(457.0859375,195.66796875)"/>
<path d="M0 0 C12.87 0 25.74 0 39 0 C39 0.99 39 1.98 39 3 C37.329375 3.185625 37.329375 3.185625 35.625 3.375 C31.96896323 3.6465813 31.96896323 3.6465813 30 6 C29.8121925 8.52976535 29.74808094 10.94907405 29.77294922 13.47900391 C29.77265717 14.24982803 29.77236511 15.02065216 29.77206421 15.81483459 C29.77346026 18.36885745 29.78903421 20.92259046 29.8046875 23.4765625 C29.80841666 25.24490194 29.81126409 27.01324345 29.81326294 28.78158569 C29.82090707 33.44069095 29.84056222 38.09967194 29.8626709 42.75872803 C29.88311256 47.51100992 29.89226106 52.26331184 29.90234375 57.015625 C29.92380741 66.34380466 29.95795272 75.67189201 30 85 C32.9000074 85.05580189 35.79893353 85.09665449 38.69921875 85.12890625 C39.51741089 85.14618774 40.33560303 85.16346924 41.17858887 85.18127441 C46.41787913 85.22499036 50.3397063 84.96832378 54.5390625 81.51953125 C61.14295821 74.65077341 63.29449161 66.9454469 66 58 C66.99 58 67.98 58 69 58 C69 68.23 69 78.46 69 89 C45.9 89 22.8 89 -1 89 C-1 88.01 -1 87.02 -1 86 C-0.43410156 85.87882812 0.13179687 85.75765625 0.71484375 85.6328125 C1.44832031 85.46523438 2.18179688 85.29765625 2.9375 85.125 C3.66839844 84.96257812 4.39929688 84.80015625 5.15234375 84.6328125 C7.20700294 84.17038477 7.20700294 84.17038477 8 82 C8.10249174 79.68291249 8.13845303 77.36280019 8.14526367 75.04345703 C8.14862228 74.32782593 8.1519809 73.61219482 8.15544128 72.87487793 C8.16496188 70.50250526 8.16689502 68.1302031 8.16796875 65.7578125 C8.17118083 64.11115489 8.17454487 62.46449758 8.17805481 60.81784058 C8.18404904 57.36276589 8.18589444 53.90771624 8.18530273 50.45263672 C8.18520116 46.02506059 8.19884749 41.59764498 8.21607494 37.17010689 C8.22719381 33.76776391 8.22922197 30.36545973 8.22869301 26.96310043 C8.22987352 25.330824 8.2342993 23.69854657 8.24202538 22.06628799 C8.25182195 19.78252176 8.24894853 17.49910387 8.24291992 15.21533203 C8.24434494 13.91564484 8.24576996 12.61595764 8.24723816 11.27688599 C8.01592887 8.21112069 7.81707039 6.45726577 6 4 C2.94091587 3.18415432 2.94091587 3.18415432 0 3 C0 2.01 0 1.02 0 0 Z " fill="#294B2C" transform="translate(230,191)"/>
<path d="M0 0 C2.35258145 0.9828967 3.51406013 1.54765349 5.1875 3.5 C5.6875 5.75 5.6875 5.75 5.6875 12.75 C30.4375 12.75 55.1875 12.75 80.6875 12.75 C80.6875 27.6 80.6875 42.45 80.6875 57.75 C-39.4325 57.75 -159.5525 57.75 -283.3125 57.75 C-283.3125 42.9 -283.3125 28.05 -283.3125 12.75 C-195.2025 12.75 -107.0925 12.75 -16.3125 12.75 C-16.3125 9.45 -16.3125 6.15 -16.3125 2.75 C-11.90985779 -2.85336281 -6.22896331 -2.04246804 0 0 Z M-282.3125 13.75 C-282.3125 27.94 -282.3125 42.13 -282.3125 56.75 C-162.8525 56.75 -43.3925 56.75 79.6875 56.75 C79.6875 42.56 79.6875 28.37 79.6875 13.75 C66.4551315 13.60457877 66.4551315 13.60457877 53.22265625 13.50585938 C47.82575924 13.4759649 42.4292862 13.44059425 37.03271484 13.37280273 C32.68198247 13.31849079 28.33170468 13.28858132 23.98065948 13.27561378 C22.32040499 13.26637233 20.66017549 13.24832557 19.00011444 13.22134972 C16.67498449 13.18506792 14.35173449 13.18005393 12.02636719 13.18237305 C11.3394429 13.16439667 10.65251862 13.14642029 9.94477844 13.12789917 C7.76853612 13.09765605 7.76853612 13.09765605 4.6875 13.75 C2.35875531 16.15313506 2.35875531 16.15313506 0.6875 18.75 C-1.75 19.2734375 -1.75 19.2734375 -4.3125 19.125 C-5.5809375 19.07472656 -5.5809375 19.07472656 -6.875 19.0234375 C-9.10483753 18.77329547 -11.15613905 18.35897231 -13.3125 17.75 C-13.3125 16.43 -13.3125 15.11 -13.3125 13.75 C-102.0825 13.75 -190.8525 13.75 -282.3125 13.75 Z " fill="#EAE4D3" transform="translate(351.3125,288.25)"/>
<path d="M0 0 C2.31279611 1.15639806 4.17409828 2.17409828 6 4 C6.58046266 11.08164444 6.58046266 11.08164444 4.67019272 14.10390091 C0.37779755 17.15192307 -4.01471276 16.51682348 -9.14886475 16.4430542 C-10.87520862 16.44205542 -10.87520862 16.44205542 -12.63642812 16.44103646 C-15.83152768 16.43513986 -19.02591123 16.4112086 -22.2208426 16.3797195 C-25.66587881 16.35013898 -29.11096658 16.34372941 -32.55610657 16.33451843 C-38.52518271 16.31538198 -44.49403049 16.28153617 -50.46297455 16.2377243 C-59.09305592 16.174401 -67.72313092 16.133223 -76.35336533 16.09746507 C-90.35498441 16.03884959 -104.35644585 15.96230242 -118.35791016 15.87451172 C-131.95975994 15.78926497 -145.56161424 15.71244279 -159.16357422 15.64697266 C-160.00186908 15.64293477 -160.84016395 15.63889688 -161.70386168 15.63473663 C-165.90930252 15.61453195 -170.11474412 15.59449314 -174.32018614 15.5745368 C-209.21361583 15.40874025 -244.10683302 15.21385631 -279 15 C-279 14.67 -279 14.34 -279 14 C-190.89 14 -102.78 14 -12 14 C-12 10.7 -12 7.4 -12 4 C-8.58749988 -0.34318197 -5.32994694 -0.66624337 0 0 Z " fill="#E2DAC0" transform="translate(347,287)"/>
<path d="M0 0 C1.670625 0.061875 1.670625 0.061875 3.375 0.125 C3.375 1.115 3.375 2.105 3.375 3.125 C1 4.6875 1 4.6875 -1.625 6.125 C-4.84857656 9.34857656 -4.74968 12.6435833 -4.79858398 17.05444336 C-4.81207382 18.03323959 -4.82556366 19.01203583 -4.83946228 20.02049255 C-4.84990067 21.07462845 -4.86033905 22.12876434 -4.87109375 23.21484375 C-4.90406143 25.46680033 -4.93727253 27.71875337 -4.97070312 29.97070312 C-5.01786316 33.5052623 -5.06224605 37.03981023 -5.10180664 40.57446289 C-5.47797022 72.62945626 -5.47797022 72.62945626 -9.68359375 79.4765625 C-10.46863281 80.22679687 -11.25367188 80.97703125 -12.0625 81.75 C-12.84496094 82.52601563 -13.62742188 83.30203125 -14.43359375 84.1015625 C-15.15675781 84.76929688 -15.87992188 85.43703125 -16.625 86.125 C-17.11097656 86.67542969 -17.59695312 87.22585938 -18.09765625 87.79296875 C-23.34215405 92.36681465 -32.35152247 92.55495772 -38.97265625 92.35546875 C-49.29112903 91.45887097 -49.29112903 91.45887097 -52.625 88.125 C-54.94308364 87.09014123 -57.27675298 86.0894586 -59.625 85.125 C-60.285 84.795 -60.945 84.465 -61.625 84.125 C-61.13 83.135 -61.13 83.135 -60.625 82.125 C-59.72007812 82.54072266 -59.72007812 82.54072266 -58.796875 82.96484375 C-57.99765625 83.32707031 -57.1984375 83.68929687 -56.375 84.0625 C-55.58609375 84.42214844 -54.7971875 84.78179687 -53.984375 85.15234375 C-45.29621205 88.73405331 -33.63388404 88.36861076 -24.83984375 85.22265625 C-18.09255627 81.87876245 -14.1041278 77.2614879 -11.31640625 70.3359375 C-9.9704048 66.03177466 -9.49747902 61.99867827 -9.46728516 57.49609375 C-9.45189194 55.83912476 -9.45189194 55.83912476 -9.43618774 54.14868164 C-9.42888641 52.9652417 -9.42158508 51.78180176 -9.4140625 50.5625 C-9.38600535 48.04947253 -9.35734097 45.53645177 -9.328125 43.0234375 C-9.28679658 39.06673286 -9.24990145 35.11015529 -9.22363281 31.15332031 C-9.19606657 27.33111827 -9.15020833 23.50948404 -9.1015625 19.6875 C-9.09830963 18.50406006 -9.09505676 17.32062012 -9.09170532 16.10131836 C-9.07513885 14.99667236 -9.05857239 13.89202637 -9.04150391 12.75390625 C-9.03341705 11.78525635 -9.0253302 10.81660645 -9.01699829 9.81860352 C-8.22300946 4.36273504 -5.65888806 0.19513407 0 0 Z " fill="#C9CFC6" transform="translate(192.625,193.875)"/>
<path d="M0 0 C0.66 0 1.32 0 2 0 C3.57277973 4.2152474 5.13917792 8.43278979 6.69970703 12.65258789 C7.2314862 14.08780763 7.7650041 15.52238439 8.30029297 16.95629883 C9.06936227 19.01737601 9.83215096 21.08068392 10.59375 23.14453125 C10.83436157 23.78526077 11.07497314 24.4259903 11.32287598 25.08613586 C12.34897405 27.88352941 13 29.99163868 13 33 C4.75 33 -3.5 33 -12 33 C-8.625 21.75 -8.625 21.75 -6.73828125 16.9921875 C-6.34189453 15.98671875 -5.94550781 14.98125 -5.53710938 13.9453125 C-5.13298828 12.93210938 -4.72886719 11.91890625 -4.3125 10.875 C-3.68891602 9.2971875 -3.68891602 9.2971875 -3.05273438 7.6875 C-2.03880049 5.12352925 -1.02117166 2.56109468 0 0 Z " fill="#F4F2F0" transform="translate(334,211)"/>
<path d="M0 0 C2.99570436 4.49355655 4.5585262 9.49252073 6.42333984 14.54223633 C7.12228927 16.430178 7.83224675 18.31372936 8.54296875 20.19726562 C8.98511719 21.38900391 9.42726563 22.58074219 9.8828125 23.80859375 C10.28902832 24.89970459 10.69524414 25.99081543 11.11376953 27.11499023 C12 30 12 30 12 34 C3.75 34 -4.5 34 -13 34 C-10.58847932 26.76543796 -8.05269021 19.63474876 -5.375 12.5 C-4.76398437 10.85644531 -4.76398437 10.85644531 -4.140625 9.1796875 C-3.75132813 8.14070312 -3.36203125 7.10171875 -2.9609375 6.03125 C-2.60821777 5.08830078 -2.25549805 4.14535156 -1.89208984 3.17382812 C-1 1 -1 1 0 0 Z " fill="#F2F1EE" transform="translate(58,210)"/>
<path d="M0 0 C8.25 0 16.5 0 25 0 C25 0.99 25 1.98 25 3 C23.6078125 3.3403125 23.6078125 3.3403125 22.1875 3.6875 C18.36197375 5.26271669 17.7556464 6.33610121 16 10 C15.55457139 12.68896357 15.55457139 12.68896357 15.61523438 15.54956055 C15.60006775 17.18232185 15.60006775 17.18232185 15.58459473 18.84806824 C15.58761597 20.01582291 15.59063721 21.18357758 15.59375 22.38671875 C15.58291382 23.59890579 15.57207764 24.81109283 15.56091309 26.06001282 C15.52665003 29.93589594 15.51106539 33.81148538 15.5 37.6875 C15.48537612 42.77501981 15.45154873 47.8618897 15.40625 52.94921875 C15.40927124 54.10685226 15.41229248 55.26448578 15.41540527 56.4571991 C15.3291285 65.87980032 14.11127297 74.49186463 8 82 C6.06732433 83.790218 4.08888865 85.38585877 2 87 C1.67 85.68 1.34 84.36 1 83 C2.11375 82.319375 2.11375 82.319375 3.25 81.625 C8.21233209 76.88822846 10.7679306 69.26338006 11.14044189 62.41992188 C11.1472699 61.44603516 11.1540979 60.47214844 11.16113281 59.46875 C11.17074036 58.36080078 11.1803479 57.25285156 11.19024658 56.11132812 C11.19449646 54.91958984 11.19874634 53.72785156 11.203125 52.5 C11.20882507 51.27216797 11.21452515 50.04433594 11.22039795 48.77929688 C11.22984149 46.18360251 11.23637936 43.58789618 11.24023438 40.9921875 C11.24996229 37.01541408 11.28100176 33.03915262 11.3125 29.0625 C11.31902795 26.54166974 11.32427924 24.02083578 11.328125 21.5 C11.3466452 19.71239258 11.3466452 19.71239258 11.36553955 17.88867188 C11.36253845 16.78072266 11.35953735 15.67277344 11.35644531 14.53125 C11.36009094 13.55736328 11.36373657 12.58347656 11.36749268 11.58007812 C10.93725023 8.55944888 10.07416029 7.20419452 8 5 C5.97993559 4.10594825 5.97993559 4.10594825 3.8125 3.75 C1.9253125 3.37875 1.9253125 3.37875 0 3 C0 2.01 0 1.02 0 0 Z " fill="#2A4C2D" transform="translate(169,191)"/>
<path d="M0 0 C2.125 0.0625 2.125 0.0625 5 1 C6.3175845 2.62164246 7.63173348 4.24623299 8.92578125 5.88671875 C14.34558732 11.40859273 22.04607856 15.73061902 29 19 C29 19.66 29 20.32 29 21 C23.48200334 20.40129119 18.24420471 19.4539413 12.875 18.0625 C12.19824219 17.89298828 11.52148438 17.72347656 10.82421875 17.54882812 C7.79304429 16.77784274 5.01178301 16.00559774 2.1796875 14.66015625 C-2.89749353 13.60604864 -6.98957898 15.60368055 -11.75 17.375 C-13.63987097 18.05158907 -15.53046169 18.72617212 -17.421875 19.3984375 C-18.66855957 19.85742432 -18.66855957 19.85742432 -19.94042969 20.32568359 C-22 21 -22 21 -24 21 C-22.68155949 17.04467847 -21.19724822 16.79192454 -17.5625 14.875 C-11.29547419 11.35916853 -3.32771614 6.65543229 0 0 Z " fill="#2E4F31" transform="translate(65,162)"/>
<path d="M0 0 C0.99 0 1.98 0 3 0 C3 10.23 3 20.46 3 31 C-19.44 31 -41.88 31 -65 31 C-65 30.67 -65 30.34 -65 30 C-63.71947754 30.00112793 -62.43895508 30.00225586 -61.11962891 30.00341797 C-56.32947432 29.99972305 -51.54031345 29.95671351 -46.75048828 29.90234375 C-44.68479856 29.88427179 -42.61898882 29.87659913 -40.55322266 29.87988281 C-23.33984639 30.10761495 -23.33984639 30.10761495 -9.19238281 21.20849609 C-3.92733551 15.44974383 -2.1530683 7.31662148 0 0 Z " fill="#37563A" transform="translate(296,249)"/>
<path d="M0 0 C0.33 0 0.66 0 1 0 C1.02505615 0.59014893 1.0501123 1.18029785 1.07592773 1.78833008 C1.19200052 4.46326814 1.31467572 7.1378638 1.4375 9.8125 C1.47681641 10.74126953 1.51613281 11.67003906 1.55664062 12.62695312 C1.59853516 13.51962891 1.64042969 14.41230469 1.68359375 15.33203125 C1.72025146 16.15421143 1.75690918 16.9763916 1.79467773 17.82348633 C1.93427772 20.17905178 1.93427772 20.17905178 3 23 C2.01 23 1.02 23 0 23 C0 23.99 0 24.98 0 26 C8.25 26 16.5 26 25 26 C25.33 25.34 25.66 24.68 26 24 C26 24.66 26 25.32 26 26 C26.66 26 27.32 26 28 26 C28 26.99 28 27.98 28 29 C-3.35 29 -34.7 29 -67 29 C-67 28.01 -67 27.02 -67 26 C-45.22 26 -23.44 26 -1 26 C-1 17.75 -1 9.5 -1 1 C-0.67 0.67 -0.34 0.34 0 0 Z " fill="#C7CDC4" transform="translate(300,254)"/>
<path d="M0 0 C2 3 2 3 2 6 C-1.465 7.485 -1.465 7.485 -5 9 C-5.04649013 17.07599939 -5.08195349 25.15194216 -5.10362434 33.2280426 C-5.11402908 36.9787369 -5.12812725 40.72933914 -5.15087891 44.47998047 C-5.17272609 48.1045013 -5.18459348 51.72893399 -5.18975449 55.35351562 C-5.19342905 56.73129665 -5.20060417 58.10907325 -5.21146011 59.48681641 C-5.26582363 66.6768882 -5.16382429 73.11921984 -3 80 C-2.65903686 81.33140265 -2.32388007 82.66433889 -2 84 C-7.25016747 79.45931462 -9.66465284 74.80864339 -10.27825928 67.83972168 C-10.39649652 64.01109342 -10.41781985 60.18912688 -10.3984375 56.359375 C-10.40046172 54.94549408 -10.40337605 53.53161419 -10.40713501 52.11773682 C-10.41153626 49.16920939 -10.40519507 46.22095627 -10.39111328 43.27246094 C-10.37395915 39.49732716 -10.38391511 35.72283043 -10.40183067 31.94771957 C-10.41267473 29.03431398 -10.40922049 26.12105939 -10.4014473 23.20764923 C-10.39945025 21.81541111 -10.40188716 20.42315916 -10.40888596 19.03093719 C-10.41651672 17.08801034 -10.40282095 15.14503514 -10.38818359 13.20214844 C-10.38579681 12.0982074 -10.38341003 10.99426636 -10.38095093 9.85687256 C-9.95213536 6.6410478 -9.33950441 5.23225602 -7 3 C-3.3125 2.75 -3.3125 2.75 0 3 C0 2.01 0 1.02 0 0 Z " fill="#CDD2CA" transform="translate(151,191)"/>
<path d="M0 0 C2.22122114 1.52936537 4.03435629 3.13515853 6 5 C5.01 5.33 4.02 5.66 3 6 C2.5875 5.525625 2.175 5.05125 1.75 4.5625 C-1.75088649 1.43670849 -5.9863941 1.83838077 -10.5 1.8125 C-11.6240625 1.79832031 -12.748125 1.78414062 -13.90625 1.76953125 C-18.463141 2.10899662 -20.29451721 3.29451721 -23.5 6.5 C-26.71300331 10.49884622 -28.3055321 15.21005164 -30 20 C-30.66 20 -31.32 20 -32 20 C-33.29705323 26.83653792 -33.18407594 33.56284811 -33.1875 40.5 C-33.19974609 41.80582031 -33.21199219 43.11164063 -33.22460938 44.45703125 C-33.22654297 45.71902344 -33.22847656 46.98101562 -33.23046875 48.28125 C-33.23457764 49.42658203 -33.23868652 50.57191406 -33.24291992 51.75195312 C-32.98936645 55.14217969 -32.16254164 57.81963626 -31 61 C-30.73004677 62.95079406 -30.51871703 64.9108672 -30.375 66.875 C-30.30023438 67.84179688 -30.22546875 68.80859375 -30.1484375 69.8046875 C-30.09945313 70.52914062 -30.05046875 71.25359375 -30 72 C-37.5989108 64.4010892 -37.5323679 50.34461677 -37.5625 40.375 C-37.41106101 26.90247026 -35.9618398 13.77870482 -27 3 C-18.59245199 -3.89195587 -9.80661904 -4.54799724 0 0 Z " fill="#A1AD9F" transform="translate(451,195)"/>
<path d="M0 0 C3.457753 0.94143863 4.72682972 1.53729675 6.58203125 4.6796875 C6.98808594 5.73414063 7.39414062 6.78859375 7.8125 7.875 C8.23144531 8.92429688 8.65039062 9.97359375 9.08203125 11.0546875 C10 14 10 14 10 18 C10.66 18 11.32 18 12 18 C12.33773438 19.21558594 12.67546875 20.43117187 13.0234375 21.68359375 C13.47354484 23.26834667 13.92408823 24.85297578 14.375 26.4375 C14.59671875 27.23994141 14.8184375 28.04238281 15.046875 28.86914062 C15.26601563 29.63291016 15.48515625 30.39667969 15.7109375 31.18359375 C16.00943604 32.24404907 16.00943604 32.24404907 16.31396484 33.32592773 C16.87161977 35.20999627 16.87161977 35.20999627 19 36 C19.76942515 38.24439863 20.44221383 40.52239403 21.0625 42.8125 C21.40410156 44.05644531 21.74570312 45.30039063 22.09765625 46.58203125 C22.74949343 49.05111148 23.39391343 51.51941888 24 54 C24.66 54 25.32 54 26 54 C26.24234375 54.75023437 26.4846875 55.50046875 26.734375 56.2734375 C28.39539813 61.34594658 30.09813567 66.33654981 32.1875 71.25 C33.96128062 75.54880951 34.65711513 79.37105432 35 84 C31.77139421 81.88435492 30.35850314 80.25213173 28.9921875 76.65332031 C28.65043991 75.77158142 28.30869232 74.88984253 27.95658875 73.98138428 C27.59966446 73.02330872 27.24274017 72.06523315 26.875 71.078125 C26.49088455 70.07734924 26.1067691 69.07657349 25.71101379 68.04547119 C24.46241206 64.78460704 23.23114864 61.51748882 22 58.25 C21.14922329 56.01842514 20.29725021 53.78730602 19.4440918 51.55664062 C17.74665822 47.11474476 16.0552449 42.67063235 14.36865234 38.22460938 C12.29713939 32.77048348 10.19957761 27.32702697 8.08203125 21.890625 C7.65203323 20.78621063 7.65203323 20.78621063 7.21334839 19.65948486 C6.15742332 16.94889396 5.10054293 14.23867597 4.04370117 11.52844238 C3.3465015 9.73835064 2.65168626 7.94733074 1.95703125 6.15625 C1.57522705 5.17462891 1.19342285 4.19300781 0.80004883 3.18164062 C0 1 0 1 0 0 Z " fill="#D9DBD5" transform="translate(349,192)"/>
<path d="M0 0 C1.90014648 0.35400391 1.90014648 0.35400391 4 1 C9.26480164 8.69768064 13 18.633891 13 28 C13.66 28 14.32 28 15 28 C15.20496094 28.63808594 15.40992187 29.27617187 15.62109375 29.93359375 C16.02521484 31.17302734 16.02521484 31.17302734 16.4375 32.4375 C16.70433594 33.26121094 16.97117187 34.08492187 17.24609375 34.93359375 C17.82155494 36.96219588 17.82155494 36.96219588 19 38 C19.20235666 40.54969386 19.31915246 43.09692964 19.42578125 45.65234375 C19.61527344 46.42707031 19.80476563 47.20179688 20 48 C21.32961208 48.67405781 22.66309357 49.34052792 24 50 C24.828125 52.3828125 24.828125 52.3828125 25.25 55.125 C25.39953125 56.03507812 25.5490625 56.94515625 25.703125 57.8828125 C25.80109375 58.58148438 25.8990625 59.28015625 26 60 C26.66 60 27.32 60 28 60 C28.39832031 61.15757812 28.79664062 62.31515625 29.20703125 63.5078125 C29.74197499 65.04694888 30.27714315 66.58600727 30.8125 68.125 C31.20405273 69.26582031 31.20405273 69.26582031 31.60351562 70.4296875 C33.13074061 74.80396154 34.90435159 78.85904909 37 83 C37 83.66 37 84.32 37 85 C31.482065 82.83275293 30.25352973 78.15438892 28 73 C26.39517679 69.15701496 24.89388547 65.28082344 23.41796875 61.38671875 C23.00009598 60.29647903 22.58222321 59.20623932 22.15168762 58.08296204 C20.82552302 54.61960931 19.50639562 51.15362645 18.1875 47.6875 C17.31491677 45.40542162 16.44187331 43.12351917 15.56835938 40.84179688 C13.03898741 34.2303674 10.51876064 27.61547779 8 21 C7.19359322 18.88359922 6.38711713 16.76722484 5.58056641 14.65087891 C3.71963682 9.76753447 1.85954419 4.88387214 0 0 Z " fill="#CFD4CC" transform="translate(72,192)"/>
<path d="M0 0 C9.24 0 18.48 0 28 0 C28.66 2.31 29.32 4.62 30 7 C29.34 6.67 28.68 6.34 28 6 C26.18658158 5.91528636 24.37005839 5.89278917 22.5546875 5.90234375 C21.47832031 5.90556641 20.40195313 5.90878906 19.29296875 5.91210938 C17.60107422 5.92467773 17.60107422 5.92467773 15.875 5.9375 C14.73933594 5.94201172 13.60367188 5.94652344 12.43359375 5.95117188 C9.62234362 5.96298385 6.8111977 5.97945493 4 6 C-0.47163354 17.1436602 -0.47163354 17.1436602 -1 29 C-0.67 29.66 -0.34 30.32 0 31 C-4.65986589 29.5284634 -4.65986589 29.5284634 -6.1640625 27.19140625 C-9.50422634 18.43518236 -3.35916089 7.86186591 0 0 Z " fill="#D7DAD3" transform="translate(44,246)"/>
<path d="M0 0 C1.3921875 0.3403125 1.3921875 0.3403125 2.8125 0.6875 C1.99953461 1.5328833 1.18656921 2.3782666 0.34896851 3.24926758 C-2.49716846 6.68420015 -2.80103006 9.19749057 -2.77099609 13.69921875 C-2.77333252 14.37320709 -2.77566895 15.04719543 -2.77807617 15.74160767 C-2.7796816 17.95354613 -2.74575283 20.16335999 -2.7109375 22.375 C-2.70414052 23.92146046 -2.69942288 25.46793132 -2.69668579 27.0144043 C-2.6833053 31.07636472 -2.63906523 35.13744489 -2.58911133 39.19909668 C-2.55372863 42.50770384 -2.54063259 45.81622206 -2.52869225 49.12498474 C-2.51386281 53.08337769 -2.4886909 57.04167893 -2.4609375 61 C-2.45357134 62.12503433 -2.45357134 62.12503433 -2.44605637 63.27279663 C-2.42967438 65.40722413 -2.4062669 67.5414503 -2.38037109 69.67578125 C-2.36751068 70.88790283 -2.35465027 72.10002441 -2.34140015 73.34887695 C-2.19429724 76.54004442 -1.78466486 79.55231915 -1.1875 82.6875 C-3.125 82.3125 -3.125 82.3125 -5.1875 81.6875 C-6.67137882 78.71974237 -6.34349487 75.69430476 -6.34863281 72.43969727 C-6.35608017 71.3199501 -6.35608017 71.3199501 -6.36367798 70.17758179 C-6.37830809 67.70301398 -6.38510246 65.22851024 -6.390625 62.75390625 C-6.39637509 61.03759254 -6.40213284 59.32127886 -6.40789795 57.60496521 C-6.4184099 54.00446269 -6.42425151 50.40398251 -6.42773438 46.8034668 C-6.43322413 42.18515898 -6.45726147 37.56714525 -6.48570633 32.94892979 C-6.5043088 29.40336741 -6.50953699 25.85787627 -6.51107025 22.31226921 C-6.51410197 20.60937833 -6.52214793 18.90648884 -6.53525543 17.20364571 C-6.55226884 14.82376688 -6.55044772 12.44461186 -6.54394531 10.06469727 C-6.5531601 9.35861832 -6.56237488 8.65253937 -6.5718689 7.92506409 C-6.54730176 5.06159364 -6.47843662 3.12302918 -4.86444092 0.70689392 C-3.1875 -0.3125 -3.1875 -0.3125 0 0 Z " fill="#BDC5BA" transform="translate(265.1875,194.3125)"/>
<path d="M0 0 C2.10388569 -0.05402274 4.20816714 -0.09280256 6.3125 -0.125 C8.07013672 -0.15980469 8.07013672 -0.15980469 9.86328125 -0.1953125 C13 0 13 0 16 2 C15.79375 3.11375 15.5875 4.2275 15.375 5.375 C15.25125 6.57125 15.1275 7.7675 15 9 C15.66 9.66 16.32 10.32 17 11 C17.54697897 16.14160234 17.54697897 16.14160234 15.9296875 18.6796875 C12.96025456 20.71140478 10.3521859 20.28492255 6.8125 20.1875 C4.90404297 20.14689453 4.90404297 20.14689453 2.95703125 20.10546875 C1.98121094 20.07066406 1.00539062 20.03585937 0 20 C0.99 19.67 1.98 19.34 3 19 C3 13.06 3 7.12 3 1 C2.01 0.67 1.02 0.34 0 0 Z " fill="#A58F37" transform="translate(188,314)"/>
<path d="M0 0 C2.44949618 0.73831386 4.90857008 1.44539547 7.375 2.125 C8.51710937 2.45757812 9.65921875 2.79015625 10.8359375 3.1328125 C13.54976959 3.87660352 16.23387394 4.49235889 19 5 C19 4.34 19 3.68 19 3 C17.68 2.34 16.36 1.68 15 1 C18.11954738 1.33724836 19.6209965 1.6209965 21.875 3.875 C22.24625 4.57625 22.6175 5.2775 23 6 C22.67 6.99 22.34 7.98 22 9 C13.81768347 8.7321664 6.69935636 7.5847271 -1.02734375 4.83984375 C-6.35432981 3.33484769 -10.00820144 3.87848561 -15 6 C-20.00960619 7.13854686 -24.89414936 7.10211701 -30 7 C-30 6.34 -30 5.68 -30 5 C-30.66 4.67 -31.32 4.34 -32 4 C-10.20785541 -4.57908268 -10.20785541 -4.57908268 0 0 Z " fill="#E2E3DE" transform="translate(75,178)"/>
<path d="M0 0 C2.31279611 1.15639806 4.17409828 2.17409828 6 4 C6.57068742 10.96238651 6.57068742 10.96238651 4.625 14.5 C0.52289815 16.8440582 -3.3953253 16.73430028 -8 16 C-10.625 14.5 -10.625 14.5 -12 12 C-12.59375723 9.18685896 -12.65549959 6.80599823 -12 4 C-8.4894808 -0.25517479 -5.34302469 -0.66787809 0 0 Z " fill="#2B4C2E" transform="translate(347,287)"/>
<path d="M0 0 C1.12591553 0.00523682 2.25183105 0.01047363 3.41186523 0.01586914 C4.62680664 0.0190918 5.84174805 0.02231445 7.09350586 0.02563477 C8.37290039 0.03401367 9.65229492 0.04239258 10.97045898 0.05102539 C12.2537207 0.05553711 13.53698242 0.06004883 14.85913086 0.06469727 C18.04211921 0.07652994 21.22501661 0.09301471 24.40795898 0.11352539 C25.06795898 1.76352539 25.72795898 3.41352539 26.40795898 5.11352539 C17.82795898 5.11352539 9.24795898 5.11352539 0.40795898 5.11352539 C-0.58204102 8.41352539 -1.57204102 11.71352539 -2.59204102 15.11352539 C-2.92204102 16.10352539 -3.25204102 17.09352539 -3.59204102 18.11352539 C-3.68561793 19.96579791 -3.72198011 21.82139719 -3.71704102 23.67602539 C-3.71961914 24.64668945 -3.72219727 25.61735352 -3.72485352 26.61743164 C-3.75855054 29.11305492 -3.75855054 29.11305492 -2.59204102 31.11352539 C-7.15793249 29.67166493 -7.15793249 29.67166493 -8.90454102 27.42602539 C-10.84770063 20.88994304 -8.95242746 15.3381782 -6.65454102 9.23852539 C-6.37674805 8.46766602 -6.09895508 7.69680664 -5.81274414 6.90258789 C-3.34462625 0.14648688 -3.34462625 0.14648688 0 0 Z " fill="#CED2CA" transform="translate(323.592041015625,245.886474609375)"/>
<path d="M0 0 C2.0963079 5.05875498 -0.9746265 9.65594688 -2.87109375 14.39453125 C-4.26781055 18.85532575 -4.48867048 22.73989901 -3.5 27.3125 C-0.96586949 30.16339682 2.33023247 30.28972241 6 31 C6 31.99 6 32.98 6 34 C-2.25 34 -10.5 34 -19 34 C-19 33.01 -19 32.02 -19 31 C-18.2575 30.566875 -17.515 30.13375 -16.75 29.6875 C-10.20684501 25.67238216 -8.33769385 18.06525146 -5.875 11.1875 C-5.19139576 9.28281085 -4.50161269 7.38032421 -3.8046875 5.48046875 C-3.50546387 4.64410889 -3.20624023 3.80774902 -2.89794922 2.94604492 C-2 1 -2 1 0 0 Z " fill="#335336" transform="translate(319,246)"/>
<path d="M0 0 C0.66 0.33 1.32 0.66 2 1 C1.55527344 2.12277344 1.11054687 3.24554688 0.65234375 4.40234375 C-3.87099772 15.43111272 -3.87099772 15.43111272 -3 27 C0.44450737 29.29633824 2.93812283 29.54016485 7 30 C7 30.99 7 31.98 7 33 C-1.58 33 -10.16 33 -19 33 C-19 32.01 -19 31.02 -19 30 C-18.278125 29.608125 -17.55625 29.21625 -16.8125 28.8125 C-10.30823358 24.62086164 -7.83163011 16.56900995 -5.3125 9.5625 C-4.73167886 7.95729846 -4.14475145 6.35428889 -3.55078125 4.75390625 C-3.29981689 4.05595947 -3.04885254 3.3580127 -2.7902832 2.63891602 C-2 1 -2 1 0 0 Z " fill="#365538" transform="translate(42,247)"/>
<path d="M0 0 C0.99 0.66 1.98 1.32 3 2 C2.84003423 8.39863087 -0.76638773 11.66470709 -5 16 C-5.46664062 16.53882813 -5.93328125 17.07765625 -6.4140625 17.6328125 C-11.72514224 22.21132951 -20.66337361 22.43186034 -27.34765625 22.23046875 C-37.66612903 21.33387097 -37.66612903 21.33387097 -41 18 C-43.31808364 16.96514123 -45.65175298 15.9644586 -48 15 C-48.66 14.67 -49.32 14.34 -50 14 C-49.67 13.34 -49.34 12.68 -49 12 C-48.39671875 12.27714844 -47.7934375 12.55429687 -47.171875 12.83984375 C-46.37265625 13.20207031 -45.5734375 13.56429688 -44.75 13.9375 C-43.96109375 14.29714844 -43.1721875 14.65679687 -42.359375 15.02734375 C-33.66427284 18.61191401 -22.02432828 18.23144904 -13.21875 15.10546875 C-7.78512114 12.39822057 -3.44939534 8.67902048 -1 3.0625 C-0.67 2.051875 -0.34 1.04125 0 0 Z " fill="#CBD0C8" transform="translate(181,264)"/>
<path d="M0 0 C2.51912388 0.33588318 3.67196119 0.57354954 5.25 2.625 C6 5 6 5 6 12 C30.75 12 55.5 12 81 12 C81 12.33 81 12.66 81 13 C55.92 13 30.84 13 5 13 C4.34 14.32 3.68 15.64 3 17 C1 19 1 19 -1.2421875 19.265625 C-2.11101562 19.26046875 -2.97984375 19.2553125 -3.875 19.25 C-4.73867188 19.25515625 -5.60234375 19.2603125 -6.4921875 19.265625 C-9.10473577 18.98890649 -10.7500088 18.3185995 -13 17 C-12.67 15.68 -12.34 14.36 -12 13 C-10.96939453 13.05220703 -10.96939453 13.05220703 -9.91796875 13.10546875 C-9.01691406 13.13253906 -8.11585938 13.15960938 -7.1875 13.1875 C-6.29417969 13.22230469 -5.40085937 13.25710938 -4.48046875 13.29296875 C-1.97713242 13.19461601 -1.97713242 13.19461601 -0.19140625 11.7421875 C1.95123391 8.60901533 1.23530298 5.70602187 1 2 C0.67 1.34 0.34 0.68 0 0 Z " fill="#DCDAC8" transform="translate(351,289)"/>
<path d="M0 0 C0.99 0 1.98 0 3 0 C3 10.56 3 21.12 3 32 C2.34 32 1.68 32 1 32 C0.34 30.02 -0.32 28.04 -1 26 C-4.74162909 26.57614466 -7.44298421 27.62901096 -10.6875 29.5625 C-14.79603399 32 -14.79603399 32 -17 32 C-17.33 31.01 -17.66 30.02 -18 29 C-15.16796875 27.77929688 -15.16796875 27.77929688 -12.3359375 26.55859375 C-6.39692574 22.59594209 -3.46701728 17.92588468 -2.05078125 10.98632812 C-1.91027344 10.18646484 -1.76976562 9.38660156 -1.625 8.5625 C-1.46128906 7.73556641 -1.29757812 6.90863281 -1.12890625 6.05664062 C-0.73287448 4.0415378 -0.36360318 2.0212059 0 0 Z " fill="#315234" transform="translate(464,248)"/>
<path d="M0 0 C2.18975773 3.28463659 2.99806563 6.20696275 4 10 C2.68 10.33 1.36 10.66 0 11 C-0.17015625 11.83402344 -0.3403125 12.66804687 -0.515625 13.52734375 C-2.01459 20.48796314 -3.85883906 26.60936223 -7 33 C-0.73 33 5.54 33 12 33 C12 33.33 12 33.66 12 34 C3.75 34 -4.5 34 -13 34 C-10.58847932 26.76543796 -8.05269021 19.63474876 -5.375 12.5 C-4.76398437 10.85644531 -4.76398437 10.85644531 -4.140625 9.1796875 C-3.75132813 8.14070312 -3.36203125 7.10171875 -2.9609375 6.03125 C-2.60821777 5.08830078 -2.25549805 4.14535156 -1.89208984 3.17382812 C-1 1 -1 1 0 0 Z " fill="#CAD0C7" transform="translate(58,210)"/>
<path d="M0 0 C0.70125 0.2475 1.4025 0.495 2.125 0.75 C2.62 3.72 2.62 3.72 3.125 6.75 C2.63 5.76 2.63 5.76 2.125 4.75 C1.135 4.75 0.145 4.75 -0.875 4.75 C-0.875 5.41 -0.875 6.07 -0.875 6.75 C-9.6680829 12.61205527 -24.51481779 13.42345448 -34.875 11.75 C-39.50159458 10.37074683 -43.71638825 8.18007574 -47.875 5.75 C-44.40486402 4.59328801 -43.89940682 4.93453821 -40.625 6.1875 C-29.94850848 9.55410171 -18.85786622 8.78380521 -8.875 3.75 C-7.73174117 3.00651612 -6.60327458 2.23911976 -5.5 1.4375 C-2.875 -0.25 -2.875 -0.25 0 0 Z " fill="#D1D5CE" transform="translate(461.875,273.25)"/>
<path d="M0 0 C2.27024968 -0.08097324 4.54132075 -0.13917704 6.8125 -0.1875 C8.07707031 -0.22230469 9.34164062 -0.25710938 10.64453125 -0.29296875 C14 0 14 0 15.95703125 1.3203125 C17 3 17 3 16.875 6.0625 C16 9 16 9 13 11 C10.66800612 11.07905064 8.33167378 11.08798769 6 11 C6 13.64 6 16.28 6 19 C6.99 19.33 7.98 19.66 9 20 C6.03 20 3.06 20 0 20 C0.99 19.67 1.98 19.34 3 19 C3 13.06 3 7.12 3 1 C2.01 0.67 1.02 0.34 0 0 Z " fill="#947A0F" transform="translate(83,314)"/>
<path d="M0 0 C0.66 0 1.32 0 2 0 C2.99 3.3 3.98 6.6 5 10 C3.02 10.99 3.02 10.99 1 12 C-0.20113171 13.7806271 -0.20113171 13.7806271 -1 15.9375 C-1.32484375 16.72898438 -1.6496875 17.52046875 -1.984375 18.3359375 C-3.71360963 22.87185295 -5.37823748 27.4243129 -7 32 C-0.73 32 5.54 32 12 32 C12.33 31.34 12.66 30.68 13 30 C13 30.99 13 31.98 13 33 C4.75 33 -3.5 33 -12 33 C-8.625 21.75 -8.625 21.75 -6.73828125 16.9921875 C-6.34189453 15.98671875 -5.94550781 14.98125 -5.53710938 13.9453125 C-5.13298828 12.93210938 -4.72886719 11.91890625 -4.3125 10.875 C-3.68891602 9.2971875 -3.68891602 9.2971875 -3.05273438 7.6875 C-2.03880049 5.12352925 -1.02117166 2.56109468 0 0 Z " fill="#C6CCC3" transform="translate(334,211)"/>
<path d="M0 0 C0.33 0 0.66 0 1 0 C1.04655738 7.27641172 1.08198717 14.55279076 1.10362434 21.82932186 C1.11401463 25.20894103 1.12808566 28.58845749 1.15087891 31.96801758 C1.17525279 35.86282011 1.18651203 39.75747862 1.1953125 43.65234375 C1.20563507 44.8526976 1.21595764 46.05305145 1.22659302 47.28977966 C1.22792961 57.38091775 0.55608812 67.99941548 -6.5625 75.8125 C-7.7690625 76.8953125 -7.7690625 76.8953125 -9 78 C-9.99 78.99 -9.99 78.99 -11 80 C-13.125 79.625 -13.125 79.625 -15 79 C-14.54109375 78.62488281 -14.0821875 78.24976563 -13.609375 77.86328125 C-12.99578125 77.35152344 -12.3821875 76.83976562 -11.75 76.3125 C-10.84507812 75.56419922 -10.84507812 75.56419922 -9.921875 74.80078125 C-2.12318267 67.49346994 -2.114104 59.3567724 -1.77294922 49.22998047 C-1.59580867 42.46664972 -1.51321644 35.70259919 -1.4375 28.9375 C-1.3934613 25.42812125 -1.3467887 21.9188298 -1.29469299 18.40956116 C-1.26290626 16.23827293 -1.23596431 14.06690699 -1.21446228 11.89549255 C-1.20097244 10.91669632 -1.1874826 9.93790009 -1.17358398 8.92944336 C-1.16407211 8.07152695 -1.15456024 7.21361053 -1.14476013 6.32969666 C-1.00597979 4.09623579 -0.62010239 2.14485365 0 0 Z " fill="#DFE1DB" transform="translate(188,202)"/>
<path d="M0 0 C1.32 0.66 2.64 1.32 4 2 C4 3.65 4 5.3 4 7 C-9.2 7 -22.4 7 -36 7 C-36 5.68 -36 4.36 -36 3 C-24.12 3 -12.24 3 0 3 C0 2.01 0 1.02 0 0 Z " fill="#CBD0C8" transform="translate(110,277)"/>
<path d="M0 0 C7 0 7 0 8.91796875 1.19140625 C10.33798312 3.56493208 10.36635568 5.18257487 10.3125 7.9375 C10.30863281 8.79214844 10.30476563 9.64679688 10.30078125 10.52734375 C9.98333059 13.13703556 9.40123439 14.78674286 8 17 C6 18 6 18 0 18 C0 12.06 0 6.12 0 0 Z " fill="#F8F5F1" transform="translate(272,315)"/>
<path d="M0 0 C2.22122114 1.52936537 4.03435629 3.13515853 6 5 C5.01 5.33 4.02 5.66 3 6 C2.5875 5.525625 2.175 5.05125 1.75 4.5625 C-1.75088649 1.43670849 -5.9863941 1.83838077 -10.5 1.8125 C-11.6240625 1.79832031 -12.748125 1.78414062 -13.90625 1.76953125 C-18.463141 2.10899662 -20.29451721 3.29451721 -23.5 6.5 C-26.71300331 10.49884622 -28.3055321 15.21005164 -30 20 C-30.3449145 18.66961551 -30.67516582 17.33542939 -31 16 C-31.34998047 14.77796875 -31.34998047 14.77796875 -31.70703125 13.53125 C-32.17771826 9.46451425 -30.31363964 7.37222708 -28.0078125 4.16015625 C-20.14745161 -4.29661335 -10.0028314 -4.63899427 0 0 Z " fill="#A3AFA1" transform="translate(451,195)"/>
<path d="M0 0 C0.66 0 1.32 0 2 0 C1.125 4.75 1.125 4.75 0 7 C-0.09175034 9.12417 -0.11750694 11.25129455 -0.11352539 13.37744141 C-0.11367142 14.03122269 -0.11381744 14.68500397 -0.1139679 15.3585968 C-0.11327036 17.52295227 -0.1054854 19.68722204 -0.09765625 21.8515625 C-0.09579151 23.35086012 -0.09436787 24.85015834 -0.09336853 26.34945679 C-0.08954779 30.29831622 -0.07972128 34.24713896 -0.06866455 38.19598389 C-0.05844091 42.22440087 -0.05386887 46.25282378 -0.04882812 50.28125 C-0.03809862 58.18751685 -0.0210275 66.09375386 0 74 C-3.54533585 70.45466415 -3.13153753 66.5715886 -3.16113281 61.734375 C-3.17074036 60.46625977 -3.1803479 59.19814453 -3.19024658 57.89160156 C-3.19509361 56.51106954 -3.19937267 55.13053543 -3.203125 53.75 C-3.20888009 52.33040364 -3.21463778 50.91080728 -3.22039795 49.49121094 C-3.2308874 46.51887654 -3.23674413 43.54656904 -3.24023438 40.57421875 C-3.24572815 36.76764595 -3.2697832 32.9614292 -3.29820633 29.15496826 C-3.31683386 26.22443602 -3.32203826 23.29398976 -3.32357025 20.36340332 C-3.32659487 18.95998173 -3.33461703 17.55656159 -3.34775543 16.15319824 C-3.36482335 14.19074591 -3.36108978 12.22814606 -3.35644531 10.265625 C-3.36009094 9.14961914 -3.36373657 8.03361328 -3.36749268 6.88378906 C-2.95904467 3.67861526 -2.26543323 2.27345659 0 0 Z " fill="#A4B1A3" transform="translate(144,194)"/>
<path d="M0 0 C2.22808159 -0.10853983 4.45769932 -0.18583307 6.6875 -0.25 C7.92886719 -0.29640625 9.17023438 -0.3428125 10.44921875 -0.390625 C14.5696687 0.06266982 16.10787892 1.10251321 19 4 C20.53214888 7.06429776 20.22938548 9.6165642 20 13 C18.34860695 16.5386994 17.28394771 17.81070153 14 20 C10.64453125 20.1953125 10.64453125 20.1953125 6.8125 20.125 C5.54019531 20.10695313 4.26789063 20.08890625 2.95703125 20.0703125 C1.98121094 20.04710937 1.00539063 20.02390625 0 20 C0.99 19.67 1.98 19.34 3 19 C3 13.06 3 7.12 3 1 C2.01 0.67 1.02 0.34 0 0 Z M6 1 C6 6.94 6 12.88 6 19 C11.76887492 19.5547002 11.76887492 19.5547002 15 17 C15.96847302 14.09458095 16.19582812 12.03362546 16.25 9 C16.27578125 8.13375 16.3015625 7.2675 16.328125 6.375 C16.15617783 3.99525147 16.15617783 3.99525147 14.921875 2.1875 C12.38403349 0.38675319 12.38403349 0.38675319 6 1 Z " fill="#9E8626" transform="translate(266,314)"/>
<path d="M0 0 C2.13671875 -0.4375 2.13671875 -0.4375 5 0 C7.27987453 2.07247302 9.01226425 4.50995428 10.8125 7 C11.31458984 7.66773438 11.81667969 8.33546875 12.33398438 9.0234375 C13.57020191 10.67172755 14.78701654 12.3345376 16 14 C16.33 9.71 16.66 5.42 17 1 C16.01 0.67 15.02 0.34 14 0 C16.31 0 18.62 0 21 0 C20.01 0.33 19.02 0.66 18 1 C18 7.27 18 13.54 18 20 C13.75197923 17.87598962 11.90934506 15.60847792 9.25 11.875 C8.63318359 11.03001953 8.63318359 11.03001953 8.00390625 10.16796875 C6.99523915 8.78398366 5.99660714 7.39269459 5 6 C4.67 10.29 4.34 14.58 4 19 C4.66 19.33 5.32 19.66 6 20 C3.69 20 1.38 20 -1 20 C-0.01 19.67 0.98 19.34 2 19 C2 13.06 2 7.12 2 1 C1.34 0.67 0.68 0.34 0 0 Z " fill="#9D8523" transform="translate(378,314)"/>
<path d="M0 0 C0.33 0 0.66 0 1 0 C1 15.18 1 30.36 1 46 C1.66 46 2.32 46 3 46 C2.81743569 54.7298932 1.36615545 62.47113068 -4.88671875 68.95703125 C-6.52915251 70.37958544 -8.25763408 71.70176657 -10 73 C-10.33 71.68 -10.66 70.36 -11 69 C-9.88625 68.319375 -9.88625 68.319375 -8.75 67.625 C-3.82419676 62.92309691 -1.28634193 55.37457781 -0.84178162 48.58282471 C-0.82623734 47.68569763 -0.81069305 46.78857056 -0.79467773 45.86425781 C-0.77473251 44.84350159 -0.75478729 43.82274536 -0.73423767 42.77105713 C-0.70916893 41.12868073 -0.70916893 41.12868073 -0.68359375 39.453125 C-0.6524221 37.76361725 -0.6524221 37.76361725 -0.62062073 36.03997803 C-0.55525667 32.44338051 -0.49630115 28.84671023 -0.4375 25.25 C-0.3943023 22.8111904 -0.3506876 20.37238816 -0.30664062 17.93359375 C-0.1995887 11.955806 -0.09779783 5.97794593 0 0 Z " fill="#506B52" transform="translate(181,205)"/>
<path d="M0 0 C2.6328125 -0.4375 2.6328125 -0.4375 6 0 C8.36319139 2.03207244 10.07647336 4.46837826 11.875 7 C12.37257812 7.66773438 12.87015625 8.33546875 13.3828125 9.0234375 C14.60572459 10.66966531 15.80521139 12.33324863 17 14 C17.33 9.71 17.66 5.42 18 1 C17.01 0.67 16.02 0.34 15 0 C17.31 0 19.62 0 22 0 C21.01 0.33 20.02 0.66 19 1 C19 7.27 19 13.54 19 20 C14.59879886 17.79939943 12.57571502 15.21928671 9.75 11.375 C9.29109375 10.76398438 8.8321875 10.15296875 8.359375 9.5234375 C7.23248748 8.0209208 6.11527563 6.51115591 5 5 C4.67 9.62 4.34 14.24 4 19 C4.99 19.33 5.98 19.66 7 20 C4.69 20 2.38 20 0 20 C0.99 19.67 1.98 19.34 3 19 C3 13.06 3 7.12 3 1 C2.01 0.67 1.02 0.34 0 0 Z " fill="#967C14" transform="translate(139,314)"/>
<path d="M0 0 C1.33804688 0.17982422 1.33804688 0.17982422 2.703125 0.36328125 C3.37859375 0.47027344 4.0540625 0.57726562 4.75 0.6875 C4.75 2.6675 4.75 4.6475 4.75 6.6875 C4.09 6.6875 3.43 6.6875 2.75 6.6875 C2.42 5.3675 2.09 4.0475 1.75 2.6875 C-0.56 2.6875 -2.87 2.6875 -5.25 2.6875 C-4.90514457 5.5717454 -4.46744593 6.5082818 -2.18359375 8.390625 C-1.35988281 8.90109375 -0.53617188 9.4115625 0.3125 9.9375 C1.13878906 10.45828125 1.96507812 10.9790625 2.81640625 11.515625 C3.77353516 12.09570312 3.77353516 12.09570312 4.75 12.6875 C4.49438677 15.0306213 4.15729228 17.36593403 3.75 19.6875 C1.10541621 21.00979189 -0.92761301 20.78427194 -3.875 20.75 C-4.87789062 20.74097656 -5.88078125 20.73195313 -6.9140625 20.72265625 C-7.68492187 20.71105469 -8.45578125 20.69945312 -9.25 20.6875 C-9.25 18.3775 -9.25 16.0675 -9.25 13.6875 C-7.25 16.6875 -7.25 16.6875 -6.25 18.6875 C-3.92843403 19.09479228 -1.5931213 19.43188677 0.75 19.6875 C1.1209903 17.32458441 1.1209903 17.32458441 0.75 14.6875 C-1.16644679 12.81728941 -1.16644679 12.81728941 -3.6875 11.4375 C-4.92306641 10.68726563 -4.92306641 10.68726563 -6.18359375 9.921875 C-6.86550781 9.51453125 -7.54742187 9.1071875 -8.25 8.6875 C-9.25 7.6875 -9.25 7.6875 -9.5625 5.3125 C-9.25 2.6875 -9.25 2.6875 -7.55859375 1.00390625 C-4.6877469 -0.63310794 -3.23509831 -0.46823791 0 0 Z " fill="#99801A" transform="translate(239.25,313.3125)"/>
<path d="M0 0 C0.33 0.99 0.66 1.98 1 3 C1.99 3.33 2.98 3.66 4 4 C4 13.9 4 23.8 4 34 C3.01 34 2.02 34 1 34 C-0.47905238 31.04189524 -0.12190903 28.0452845 -0.09765625 24.8046875 C-0.0962413 24.09724396 -0.09482635 23.38980042 -0.09336853 22.66091919 C-0.087766 20.39890331 -0.07521318 18.13698602 -0.0625 15.875 C-0.05748532 14.34244935 -0.05292236 12.80989714 -0.04882812 11.27734375 C-0.03779577 7.51819112 -0.02052952 3.75911228 0 0 Z " fill="#BAC2B7" transform="translate(467,248)"/>
<path d="M0 0 C2.45248349 0.72832933 4.91116473 1.43604814 7.375 2.125 C8.51710937 2.45757812 9.65921875 2.79015625 10.8359375 3.1328125 C13.54976959 3.87660352 16.23387394 4.49235889 19 5 C19 5.33 19 5.66 19 6 C11.56144178 6.41389196 5.74261352 6.4497169 -0.921875 2.95703125 C-4.22895285 1.43403487 -7.3917738 1.26241645 -11 1 C-11 1.66 -11 2.32 -11 3 C-16.97802937 5.20927172 -21.73960391 4.93213141 -28 4 C-18.56691864 -2.28872091 -10.5285804 -4.05938454 0 0 Z " fill="#B6BFB4" transform="translate(75,178)"/>
<path d="M0 0 C0 1.65 0 3.3 0 5 C-0.37125 4.505 -0.7425 4.01 -1.125 3.5 C-3.74694393 1.40244486 -5.73842472 1.78256165 -9 2 C-9 3.32 -9 4.64 -9 6 C-8.36191406 6.34933594 -7.72382813 6.69867188 -7.06640625 7.05859375 C-6.24011719 7.51363281 -5.41382813 7.96867187 -4.5625 8.4375 C-3.73878906 8.88996094 -2.91507812 9.34242188 -2.06640625 9.80859375 C0 11 0 11 1 12 C1.28522825 14.7096684 1.43582128 16.36210242 -0.12890625 18.65234375 C-2.83033413 20.59804859 -4.90296655 20.29345269 -8.1875 20.1875 C-9.27417969 20.16042969 -10.36085938 20.13335937 -11.48046875 20.10546875 C-12.72763672 20.05326172 -12.72763672 20.05326172 -14 20 C-14 17.69 -14 15.38 -14 13 C-13.34 13 -12.68 13 -12 13 C-11.34 14.65 -10.68 16.3 -10 18 C-8.02 18 -6.04 18 -4 18 C-3.67 16.68 -3.34 15.36 -3 14 C-3.63808594 13.57847656 -4.27617187 13.15695312 -4.93359375 12.72265625 C-5.75988281 12.17480469 -6.58617187 11.62695312 -7.4375 11.0625 C-8.26121094 10.51722656 -9.08492188 9.97195313 -9.93359375 9.41015625 C-12 8 -12 8 -13 7 C-13.39498394 3.99812205 -13.43168174 2.56306314 -11.5625 0.125 C-7.65381057 -1.59100999 -4.11626088 -0.73002063 0 0 Z " fill="#957B12" transform="translate(363,314)"/>
<path d="M0 0 C1.670625 0.061875 1.670625 0.061875 3.375 0.125 C3.375 1.115 3.375 2.105 3.375 3.125 C1 4.6875 1 4.6875 -1.625 6.125 C-6.81390085 11.31390085 -7.08223466 18.51574524 -7.13671875 25.4375 C-7.15466995 26.29182617 -7.17262115 27.14615234 -7.19111633 28.02636719 C-7.24482618 30.72586286 -7.27898739 33.42518582 -7.3125 36.125 C-7.3457079 37.96747176 -7.38020073 39.80992083 -7.41601562 41.65234375 C-7.50052943 46.14310369 -7.56752656 50.63381592 -7.625 55.125 C-7.955 55.125 -8.285 55.125 -8.625 55.125 C-8.70112011 48.38068885 -8.75362932 41.63648866 -8.78979492 34.8918457 C-8.80487308 32.59785828 -8.8253387 30.30389963 -8.85131836 28.01000977 C-8.88774358 24.71102795 -8.90473631 21.4124276 -8.91796875 18.11328125 C-8.93345261 17.08914627 -8.94893646 16.06501129 -8.96488953 15.00984192 C-8.96697785 6.15660039 -8.96697785 6.15660039 -5.625 2.125 C-3.625 0.125 -3.625 0.125 0 0 Z " fill="#C0C7BE" transform="translate(192.625,193.875)"/>
<path d="M0 0 C0.33 0.66 0.66 1.32 1 2 C1.99 2 2.98 2 4 2 C4.33 2.99 4.66 3.98 5 5 C3.05063872 7.38255267 1.88308087 8.03741412 -1.125 9 C-2.548125 9.495 -2.548125 9.495 -4 10 C-5.11878427 13.35635282 -5.15885588 15.95288354 -5.20532227 19.4909668 C-5.21522186 20.1448941 -5.22512146 20.79882141 -5.23532104 21.4725647 C-5.26687783 23.6314127 -5.29167032 25.79028271 -5.31640625 27.94921875 C-5.33698081 29.44709338 -5.35797742 30.94496228 -5.37937927 32.44282532 C-5.43454809 36.3833857 -5.48398021 40.32399803 -5.53222656 44.26464844 C-5.58247951 48.28650531 -5.63814577 52.30828684 -5.69335938 56.33007812 C-5.80087746 64.21998836 -5.90233648 72.10996166 -6 80 C-6.33 80 -6.66 80 -7 80 C-7.09274137 70.95955631 -7.16378568 61.91927675 -7.20724869 52.87846088 C-7.22811042 48.68027742 -7.25640168 44.48241978 -7.30175781 40.28442383 C-7.34526685 36.23195894 -7.36914775 32.17980715 -7.37950897 28.12712669 C-7.38689134 26.58215596 -7.40130763 25.03720208 -7.42292023 23.49236488 C-7.45202308 21.32567139 -7.45595337 19.16026617 -7.45410156 16.9934082 C-7.46298401 15.76096878 -7.47186646 14.52852936 -7.48101807 13.25874329 C-6.91526207 9.42592767 -5.64374933 7.76616483 -3 5 C-3.66 4.34 -4.32 3.68 -5 3 C-3.35 3 -1.7 3 0 3 C0 2.01 0 1.02 0 0 Z " fill="#DDDFD9" transform="translate(269,191)"/>
<path d="M0 0 C5.28 0 10.56 0 16 0 C16 1.98 16 3.96 16 6 C15.649375 5.360625 15.29875 4.72125 14.9375 4.0625 C12.22815794 1.17836168 9.84141089 1.2899178 6 1 C6 3.64 6 6.28 6 9 C8.31 9 10.62 9 13 9 C13 9.33 13 9.66 13 10 C10.69 10 8.38 10 6 10 C6 12.97 6 15.94 6 19 C11.03478441 18.76586026 11.03478441 18.76586026 14.9375 15.9375 C15.288125 15.298125 15.63875 14.65875 16 14 C16 15.98 16 17.96 16 20 C10.72 20 5.44 20 0 20 C0.99 19.67 1.98 19.34 3 19 C3 13.06 3 7.12 3 1 C2.01 0.67 1.02 0.34 0 0 Z " fill="#93790E" transform="translate(247,314)"/>
<path d="M0 0 C0.33 0 0.66 0 1 0 C1.06748193 3.84647003 1.09470193 7.3810282 0.51171875 11.19140625 C-0.08238322 15.61315754 -0.22152985 19.91942114 -0.25 24.375 C-0.270625 25.17421875 -0.29125 25.9734375 -0.3125 26.796875 C-0.35089103 32.72828882 0.86463103 37.49321194 3 43 C6.29577465 52.63380282 6.29577465 52.63380282 7 57 C7.66 57 8.32 57 9 57 C9.33 58.32 9.66 59.64 10 61 C2.52360106 55.36271524 1.16310553 50.37779958 -0.53515625 41.3671875 C-0.94349746 39.08835279 -0.94349746 39.08835279 -1.51855469 37.25976562 C-2.53561721 32.48596708 -2.18589768 27.49956258 -2.18530273 22.63769531 C-2.18748512 20.63863013 -2.20599143 18.63960468 -2.22460938 16.640625 C-2.22654297 15.36960938 -2.22847656 14.09859375 -2.23046875 12.7890625 C-2.23457764 11.63100098 -2.23868652 10.47293945 -2.24291992 9.27978516 C-1.99162245 5.88689046 -1.21173908 3.16667011 0 0 Z " fill="#E7E7E3" transform="translate(419,215)"/>
<path d="M0 0 C4.95 0 9.9 0 15 0 C15 1.65 15 3.3 15 5 C14.34 3.68 13.68 2.36 13 1 C10.36 1 7.72 1 5 1 C5 3.64 5 6.28 5 9 C7.31 9 9.62 9 12 9 C12 9.33 12 9.66 12 10 C9.69 10 7.38 10 5 10 C5 12.97 5 15.94 5 19 C9.82194643 18.67495741 9.82194643 18.67495741 13.9375 16.4375 C14.288125 15.963125 14.63875 15.48875 15 15 C15 16.65 15 18.3 15 20 C9.72 20 4.44 20 -1 20 C-0.01 19.67 0.98 19.34 2 19 C2 13.06 2 7.12 2 1 C1.34 0.67 0.68 0.34 0 0 Z " fill="#977E17" transform="translate(401,314)"/>
<path d="M0 0 C1.98 0 3.96 0 6 0 C6 6.27 6 12.54 6 19 C9.465 18.505 9.465 18.505 13 18 C13 15.36 13 12.72 13 10 C14.32 10.33 15.64 10.66 17 11 C17.36170213 16.42553191 17.36170213 16.42553191 15.9375 18.6875 C12.96018212 20.70439276 10.35174705 20.28491047 6.8125 20.1875 C4.90404297 20.14689453 4.90404297 20.14689453 2.95703125 20.10546875 C1.98121094 20.07066406 1.00539062 20.03585937 0 20 C0.99 19.67 1.98 19.34 3 19 C3 13.06 3 7.12 3 1 C2.01 0.67 1.02 0.34 0 0 Z " fill="#93790E" transform="translate(188,314)"/>
<path d="M0 0 C1.81618856 1.11903546 3.62785526 2.24541284 5.4375 3.375 C6.44683594 4.00148438 7.45617187 4.62796875 8.49609375 5.2734375 C11 7 11 7 12 9 C24.5714905 16.62608799 39.20517968 14.97691691 53 12 C45.93527911 17.65487528 37.70252198 17.55254108 29 17 C22.81046978 16.21152481 16.27409318 14.41199263 11 11 C10.31438406 9.67631083 9.6459596 8.34348741 9 7 C7.01751285 6.28293018 5.01584651 5.61709587 3 5 C1.125 3.5 1.125 3.5 0 2 C0 1.34 0 0.68 0 0 Z " fill="#E7E7E3" transform="translate(403,270)"/>
<path d="M0 0 C11.22 0 22.44 0 34 0 C33.67 0.99 33.34 1.98 33 3 C21.78 3 10.56 3 -1 3 C-0.67 2.01 -0.34 1.02 0 0 Z " fill="#B7BFB4" transform="translate(354,280)"/>
<path d="M0 0 C5.61 0 11.22 0 17 0 C17 1.98 17 3.96 17 6 C16.5875 5.360625 16.175 4.72125 15.75 4.0625 C13.99276136 1.58535424 13.99276136 1.58535424 10 1 C10 6.94 10 12.88 10 19 C10.99 19.33 11.98 19.66 13 20 C10.03 20 7.06 20 4 20 C4.99 19.67 5.98 19.34 7 19 C7 13.06 7 7.12 7 1 C5.68 1.33 4.36 1.66 3 2 C1.70339566 4.49034386 1.70339566 4.49034386 1 7 C0.67 7 0.34 7 0 7 C0 4.69 0 2.38 0 0 Z " fill="#91770A" transform="translate(162,314)"/>
<path d="M0 0 C2.3125 -0.3125 2.3125 -0.3125 5 0 C8.21792747 4.02463827 8.36637911 7.31182083 8.34057617 12.3605957 C8.34101425 13.08309006 8.34145233 13.80558441 8.34190369 14.54997253 C8.33982244 16.92552207 8.31652374 19.30035582 8.29296875 21.67578125 C8.28737041 23.32772944 8.28310144 24.97968262 8.28010559 26.63163757 C8.26867551 30.97020323 8.2392243 35.30846547 8.20599365 39.64691162 C8.17525306 44.07771704 8.16159174 48.5085717 8.14648438 52.93945312 C8.11435268 61.626441 8.06317876 70.31318271 8 79 C7.67 79 7.34 79 7 79 C6.67 54.91 6.34 30.82 6 6 C3.525 5.01 3.525 5.01 1 4 C0.1875 1.875 0.1875 1.875 0 0 Z " fill="#EEEEE9" transform="translate(231,194)"/>
<path d="M0 0 C0.33 0 0.66 0 1 0 C1.02505615 0.59014893 1.0501123 1.18029785 1.07592773 1.78833008 C1.19200052 4.46326814 1.31467572 7.1378638 1.4375 9.8125 C1.47681641 10.74126953 1.51613281 11.67003906 1.55664062 12.62695312 C1.59853516 13.51962891 1.64042969 14.41230469 1.68359375 15.33203125 C1.72025146 16.15421143 1.75690918 16.9763916 1.79467773 17.82348633 C1.93427772 20.17905178 1.93427772 20.17905178 3 23 C2.01 23 1.02 23 0 23 C0.33 24.65 0.66 26.3 1 28 C-6.26 28 -13.52 28 -21 28 C-20.67 27.34 -20.34 26.68 -20 26 C-13.73 26 -7.46 26 -1 26 C-1.01160156 24.20691406 -1.02320313 22.41382813 -1.03515625 20.56640625 C-1.04453229 18.23177187 -1.05363269 15.89713637 -1.0625 13.5625 C-1.07087891 12.37849609 -1.07925781 11.19449219 -1.08789062 9.97460938 C-1.09272461 8.28754883 -1.09272461 8.28754883 -1.09765625 6.56640625 C-1.10289307 5.52427979 -1.10812988 4.48215332 -1.11352539 3.40844727 C-1 1 -1 1 0 0 Z " fill="#B6BFB4" transform="translate(300,254)"/>
<path d="M0 0 C1.32 0.66 2.64 1.32 4 2 C1.78189589 5.38552733 -0.47622986 7.05265334 -4 9 C-5.75533958 10.75533958 -5.17046549 13.23613828 -5.20532227 15.62133789 C-5.22526749 16.82250748 -5.24521271 18.02367706 -5.26576233 19.26124573 C-5.28247482 20.5685112 -5.29918732 21.87577667 -5.31640625 23.22265625 C-5.33696958 24.56644847 -5.35796588 25.91023412 -5.37937927 27.25401306 C-5.43466419 30.79674987 -5.48404498 34.33954567 -5.53222656 37.88238525 C-5.58239487 41.4952115 -5.63810525 45.10795172 -5.69335938 48.72070312 C-5.80101937 55.81372747 -5.9024468 62.90682888 -6 70 C-6.33 70 -6.66 70 -7 70 C-7.09264072 61.83769095 -7.16373412 53.67560118 -7.20724869 45.51289654 C-7.22813259 41.72268302 -7.25646381 37.93282891 -7.30175781 34.14282227 C-7.34518858 30.48587826 -7.36913106 26.82928014 -7.37950897 23.17209816 C-7.38690548 21.7761878 -7.40134928 20.38029659 -7.42292023 18.98453331 C-7.45191117 17.03113611 -7.45363352 15.07739156 -7.45410156 13.1237793 C-7.46298401 12.0112529 -7.47186646 10.8987265 -7.48101807 9.75248718 C-7 7 -7 7 -5.22161865 5.11726379 C-3 4 -3 4 1 4 C0.67 2.68 0.34 1.36 0 0 Z " fill="#E8E8E3" transform="translate(152,193)"/>
<path d="M0 0 C1.32 0.33 2.64 0.66 4 1 C3.02160156 1.57234375 3.02160156 1.57234375 2.0234375 2.15625 C-0.2447124 3.84651488 -0.2447124 3.84651488 -0.4609375 6.59375 C-0.43257813 7.5528125 -0.40421875 8.511875 -0.375 9.5 C-0.35566406 10.93859375 -0.35566406 10.93859375 -0.3359375 12.40625 C-0.16460918 15.23325478 -0.16460918 15.23325478 2 18 C5.07921132 18.25660094 7.21136993 18.39431504 10 17 C10.33 16.01 10.66 15.02 11 14 C11.66 14 12.32 14 13 14 C13 15.98 13 17.96 13 20 C2.06713165 20.6277245 2.06713165 20.6277245 -2.1875 18.125 C-4.98916624 14.84028785 -5.38303388 12.45128278 -5.3671875 8.109375 C-4.72855287 4.44062288 -2.58457375 2.58457375 0 0 Z " fill="#987F19" transform="translate(301,314)"/>
<path d="M0 0 C0.99 0.33 1.98 0.66 3 1 C2.34 1 1.68 1 1 1 C0.82984375 1.5993335 0.6596875 2.19866699 0.484375 2.81616211 C-1.37281471 9.19839947 -3.55261415 15.38423084 -6 21.5625 C-6.34289062 22.46291016 -6.68578125 23.36332031 -7.0390625 24.29101562 C-7.54566406 25.57202148 -7.54566406 25.57202148 -8.0625 26.87890625 C-8.36285156 27.6479126 -8.66320312 28.41691895 -8.97265625 29.20922852 C-10 31 -10 31 -13 32 C-11.90977037 25.61910168 -9.37914191 19.76742049 -7.0625 13.75 C-6.60681641 12.54085937 -6.15113281 11.33171875 -5.68164062 10.0859375 C-5.02131836 8.36503906 -5.02131836 8.36503906 -4.34765625 6.609375 C-3.94554932 5.55717773 -3.54344238 4.50498047 -3.12915039 3.42089844 C-2 1 -2 1 0 0 Z " fill="#3C5B3F" transform="translate(333,210)"/>
<path d="M0 0 C0 0.66 0 1.32 0 2 C-0.66 2 -1.32 2 -2 2 C-2.98308046 6.12812506 -3.15408601 10.03082872 -3.20532227 14.26879883 C-3.21522186 14.98153961 -3.22512146 15.6942804 -3.23532104 16.42861938 C-3.26676774 18.7713902 -3.29162646 21.11418124 -3.31640625 23.45703125 C-3.33699034 25.0865683 -3.35798718 26.71610019 -3.37937927 28.34562683 C-3.43444976 32.62482508 -3.483925 36.90407032 -3.53222656 41.18334961 C-3.58255159 45.553916 -3.63818012 49.92441455 -3.69335938 54.29492188 C-3.80075707 62.86322381 -3.90224251 71.43158268 -4 80 C-4.33 80 -4.66 80 -5 80 C-5.06945342 70.0123038 -5.12278753 60.02466488 -5.15543652 50.03677654 C-5.17110494 45.3991869 -5.19236458 40.76176225 -5.22631836 36.12426758 C-5.25887 31.65037727 -5.27684415 27.17664583 -5.28463173 22.70264626 C-5.2901828 20.99416413 -5.3010225 19.28569088 -5.31719017 17.57727623 C-5.33890904 15.18763688 -5.34196931 12.79865742 -5.34057617 10.40893555 C-5.351362 9.69971451 -5.36214783 8.99049347 -5.3732605 8.25978088 C-5.35483865 5.34723928 -5.32043194 3.45049985 -3.60371399 1.03694153 C-2 0 -2 0 0 0 Z " fill="#AAB5A8" transform="translate(264,194)"/>
<path d="M0 0 C2.64 0 5.28 0 8 0 C7.01 0.495 7.01 0.495 6 1 C6 6.94 6 12.88 6 19 C6.66 19.33 7.32 19.66 8 20 C5.36 20 2.72 20 0 20 C0.66 19.67 1.32 19.34 2 19 C2 13.06 2 7.12 2 1 C1.34 0.67 0.68 0.34 0 0 Z " fill="#A18A2E" transform="translate(338,314)"/>
<path d="M0 0 C2.97 0 5.94 0 9 0 C8.01 0.33 7.02 0.66 6 1 C6 6.94 6 12.88 6 19 C7.98 18.67 9.96 18.34 12 18 C13.45291273 15.53744315 13.45291273 15.53744315 14 13 C14.33 13 14.66 13 15 13 C15 15.31 15 17.62 15 20 C10.05 20 5.1 20 0 20 C0.99 19.67 1.98 19.34 3 19 C3 13.06 3 7.12 3 1 C2.01 0.67 1.02 0.34 0 0 Z " fill="#967D14" transform="translate(102,314)"/>
<path d="M0 0 C9.24 0 18.48 0 28 0 C28 0.99 28 1.98 28 3 C23.54234428 3.22506224 19.08394312 3.4272243 14.625 3.625 C13.35398437 3.68945312 12.08296875 3.75390625 10.7734375 3.8203125 C9.56171875 3.871875 8.35 3.9234375 7.1015625 3.9765625 C5.98088379 4.02893066 4.86020508 4.08129883 3.70556641 4.13525391 C1 4 1 4 -1 2 C-0.67 1.34 -0.34 0.68 0 0 Z " fill="#BFC6BC" transform="translate(44,246)"/>
<path d="M0 0 C0.33 0 0.66 0 1 0 C1.33 1.65 1.66 3.3 2 5 C2.33 5 2.66 5 3 5 C3 13.91 3 22.82 3 32 C1.02 31.67 -0.96 31.34 -3 31 C-2.01 30.67 -1.02 30.34 0 30 C0 20.1 0 10.2 0 0 Z " fill="#ADB7AB" transform="translate(467,191)"/>
<path d="M0 0 C0.66 0.33 1.32 0.66 2 1 C1.42098044 5.13585402 0.47957878 8.74133771 -1.06640625 12.6171875 C-1.6706543 14.14472656 -1.6706543 14.14472656 -2.28710938 15.703125 C-2.70798828 16.74984375 -3.12886719 17.7965625 -3.5625 18.875 C-3.98724609 19.94492188 -4.41199219 21.01484375 -4.84960938 22.1171875 C-5.89446849 24.74694526 -6.94473782 27.37440342 -8 30 C-8.99 30 -9.98 30 -11 30 C-9.0173911 22.93487572 -6.592956 16.16273165 -3.8125 9.375 C-3.44447266 8.46621094 -3.07644531 7.55742187 -2.69726562 6.62109375 C-1.80216521 4.41240441 -0.9030465 2.20544952 0 0 Z " fill="#3D5C40" transform="translate(54,212)"/>
<path d="M0 0 C3.457753 0.94143863 4.72682972 1.53729675 6.58203125 4.6796875 C6.98808594 5.73414063 7.39414062 6.78859375 7.8125 7.875 C8.23144531 8.92429688 8.65039062 9.97359375 9.08203125 11.0546875 C10 14 10 14 10 18 C10.66 18 11.32 18 12 18 C12.99 21.63 13.98 25.26 15 29 C14.34 29 13.68 29 13 29 C12.37379084 27.60470871 11.74909369 26.20873879 11.125 24.8125 C10.75761719 23.99136719 10.39023437 23.17023438 10.01171875 22.32421875 C9.26699962 20.61337751 8.58431464 18.87520432 7.9375 17.125 C7.16393682 14.96683995 7.16393682 14.96683995 5.578125 13.75390625 C3.40666807 11.34057911 2.77424126 8.89670473 1.8125 5.8125 C1.46832031 4.72582031 1.12414062 3.63914063 0.76953125 2.51953125 C0.51558594 1.68808594 0.26164062 0.85664063 0 0 Z " fill="#E5E5E0" transform="translate(349,192)"/>
<path d="M0 0 C0.83660156 0.3609375 1.67320312 0.721875 2.53515625 1.09375 C14.42933704 5.8356161 25.53614181 6.49862686 38 3 C37.09765625 5.46875 37.09765625 5.46875 35 8 C31.81481549 8.74852232 28.6930915 8.61183442 25.4375 8.5 C24.53378662 8.48300049 23.63007324 8.46600098 22.69897461 8.44848633 C14.53287834 8.19143144 6.67106461 7.11448287 0 2 C0 1.34 0 0.68 0 0 Z " fill="#BDC4BA" transform="translate(131,276)"/>
<path d="M0 0 C0.66 0 1.32 0 2 0 C3.17094005 2.7899439 4.33690927 5.58178597 5.5 8.375 C5.83386719 9.1690625 6.16773438 9.963125 6.51171875 10.78125 C6.82753906 11.54179687 7.14335937 12.30234375 7.46875 13.0859375 C7.76201172 13.7876709 8.05527344 14.4894043 8.35742188 15.21240234 C9 17 9 17 9 19 C9.66 19.33 10.32 19.66 11 20 C8.69 20 6.38 20 4 20 C4.33 19.34 4.66 18.68 5 18 C4.22733731 15.3719738 4.22733731 15.3719738 3.0625 12.5 C1 7.18644068 1 7.18644068 1 5 C0.34 5 -0.32 5 -1 5 C-1.12375 5.78375 -1.2475 6.5675 -1.375 7.375 C-2 10 -2 10 -4 12 C-3.45660208 7.43545749 -2.20536179 4.0271824 0 0 Z " fill="#99801A" transform="translate(127,314)"/>
<path d="M0 0 C0.33 0 0.66 0 1 0 C1.01981934 0.78648926 1.03963867 1.57297852 1.06005859 2.38330078 C1.15561233 5.96419042 1.26516936 9.54452098 1.375 13.125 C1.42140625 14.98125 1.42140625 14.98125 1.46875 16.875 C1.50742187 18.07382813 1.54609375 19.27265625 1.5859375 20.5078125 C1.6173584 21.60754395 1.6487793 22.70727539 1.68115234 23.84033203 C2.01522255 27.15085016 2.87771013 29.87863129 4 33 C4.26995323 34.95079406 4.48128297 36.9108672 4.625 38.875 C4.69976562 39.84179688 4.77453125 40.80859375 4.8515625 41.8046875 C4.90054687 42.52914062 4.94953125 43.25359375 5 44 C-2.05968063 36.94031937 -1.07741704 24.09677506 -1.125 14.8125 C-1.12975342 14.0397876 -1.13450684 13.2670752 -1.1394043 12.47094727 C-1.12697886 8.20349945 -0.84458741 4.2028278 0 0 Z " fill="#BDC5BB" transform="translate(416,223)"/>
<path d="M0 0 C0.99 0.33 1.98 0.66 3 1 C4.20718817 3.4613715 5.22605697 5.82064765 6.1875 8.375 C6.46013672 9.06078125 6.73277344 9.7465625 7.01367188 10.453125 C8.17139955 13.43594216 9 15.77442504 9 19 C9.66 19.33 10.32 19.66 11 20 C8.69 20 6.38 20 4 20 C4.66 19.67 5.32 19.34 6 19 C5.1905146 17.01959844 4.37732831 15.04070923 3.5625 13.0625 C2.88380859 11.40927734 2.88380859 11.40927734 2.19140625 9.72265625 C1.25575392 7.13431084 1.25575392 7.13431084 0 6 C-0.99 7.32 -1.98 8.64 -3 10 C-2.49287967 6.28111761 -1.88391785 3.26545761 0 0 Z " fill="#99811C" transform="translate(216,314)"/>
<path d="M0 0 C1.32 0.33 2.64 0.66 4 1 C4 10.9 4 20.8 4 31 C2.02 31.99 2.02 31.99 0 33 C-0.66 31.68 -1.32 30.36 -2 29 C-0.68 29.33 0.64 29.66 2 30 C1.86109398 25.74974382 1.71268006 21.49987158 1.5625 17.25 C1.52318359 16.0434375 1.48386719 14.836875 1.44335938 13.59375 C1.40146484 12.43359375 1.35957031 11.2734375 1.31640625 10.078125 C1.27974854 9.00981445 1.24309082 7.94150391 1.20532227 6.84082031 C1.03013091 4.41688848 0.68801513 2.32113288 0 0 Z " fill="#DEE0DA" transform="translate(468,193)"/>
<path d="M0 0 C1.80859375 0.1640625 1.80859375 0.1640625 4 1 C8.37188873 7.39215028 14.06272182 18.3321503 12.56640625 26.3125 C12.37949219 26.869375 12.19257812 27.42625 12 28 C11.74605469 27.24074219 11.49210937 26.48148438 11.23046875 25.69921875 C10.88628906 24.70535156 10.54210937 23.71148437 10.1875 22.6875 C9.85105469 21.70136719 9.51460937 20.71523437 9.16796875 19.69921875 C8.21947482 17.02796155 8.21947482 17.02796155 6.53125 15.59375 C4.15489473 13.12040064 3.37236543 10.00490433 2.3125 6.8125 C2.08755859 6.15830078 1.86261719 5.50410156 1.63085938 4.83007812 C1.07942691 3.22271116 0.53865109 1.61169517 0 0 Z " fill="#CACFC7" transform="translate(72,192)"/>
<path d="M0 0 C7.59 0 15.18 0 23 0 C23.33 1.32 23.66 2.64 24 4 C15.42 4 6.84 4 -2 4 C-1.34 2.68 -0.68 1.36 0 0 Z " fill="#CFD4CC" transform="translate(326,247)"/>
<path d="M0 0 C2.97 0 5.94 0 9 0 C8.01 0.33 7.02 0.66 6 1 C6.11402064 3.27141109 6.24158505 5.54214552 6.375 7.8125 C6.47941406 9.70935547 6.47941406 9.70935547 6.5859375 11.64453125 C6.76102939 15.12755234 6.76102939 15.12755234 9 18 C12.06556598 18.73343428 12.06556598 18.73343428 15 19 C15 19.33 15 19.66 15 20 C13.741875 20.04125 12.48375 20.0825 11.1875 20.125 C10.47980469 20.14820313 9.77210938 20.17140625 9.04296875 20.1953125 C7 20 7 20 4 18 C2.81318274 14.43954823 2.90310168 11.56191663 2.9375 7.8125 C2.94652344 6.54019531 2.95554687 5.26789063 2.96484375 3.95703125 C2.97644531 2.98121094 2.98804688 2.00539063 3 1 C2.01 0.67 1.02 0.34 0 0 Z " fill="#987F18" transform="translate(315,314)"/>
<path d="M0 0 C7.59 0 15.18 0 23 0 C23.33 0.99 23.66 1.98 24 3 C16.08 3 8.16 3 0 3 C0 2.01 0 1.02 0 0 Z " fill="#C4CAC1" transform="translate(27,280)"/>
<path d="M0 0 C2.64 0 5.28 0 8 0 C7.01 0.495 7.01 0.495 6 1 C6 6.94 6 12.88 6 19 C6.66 19.33 7.32 19.66 8 20 C5.36 20 2.72 20 0 20 C0.99 19.67 1.98 19.34 3 19 C3 13.06 3 7.12 3 1 C2.01 0.67 1.02 0.34 0 0 Z " fill="#957B11" transform="translate(367,314)"/>
<path d="M0 0 C1.98 0 3.96 0 6 0 C6 6.6 6 13.2 6 20 C4.02 20 2.04 20 0 20 C0.99 19.67 1.98 19.34 3 19 C3 13.06 3 7.12 3 1 C2.01 0.67 1.02 0.34 0 0 Z " fill="#93790F" transform="translate(266,314)"/>
<path d="M0 0 C2.875 -0.125 2.875 -0.125 6 0 C6.66 0.66 7.32 1.32 8 2 C7.625 5.125 7.625 5.125 7 8 C4.69 8.33 2.38 8.66 0 9 C0 6.03 0 3.06 0 0 Z " fill="#F6F3ED" transform="translate(194,324)"/>
<path d="M0 0 C0.33 0 0.66 0 1 0 C1.2493357 1.60115576 1.47378648 3.20620159 1.6875 4.8125 C1.81511719 5.70582031 1.94273437 6.59914063 2.07421875 7.51953125 C2 10 2 10 0.828125 11.8046875 C-1.55749552 13.3645163 -3.102907 13.3679131 -5.9375 13.3125 C-6.79214844 13.30863281 -7.64679688 13.30476563 -8.52734375 13.30078125 C-11.10028192 12.98780141 -12.77505475 12.29573378 -15 11 C-14.67 10.34 -14.34 9.68 -14 9 C-12.96939453 9.05220703 -12.96939453 9.05220703 -11.91796875 9.10546875 C-11.01691406 9.13253906 -10.11585938 9.15960938 -9.1875 9.1875 C-8.29417969 9.22230469 -7.40085937 9.25710938 -6.48046875 9.29296875 C-3.96891497 9.20368581 -3.96891497 9.20368581 -2.21875 7.6875 C-0.47350038 5.27100052 -0.32417281 2.91755527 0 0 Z " fill="#C0C7BD" transform="translate(353,293)"/>
<path d="M0 0 C0.99 0 1.98 0 3 0 C3.38218767 1.65614657 3.71395102 3.32457024 4 5 C3 6 3 6 -0.60180664 6.11352539 C-2.20459856 6.11336625 -3.8073956 6.10767063 -5.41015625 6.09765625 C-6.25219101 6.0962413 -7.09422577 6.09482635 -7.96177673 6.09336853 C-10.66205335 6.08775263 -13.36224828 6.07519748 -16.0625 6.0625 C-17.88867068 6.05748705 -19.71484266 6.05292379 -21.54101562 6.04882812 C-26.02737542 6.03777804 -30.51367384 6.02050279 -35 6 C-35.66 4.68 -36.32 3.36 -37 2 C-35.68 2.33 -34.36 2.66 -33 3 C-33.33 3.66 -33.66 4.32 -34 5 C-22.78 4.67 -11.56 4.34 0 4 C0 2.68 0 1.36 0 0 Z " fill="#E0E2DC" transform="translate(387,278)"/>
<path d="M0 0 C1.11246094 -0.00515625 2.22492188 -0.0103125 3.37109375 -0.015625 C6.509509 0.24558949 8.73085425 0.91621546 11.5625 2.25 C11.5625 2.58 11.5625 2.91 11.5625 3.25 C10.56089844 3.23839844 9.55929687 3.22679687 8.52734375 3.21484375 C7.18489772 3.20545602 5.84244964 3.19635688 4.5 3.1875 C3.18902344 3.17589844 1.87804687 3.16429687 0.52734375 3.15234375 C-3.2321413 3.2449419 -6.74955563 3.5152192 -10.4375 4.25 C-11.69577123 6.09982472 -11.69577123 6.09982472 -12.4375 8.25 C-14.5625 10 -14.5625 10 -16.4375 11.25 C-14.66582189 7.26372424 -12.4155772 3.54490381 -8.70703125 1.1171875 C-5.72010256 -0.02411744 -3.19176608 -0.01475961 0 0 Z " fill="#E2E3DE" transform="translate(440.4375,195.75)"/>
<path d="M0 0 C1.99954746 -0.04254356 4.00041636 -0.04080783 6 0 C7 1 7 1 7.1875 3.9375 C7 7 7 7 5 9 C2.375 9.125 2.375 9.125 0 9 C0 6.03 0 3.06 0 0 Z " fill="#F8F4F0" transform="translate(89,315)"/>
<path d="M0 0 C0.66 0 1.32 0 2 0 C1.125 3.875 1.125 3.875 0 5 C-0.12232644 6.47250645 -0.1777456 7.95065711 -0.20532227 9.42797852 C-0.22526749 10.36887833 -0.24521271 11.30977814 -0.26576233 12.27919006 C-0.28247482 13.30209641 -0.29918732 14.32500275 -0.31640625 15.37890625 C-0.33718735 16.42070541 -0.35796844 17.46250458 -0.37937927 18.53587341 C-0.44499057 21.87801247 -0.50381331 25.22023285 -0.5625 28.5625 C-0.60567422 30.82227418 -0.64928814 33.08204001 -0.69335938 35.34179688 C-0.80068367 40.89444421 -0.90242812 46.44717321 -1 52 C-1.33 52 -1.66 52 -2 52 C-2.05069411 45.23733723 -2.08573108 38.47472345 -2.10986328 31.71191406 C-2.1199232 29.41111418 -2.13357262 27.1103271 -2.15087891 24.80957031 C-2.17512735 21.5032231 -2.18648323 18.19704488 -2.1953125 14.890625 C-2.21079636 13.3466806 -2.21079636 13.3466806 -2.22659302 11.77154541 C-2.22674408 10.81085144 -2.22689514 9.85015747 -2.22705078 8.86035156 C-2.231492 8.01651917 -2.23593323 7.17268677 -2.24050903 6.30328369 C-1.97855059 3.79458533 -1.25924304 2.16671042 0 0 Z " fill="#A5B1A4" transform="translate(186,197)"/>
<path d="M0 0 C1.03125 0.00322266 2.0625 0.00644531 3.125 0.00976562 C4.74535156 0.02233398 4.74535156 0.02233398 6.3984375 0.03515625 C8.03039062 0.04192383 8.03039062 0.04192383 9.6953125 0.04882812 C12.38807539 0.06063849 15.08072938 0.07710847 17.7734375 0.09765625 C18.1034375 0.75765625 18.4334375 1.41765625 18.7734375 2.09765625 C18.09764648 2.11223877 17.42185547 2.12682129 16.72558594 2.1418457 C13.65763228 2.21641036 10.59075674 2.3130428 7.5234375 2.41015625 C5.92822266 2.44399414 5.92822266 2.44399414 4.30078125 2.47851562 C2.76357422 2.53168945 2.76357422 2.53168945 1.1953125 2.5859375 C0.25268555 2.61212158 -0.68994141 2.63830566 -1.66113281 2.6652832 C-4.5981039 3.16027519 -6.01830053 4.14611609 -8.2265625 6.09765625 C-7.8515625 3.66015625 -7.8515625 3.66015625 -7.2265625 1.09765625 C-4.66933021 -0.1809599 -2.85919148 -0.01570984 0 0 Z " fill="#EDECE8" transform="translate(331.2265625,249.90234375)"/>
<path d="M0 0 C6.92373597 -0.51076741 12.22397829 -0.10000582 18 4 C20 6.25 20 6.25 21 8 C18.5625 7.625 18.5625 7.625 16 7 C15.67 6.34 15.34 5.68 15 5 C11.54222778 3.75684856 7.88940514 3.69225836 4.25 3.4375 C3.07953125 3.35371094 1.9090625 3.26992187 0.703125 3.18359375 C-0.18890625 3.12300781 -1.0809375 3.06242188 -2 3 C-1.34 2.67 -0.68 2.34 0 2 C0 1.34 0 0.68 0 0 Z " fill="#BDC4BA" transform="translate(436,193)"/>
<path d="M0 0 C1.12591553 0.00523682 2.25183105 0.01047363 3.41186523 0.01586914 C4.62680664 0.0190918 5.84174805 0.02231445 7.09350586 0.02563477 C8.37290039 0.03401367 9.65229492 0.04239258 10.97045898 0.05102539 C12.2537207 0.05553711 13.53698242 0.06004883 14.85913086 0.06469727 C18.04211921 0.07652994 21.22501661 0.09301471 24.40795898 0.11352539 C24.40795898 0.44352539 24.40795898 0.77352539 24.40795898 1.11352539 C23.44756714 1.11968872 23.44756714 1.11968872 22.46777344 1.12597656 C19.55107994 1.15898577 16.63645515 1.22963565 13.72045898 1.30102539 C12.71305664 1.30682617 11.7056543 1.31262695 10.66772461 1.31860352 C4.51790477 1.4395488 4.51790477 1.4395488 -0.61157227 4.60180664 C-1.26512695 5.43067383 -1.91868164 6.25954102 -2.59204102 7.11352539 C-3.58204102 7.44352539 -4.57204102 7.77352539 -5.59204102 8.11352539 C-3.42011402 0.14979307 -3.42011402 0.14979307 0 0 Z " fill="#B6BFB4" transform="translate(323.592041015625,245.886474609375)"/>
<path d="M0 0 C1.99097846 2.98646769 2.94124926 5.59687262 4 9 C1.69 9.33 -0.62 9.66 -3 10 C-3.66 11.65 -4.32 13.3 -5 15 C-4.34 15.33 -3.68 15.66 -3 16 C-4.98 16 -6.96 16 -9 16 C-8.34 15.67 -7.68 15.34 -7 15 C-6.14814527 12.5113354 -5.52895891 9.99351892 -4.87890625 7.4453125 C-3.95092048 4.86344988 -3.01547081 3.79511266 -1 2 C-0.67 1.34 -0.34 0.68 0 0 Z " fill="#B3A157" transform="translate(216,318)"/>
<path d="M0 0 C1.32 0 2.64 0 4 0 C4.33 8.25 4.66 16.5 5 25 C4.34 25 3.68 25 3 25 C1.8665735 22.73314699 1.8192065 21.30955881 1.71875 18.7890625 C1.68136719 17.95632813 1.64398438 17.12359375 1.60546875 16.265625 C1.57066406 15.39421875 1.53585937 14.5228125 1.5 13.625 C1.43083563 11.90869885 1.35804525 10.19253915 1.28125 8.4765625 C1.25095703 7.71424316 1.22066406 6.95192383 1.18945312 6.16650391 C1.00157374 4.01799662 0.58148412 2.07344994 0 0 Z " fill="#D9DCD6" transform="translate(299,251)"/>
<path d="M0 0 C0.33 0 0.66 0 1 0 C1.0664054 3.78510754 1.12361063 7.25833619 0.5 11 C-0.32465213 16.44475285 -0.1048723 21.94539778 -0.0625 27.4375 C-0.05798828 28.55060547 -0.05347656 29.66371094 -0.04882812 30.81054688 C-0.03711193 33.54042101 -0.02070699 36.27018174 0 39 C-2.18251747 35.46614227 -2.25760629 32.58500409 -2.265625 28.4765625 C-2.26820313 27.208125 -2.27078125 25.9396875 -2.2734375 24.6328125 C-2.26924805 23.97442383 -2.26505859 23.31603516 -2.26074219 22.63769531 C-2.2500731 20.63869587 -2.26167872 18.63961833 -2.2734375 16.640625 C-2.27085937 15.36960938 -2.26828125 14.09859375 -2.265625 12.7890625 C-2.26336914 11.63100098 -2.26111328 10.47293945 -2.25878906 9.27978516 C-1.99166259 5.89433518 -1.20731848 3.16216731 0 0 Z " fill="#D7DAD3" transform="translate(419,215)"/>
<path d="M0 0 C12.87 0 25.74 0 39 0 C39 0.99 39 1.98 39 3 C37.68 3 36.36 3 35 3 C35 2.34 35 1.68 35 1 C30.65818774 1.11848926 26.31659035 1.2427536 21.97509766 1.37231445 C20.4989061 1.41556035 19.02266785 1.45724256 17.54638672 1.49731445 C15.42140652 1.55526846 13.29665907 1.61888946 11.171875 1.68359375 C9.8940918 1.72025146 8.61630859 1.75690918 7.29980469 1.79467773 C4.68090127 1.95763259 2.48983284 2.22946803 0 3 C0 2.01 0 1.02 0 0 Z " fill="#506B52" transform="translate(230,191)"/>
<path d="M0 0 C0.66 0 1.32 0 2 0 C2.99 2.64 3.98 5.28 5 8 C2.36 8 -0.28 8 -3 8 C-4.00217064 11.58327753 -4.00217064 11.58327753 -3 15 C-4.65 15 -6.3 15 -8 15 C-7.34 14.67 -6.68 14.34 -6 14 C-5.51146538 11.98072355 -5.02558249 9.96062919 -4.5703125 7.93359375 C-3.88214496 5.60042296 -2.85650013 4.53363054 -1 3 C-0.67 2.01 -0.34 1.02 0 0 Z " fill="#B29F53" transform="translate(126,319)"/>
<path d="M0 0 C0.66 0.33 1.32 0.66 2 1 C2 1.99 2 2.98 2 4 C-10.21 4 -22.42 4 -35 4 C-35 3.01 -35 2.02 -35 1 C-33.35 1 -31.7 1 -30 1 C-30 1.33 -30 1.66 -30 2 C-20.1 2.33 -10.2 2.66 0 3 C0 2.01 0 1.02 0 0 Z " fill="#CED3CB" transform="translate(110,279)"/>
<path d="M0 0 C7.33834586 -0.36090226 7.33834586 -0.36090226 10.0625 1.125 C11.51316732 4.02633464 10.90451694 5.96340742 10 9 C6.3558226 11.4294516 4.28758728 11.16179575 0 11 C0 10.67 0 10.34 0 10 C1.98 9.34 3.96 8.68 6 8 C6 6.02 6 4.04 6 2 C3.03 1.505 3.03 1.505 0 1 C0 0.67 0 0.34 0 0 Z " fill="#9C8422" transform="translate(89,314)"/>
<path d="M0 0 C2.56824006 3.85236009 1.82735049 6.36441166 1.125 10.6875 C1.02058594 11.38939453 0.91617188 12.09128906 0.80859375 12.81445312 C0.54966196 14.54458829 0.27622343 16.27254118 0 18 C-0.66 17.67 -1.32 17.34 -2 17 C-3.84978534 10.64397067 -2.67073825 5.87562416 0 0 Z " fill="#B4BEB2" transform="translate(40,257)"/>
<path d="M0 0 C1.48785086 4.56738556 -0.15317905 7.8472315 -1.875 12.125 C-2.15730469 12.85332031 -2.43960937 13.58164063 -2.73046875 14.33203125 C-3.74365906 16.92983199 -4.75228769 19.50457537 -6 22 C-6.66 22 -7.32 22 -8 22 C-7.54783463 20.40003022 -7.0938602 18.80055789 -6.6328125 17.203125 C-6.1817034 15.63259703 -5.74000737 14.0593525 -5.3046875 12.484375 C-4.0068059 7.92129652 -2.75467569 3.93525098 0 0 Z " fill="#E5E5E0" transform="translate(335,221)"/>
<path d="M0 0 C4.79752774 2.39876387 6.54983494 10.73391078 8.25 15.515625 C11.15859909 24.52420273 11.15859909 24.52420273 10 28 C8.3249356 23.89921069 6.66139655 19.79384364 5 15.6875 C4.52304687 14.52025391 4.04609375 13.35300781 3.5546875 12.15039062 C3.10351562 11.03212891 2.65234375 9.91386719 2.1875 8.76171875 C1.76855469 7.73006592 1.34960938 6.69841309 0.91796875 5.63549805 C0 3 0 3 0 0 Z " fill="#BEC6BB" transform="translate(355,206)"/>
<path d="M0 0 C1.81618856 1.11903546 3.62785526 2.24541284 5.4375 3.375 C6.44683594 4.00148438 7.45617187 4.62796875 8.49609375 5.2734375 C11 7 11 7 12 9 C13.82510997 9.78015621 15.68606676 10.47795406 17.5625 11.125 C19.08037109 11.65480469 19.08037109 11.65480469 20.62890625 12.1953125 C21.41136719 12.46085937 22.19382812 12.72640625 23 13 C23 13.33 23 13.66 23 14 C17.22085395 13.74818536 13.16982776 13.43884891 9 9 C9 8.34 9 7.68 9 7 C8.071875 6.731875 7.14375 6.46375 6.1875 6.1875 C3.24218975 5.09022755 1.84982123 4.46642831 0 2 C0 1.34 0 0.68 0 0 Z " fill="#E1E2DD" transform="translate(403,270)"/>
<path d="M0 0 C0.33 0 0.66 0 1 0 C1.52532467 6.17256484 0.12153931 10.65022363 -3 16 C-5.625 18.9375 -5.625 18.9375 -8 21 C-8.66 21.66 -9.32 22.32 -10 23 C-12.125 22.625 -12.125 22.625 -14 22 C-13.54109375 21.62488281 -13.0821875 21.24976563 -12.609375 20.86328125 C-5.28824299 14.75721107 -1.34100952 9.61056821 0 0 Z " fill="#EAEAE6" transform="translate(187,259)"/>
<path d="M0 0 C1.79232337 0.30871122 3.58384321 0.62209064 5.375 0.9375 C6.87160156 1.19853516 6.87160156 1.19853516 8.3984375 1.46484375 C11 2 11 2 13 3 C14.70363822 3.22622081 16.41328701 3.40888473 18.125 3.5625 C19.03507812 3.64628906 19.94515625 3.73007812 20.8828125 3.81640625 C21.58148438 3.87699219 22.28015625 3.93757813 23 4 C22.67 4.66 22.34 5.32 22 6 C13.61214729 6.83507383 7.51358897 4.61478507 0 1 C0 0.67 0 0.34 0 0 Z " fill="#B6BFB4" transform="translate(414,278)"/>
<path d="M0 0 C-0.33 0.99 -0.66 1.98 -1 3 C-3.70716242 3.90238747 -5.23776768 4.11851302 -8.01171875 4.09765625 C-9.14770508 4.09282227 -9.14770508 4.09282227 -10.30664062 4.08789062 C-11.09232422 4.07951172 -11.87800781 4.07113281 -12.6875 4.0625 C-13.48478516 4.05798828 -14.28207031 4.05347656 -15.10351562 4.04882812 C-17.06904257 4.0370585 -19.03453085 4.01912348 -21 4 C-21 3.67 -21 3.34 -21 3 C-19.0509375 2.8453125 -19.0509375 2.8453125 -17.0625 2.6875 C-12.73323862 2.22926854 -8.98920935 1.10331118 -4.9453125 -0.4765625 C-3 -1 -3 -1 0 0 Z " fill="#C9CFC6" transform="translate(448,281)"/>
<path d="M0 0 C0.66 0.33 1.32 0.66 2 1 C1.2575 1.78375 0.515 2.5675 -0.25 3.375 C-3.65079154 7.40556775 -5.25940208 12.07965058 -7 17 C-8.58150827 11.83750516 -6.92698148 7.85396296 -4.5625 3.125 C-3 1 -3 1 0 0 Z " fill="#C1C8BE" transform="translate(428,198)"/>
<path d="M0 0 C1.65 0 3.3 0 5 0 C5 0.33 5 0.66 5 1 C14.9 1.33 24.8 1.66 35 2 C35 2.33 35 2.66 35 3 C23.45 3 11.9 3 0 3 C0 2.01 0 1.02 0 0 Z " fill="#4D694F" transform="translate(72,277)"/>
<path d="M0 0 C2.375 -0.125 2.375 -0.125 5 0 C5.66 0.66 6.32 1.32 7 2 C6.46428571 5.53571429 6.46428571 5.53571429 5 7 C3.33382885 7.04063832 1.66611905 7.042721 0 7 C0 4.69 0 2.38 0 0 Z " fill="#F6F2ED" transform="translate(194,315)"/>
<path d="M0 0 C0.66 0.33 1.32 0.66 2 1 C4.14276771 1.09757427 6.28860657 1.13077146 8.43359375 1.1328125 C10.3662207 1.13474609 10.3662207 1.13474609 12.33789062 1.13671875 C13.01053955 1.13462402 13.68318848 1.1325293 14.3762207 1.13037109 C16.42601965 1.12502991 18.47559859 1.13031546 20.52539062 1.13671875 C21.81509766 1.13542969 23.10480469 1.13414062 24.43359375 1.1328125 C25.62009521 1.13168457 26.80659668 1.13055664 28.02905273 1.12939453 C31.05635379 1.13379825 31.05635379 1.13379825 34 0 C33.67 0.99 33.34 1.98 33 3 C21.78 3 10.56 3 -1 3 C-0.67 2.01 -0.34 1.02 0 0 Z " fill="#CBD1C8" transform="translate(354,280)"/>
<path d="M0 0 C0.66 0.99 1.32 1.98 2 3 C1 4 1 4 -0.94946289 4.11352539 C-1.7821167 4.10828857 -2.61477051 4.10305176 -3.47265625 4.09765625 C-4.37177734 4.09443359 -5.27089844 4.09121094 -6.19726562 4.08789062 C-7.14279297 4.07951172 -8.08832031 4.07113281 -9.0625 4.0625 C-10.01189453 4.05798828 -10.96128906 4.05347656 -11.93945312 4.04882812 C-14.29303065 4.0370011 -16.64648477 4.02052025 -19 4 C-19 3.34 -19 2.68 -19 2 C-12.73 2 -6.46 2 0 2 C0 1.34 0 0.68 0 0 Z " fill="#BBC3B8" transform="translate(325,278)"/>
<path d="M0 0 C1.49828872 3.88235819 0.43110582 6.43449288 -0.9375 10.25 C-1.31777344 11.32765625 -1.69804687 12.4053125 -2.08984375 13.515625 C-2.39019531 14.33546875 -2.69054687 15.1553125 -3 16 C-3.99 15.34 -4.98 14.68 -6 14 C-5.29771949 9.50540476 -3.99912387 5.09389959 -2 1 C-1.34 0.67 -0.68 0.34 0 0 Z " fill="#415F43" transform="translate(319,246)"/>
<path d="M0 0 C0.99 0.66 1.98 1.32 3 2 C3 3.32 3 4.64 3 6 C9.6 6 16.2 6 23 6 C23 6.33 23 6.66 23 7 C14.75 7 6.5 7 -2 7 C-1.34 4.69 -0.68 2.38 0 0 Z " fill="#BDC5BA" transform="translate(47,237)"/>
<path d="M0 0 C2.81191561 2.81191561 3.53516103 6.16519078 4.6875 9.875 C4.92533203 10.59558594 5.16316406 11.31617188 5.40820312 12.05859375 C6.58394389 15.80303502 7.1851875 18.25823079 6 22 C2.57458419 14.64357196 0.1985957 8.16047799 0 0 Z " fill="#E0E2DD" transform="translate(78,198)"/>
<path d="M0 0 C1.32 0.33 2.64 0.66 4 1 C4.35555556 6.33333333 4.35555556 6.33333333 3 8.875 C-0.25313684 10.70488947 -3.31390109 10.18128355 -7 10 C-7 9.67 -7 9.34 -7 9 C-3.535 8.505 -3.535 8.505 0 8 C0 5.36 0 2.72 0 0 Z " fill="#99801A" transform="translate(201,324)"/>
<path d="M0 0 C8.25 0 16.5 0 25 0 C25 0.99 25 1.98 25 3 C24.01 3 23.02 3 22 3 C22 2.34 22 1.68 22 1 C19.08302989 1.14104691 16.1665198 1.28764814 13.25 1.4375 C12.425 1.47681641 11.6 1.51613281 10.75 1.55664062 C9.95078125 1.59853516 9.1515625 1.64042969 8.328125 1.68359375 C7.5949707 1.72025146 6.86181641 1.75690918 6.10644531 1.79467773 C3.98822395 2.00114785 2.0480544 2.43132086 0 3 C0 2.01 0 1.02 0 0 Z " fill="#4F6A50" transform="translate(169,191)"/>
<path d="M0 0 C4.6119403 0.76865672 4.6119403 0.76865672 6.625 1.96875 C10.21405873 3.52715708 13.88121538 3.73363041 17.75 4.125 C18.54277344 4.21136719 19.33554688 4.29773438 20.15234375 4.38671875 C22.10083141 4.59800054 24.05032976 4.79992467 26 5 C26 5.33 26 5.66 26 6 C7.49862201 6.56349375 7.49862201 6.56349375 0 1 C0 0.67 0 0.34 0 0 Z " fill="#E9E9E4" transform="translate(136,281)"/>
<path d="M0 0 C2.54184599 3.09764322 4.05849147 6.16919843 5.5625 9.875 C5.97628906 10.88304687 6.39007813 11.89109375 6.81640625 12.9296875 C7.97205061 15.92749763 9.01017748 18.94386594 10 22 C6.15446063 18.73129154 4.49633322 15.05726415 2.75 10.4375 C2.481875 9.76525391 2.21375 9.09300781 1.9375 8.40039062 C0.79259277 5.45926415 0 3.18244484 0 0 Z " fill="#B9C1B6" transform="translate(97,254)"/>
<path d="M0 0 C3.22960213 1.61480107 3.77445434 5.02839234 5 8.25 C5.26039063 8.91902344 5.52078125 9.58804687 5.7890625 10.27734375 C6.2969404 11.58294906 6.80223363 12.88956333 7.3046875 14.19726562 C8.18250715 16.47318566 9.08801739 18.73758161 10 21 C5.68866503 18.52566862 4.41283139 14.95401266 2.75 10.5 C2.481875 9.82324219 2.21375 9.14648438 1.9375 8.44921875 C0.7958826 5.49615742 0 3.19153065 0 0 Z " fill="#BEC6BB" transform="translate(374,255)"/>
<path d="M0 0 C2 1.375 2 1.375 4 4 C4.35791096 7.3580469 4.23115823 10.63536357 4 14 C0.68518684 10.68518684 0.02786228 7.84979946 -0.125 3.1875 C-0.063125 1.6096875 -0.063125 1.6096875 0 0 Z " fill="#CFD3CC" transform="translate(93,240)"/>
<path d="M0 0 C0.66 0.33 1.32 0.66 2 1 C0.68 4.3 -0.64 7.6 -2 11 C-2.99 11 -3.98 11 -5 11 C-4.39102647 7.44765442 -3.54266151 4.2668126 -2 1 C-1.34 0.67 -0.68 0.34 0 0 Z " fill="#405E42" transform="translate(42,247)"/>
<path d="M0 0 C2.475 0.99 2.475 0.99 5 2 C5.33 5.96 5.66 9.92 6 14 C3.47524538 11.47524538 2.95692129 9.26502003 1.875 5.875 C1.52179688 4.77929688 1.16859375 3.68359375 0.8046875 2.5546875 C0.53914063 1.71164063 0.27359375 0.86859375 0 0 Z " fill="#CBD0C8" transform="translate(349,192)"/>
<path d="M0 0 C0.66 0 1.32 0 2 0 C2.66 2.31 3.32 4.62 4 7 C1.69 7.66 -0.62 8.32 -3 9 C-2.01 6.03 -1.02 3.06 0 0 Z " fill="#C0C7BD" transform="translate(334,211)"/>
<path d="M0 0 C2 3 2 3 2 6 C0.88625 6.474375 -0.2275 6.94875 -1.375 7.4375 C-3.26710994 8.25306463 -5.15712709 9.07856355 -7 10 C-6.34 7.69 -5.68 5.38 -5 3 C-3.35 3 -1.7 3 0 3 C0 2.01 0 1.02 0 0 Z " fill="#C9CEC6" transform="translate(151,191)"/>
<path d="M0 0 C0.33 0 0.66 0 1 0 C1.33 2.97 1.66 5.94 2 9 C-1.42094242 11.28062828 -2.68187222 11.21925007 -6.6875 11.125 C-8.17830078 11.09792969 -8.17830078 11.09792969 -9.69921875 11.0703125 C-10.45847656 11.04710937 -11.21773438 11.02390625 -12 11 C-12 10.67 -12 10.34 -12 10 C-10.741875 9.896875 -9.48375 9.79375 -8.1875 9.6875 C-5.6939539 9.36148867 -4.22140279 9.13569848 -2.0625 7.8125 C-0.5847343 5.29160556 -0.31972654 2.8775389 0 0 Z " fill="#95A391" transform="translate(353,293)"/>
<path d="M0 0 C5.49152542 0.61016949 5.49152542 0.61016949 7.875 2.4375 C9 4 9 4 9 6 C6.69 5.67 4.38 5.34 2 5 C1.34 3.35 0.68 1.7 0 0 Z " fill="#D5D8D1" transform="translate(171,194)"/>
<path d="M0 0 C2.3125 -0.3125 2.3125 -0.3125 5 0 C6.875 2.25 6.875 2.25 8 5 C7.6875 7.3125 7.6875 7.3125 7 9 C6.67 8.01 6.34 7.02 6 6 C5.175 5.690625 4.35 5.38125 3.5 5.0625 C2.675 4.711875 1.85 4.36125 1 4 C0.1875 1.875 0.1875 1.875 0 0 Z " fill="#D8DBD4" transform="translate(231,194)"/>
<path d="M0 0 C2.84326464 -0.23053497 4.46145349 -0.35903101 6.875 1.25 C8 3 8 3 7.6875 5.1875 C7.460625 5.785625 7.23375 6.38375 7 7 C7 6.34 7 5.68 7 5 C4.03 4.505 4.03 4.505 1 4 C0.67 2.68 0.34 1.36 0 0 Z " fill="#D4D8D1" transform="translate(113,194)"/>
<path d="M0 0 C7.59 0 15.18 0 23 0 C23 0.33 23 0.66 23 1 C22.37955811 1.01981934 21.75911621 1.03963867 21.11987305 1.06005859 C18.30865463 1.15531845 15.49817834 1.26499302 12.6875 1.375 C11.71103516 1.4059375 10.73457031 1.436875 9.72851562 1.46875 C8.32182617 1.52675781 8.32182617 1.52675781 6.88671875 1.5859375 C6.02264404 1.6173584 5.15856934 1.6487793 4.26831055 1.68115234 C1.72257555 1.87188037 1.72257555 1.87188037 -1 4 C-0.67 2.68 -0.34 1.36 0 0 Z " fill="#F1F0EC" transform="translate(48,251)"/>
<path d="M0 0 C6.46708015 -0.35133031 11.2886165 -0.21265322 17 3 C17.99 4.485 17.99 4.485 19 6 C16.5625 5.625 16.5625 5.625 14 5 C13.67 4.34 13.34 3.68 13 3 C9.9600352 2.30662208 9.9600352 2.30662208 6.4375 1.875 C4.64119141 1.62363281 4.64119141 1.62363281 2.80859375 1.3671875 C1.88175781 1.24601563 0.95492188 1.12484375 0 1 C0 0.67 0 0.34 0 0 Z " fill="#CCD1C9" transform="translate(438,195)"/>
<path d="M0 0 C0.66 0 1.32 0 2 0 C2.66 1.65 3.32 3.3 4 5 C6.31 5 8.62 5 11 5 C11.33 5.66 11.66 6.32 12 7 C8.04 7 4.08 7 0 7 C0 4.69 0 2.38 0 0 Z " fill="#AB9643" transform="translate(349,327)"/>
<path d="M0 0 C-1.71664683 2.07804617 -2.85081159 2.95027053 -5.4375 3.8125 C-8.35409605 4.02590947 -9.49221452 3.3790158 -12 2 C-10.56656 1.46809459 -9.12804633 0.94984742 -7.6875 0.4375 C-6.48673828 0.00244141 -6.48673828 0.00244141 -5.26171875 -0.44140625 C-3 -1 -3 -1 0 0 Z " fill="#A8B4A6" transform="translate(59,179)"/>
<path d="M0 0 C0.66 0 1.32 0 2 0 C2 1.98 2 3.96 2 6 C-1.96 6 -5.92 6 -10 6 C-9.67 5.34 -9.34 4.68 -9 4 C-8.05125 4.020625 -7.1025 4.04125 -6.125 4.0625 C-3.09333717 4.22551826 -3.09333717 4.22551826 -1 3 C-0.67 2.01 -0.34 1.02 0 0 Z " fill="#A58F35" transform="translate(312,328)"/>
<path d="M0 0 C3.3 0.33 6.6 0.66 10 1 C10 2.98 10 4.96 10 7 C9.34 7 8.68 7 8 7 C7.67 5.68 7.34 4.36 7 3 C4.69 2.34 2.38 1.68 0 1 C0 0.67 0 0.34 0 0 Z " fill="#B9A763" transform="translate(234,313)"/>
<path d="M0 0 C0.99 0.33 1.98 0.66 3 1 C3 4.3 3 7.6 3 11 C1 10 1 10 0 7 C-0.03954234 4.66700175 -0.04401732 2.33291811 0 0 Z " fill="#B2BCB0" transform="translate(314,264)"/>
<path d="M0 0 C1 2 1 2 0.22265625 4.6015625 C-0.16019531 5.59929687 -0.54304688 6.59703125 -0.9375 7.625 C-1.50791016 9.12933594 -1.50791016 9.12933594 -2.08984375 10.6640625 C-2.39019531 11.43492187 -2.69054687 12.20578125 -3 13 C-4.14881789 9.04876272 -3.89779343 6.04007043 -3 2 C-2.01 1.34 -1.02 0.68 0 0 Z M-5 3 C-4.01 3.495 -4.01 3.495 -3 4 C-3.99 4.495 -3.99 4.495 -5 5 C-5 4.34 -5 3.68 -5 3 Z " fill="#D6D9D2" transform="translate(323,251)"/>
<path d="M0 0 C0.99 0.66 1.98 1.32 3 2 C1.74458443 4.51083114 0.49936512 4.87125446 -2 6 C-2.33 5.67 -2.66 5.34 -3 5 C-3.66 5.66 -4.32 6.32 -5 7 C-5 5.68 -5 4.36 -5 3 C-2.5 1.25 -2.5 1.25 0 0 Z " fill="#D5D8D1" transform="translate(336,217)"/>
<path d="M0 0 C6.0546875 -0.1953125 6.0546875 -0.1953125 8 0 C8.66 0.66 9.32 1.32 10 2 C9 3 9 3 5.4375 3.0625 C4.303125 3.041875 3.16875 3.02125 2 3 C2 2.34 2 1.68 2 1 C1.34 0.67 0.68 0.34 0 0 Z " fill="#C7CDC4" transform="translate(43,182)"/>
<path d="M0 0 C0.33 0.66 0.66 1.32 1 2 C-0.98 4.64 -2.96 7.28 -5 10 C-6.32 9.67 -7.64 9.34 -9 9 C-8.51789063 8.60167969 -8.03578125 8.20335937 -7.5390625 7.79296875 C-6.90742188 7.26316406 -6.27578125 6.73335938 -5.625 6.1875 C-4.99851563 5.66542969 -4.37203125 5.14335937 -3.7265625 4.60546875 C-1.7778952 2.91774261 -1.7778952 2.91774261 0 0 Z " fill="#DEE0DA" transform="translate(182,272)"/>
<path d="M0 0 C2.25245881 2.68841859 3.88213958 4.64641875 5 8 C5.66 8 6.32 8 7 8 C7.33 9.32 7.66 10.64 8 12 C1.29540481 7.06345733 1.29540481 7.06345733 0.0625 2.625 C0.0315625 1.325625 0.0315625 1.325625 0 0 Z " fill="#D4D8D1" transform="translate(421,264)"/>
<path d="M0 0 C1.83863505 1.11631414 3.67079723 2.24329627 5.5 3.375 C6.5209375 4.00148438 7.541875 4.62796875 8.59375 5.2734375 C9.3878125 5.84320313 10.181875 6.41296875 11 7 C11 7.66 11 8.32 11 9 C10.34 9 9.68 9 9 9 C9 8.34 9 7.68 9 7 C8.071875 6.731875 7.14375 6.46375 6.1875 6.1875 C3.24218975 5.09022755 1.84982123 4.46642831 0 2 C0 1.34 0 0.68 0 0 Z " fill="#D0D5CD" transform="translate(403,270)"/>
<path d="M0 0 C1.32 0 2.64 0 4 0 C4 0.66 4 1.32 4 2 C5.98 2 7.96 2 10 2 C10 2.66 10 3.32 10 4 C6.6875 4.25 6.6875 4.25 3 4 C1.0625 2 1.0625 2 0 0 Z " fill="#E4E4DF" transform="translate(41,183)"/>
<path d="M0 0 C2.475 0.495 2.475 0.495 5 1 C5.33 2.98 5.66 4.96 6 7 C5.67 6.34 5.34 5.68 5 5 C4.01 4.67 3.02 4.34 2 4 C0.8125 1.9375 0.8125 1.9375 0 0 Z " fill="#B8C1B5" transform="translate(459,273)"/>
<path d="M0 0 C0.33 0.66 0.66 1.32 1 2 C0.06421005 4.35981813 -0.93347808 6.69631264 -2 9 C-3.5625 7.75 -3.5625 7.75 -5 6 C-4.6875 3.8125 -4.6875 3.8125 -4 2 C-3.01 2.33 -2.02 2.66 -1 3 C-0.67 2.01 -0.34 1.02 0 0 Z " fill="#D7DAD4" transform="translate(53,234)"/>
<path d="M0 0 C0 0.66 0 1.32 0 2 C-0.66 2 -1.32 2 -2 2 C-2.66 4.97 -3.32 7.94 -4 11 C-4.33 11 -4.66 11 -5 11 C-5.36717663 3.5340751 -5.36717663 3.5340751 -3.625 1 C-2 0 -2 0 0 0 Z " fill="#A0AD9E" transform="translate(264,194)"/>
<path d="M0 0 C2.97 0.33 5.94 0.66 9 1 C9 2.65 9 4.3 9 6 C8.62875 5.54625 8.2575 5.0925 7.875 4.625 C5.45735315 2.52970606 3.04569398 1.87986715 0 1 C0 0.67 0 0.34 0 0 Z " fill="#AF9C4D" transform="translate(354,313)"/>
<path d="M0 0 C0 0.66 0 1.32 0 2 C-1.258125 2.04125 -2.51625 2.0825 -3.8125 2.125 C-4.52019531 2.14820313 -5.22789063 2.17140625 -5.95703125 2.1953125 C-8 2 -8 2 -11 0 C-9.54263913 -0.19491452 -8.08405407 -0.38069358 -6.625 -0.5625 C-5.81289062 -0.66691406 -5.00078125 -0.77132812 -4.1640625 -0.87890625 C-2 -1 -2 -1 0 0 Z " fill="#D4D7D0" transform="translate(96,184)"/>
<path d="M0 0 C2 3 2 3 2 7 C0.68 7 -0.64 7 -2 7 C-1.125 2.25 -1.125 2.25 0 0 Z " fill="#F3EEE5" transform="translate(216,318)"/>
<path d="M0 0 C0.66 0 1.32 0 2 0 C2.33 1.98 2.66 3.96 3 6 C1.68 6 0.36 6 -1 6 C-0.67 4.02 -0.34 2.04 0 0 Z " fill="#F2EEE4" transform="translate(126,319)"/>
<path d="M0 0 C1.98 0 3.96 0 6 0 C6 1.98 6 3.96 6 6 C5.34 6 4.68 6 4 6 C3.71125 5.38125 3.4225 4.7625 3.125 4.125 C2.06279958 1.86674235 2.06279958 1.86674235 0 0 Z " fill="#AB9644" transform="translate(308,314)"/>
<path d="M0 0 C2.31 0 4.62 0 7 0 C6.071875 0.3403125 6.071875 0.3403125 5.125 0.6875 C2.38589791 2.37929835 1.94975528 3.99244161 1 7 C0.67 7 0.34 7 0 7 C0 4.69 0 2.38 0 0 Z " fill="#A28B2F" transform="translate(162,314)"/>
<path d="M0 0 C2.56687367 3.8503105 1.83288724 5.58569763 1 10 C-1.17288535 7.82711465 -1.64827002 6.98970481 -2 4 C-1.0625 1.75 -1.0625 1.75 0 0 Z " fill="#C9CEC6" transform="translate(42,252)"/>
<path d="M0 0 C0.66 0 1.32 0 2 0 C1.125 3.875 1.125 3.875 0 5 C-0.36760731 7.32817964 -0.70241581 9.6618385 -1 12 C-1.33 12 -1.66 12 -2 12 C-2.28571429 3.42857143 -2.28571429 3.42857143 0 0 Z " fill="#92A191" transform="translate(186,197)"/>
<path d="M0 0 C0.66 0.99 1.32 1.98 2 3 C1.67 3.99 1.34 4.98 1 6 C-0.65 6.33 -2.3 6.66 -4 7 C-3.67 6.34 -3.34 5.68 -3 5 C-3.66 4.34 -4.32 3.68 -5 3 C-3.35 3 -1.7 3 0 3 C0 2.01 0 1.02 0 0 Z " fill="#CED3CB" transform="translate(269,191)"/>
<path d="M0 0 C3.63 0 7.26 0 11 0 C11 0.99 11 1.98 11 3 C9.68 3 8.36 3 7 3 C7 2.34 7 1.68 7 1 C4.69 1 2.38 1 0 1 C0 0.67 0 0.34 0 0 Z " fill="#446146" transform="translate(258,191)"/>
<path d="M0 0 C3.3 0 6.6 0 10 0 C10 1.98 10 3.96 10 6 C9.649375 5.360625 9.29875 4.72125 8.9375 4.0625 C6.22815794 1.17836168 3.84141089 1.2899178 0 1 C0 0.67 0 0.34 0 0 Z " fill="#9F882A" transform="translate(253,314)"/>
<path d="M0 0 C0.66 0.33 1.32 0.66 2 1 C2 1.66 2 2.32 2 3 C0.02 3.66 -1.96 4.32 -4 5 C-4.33 4.01 -4.66 3.02 -5 2 C-2.625 0.9375 -2.625 0.9375 0 0 Z " fill="#49654A" transform="translate(451,275)"/>
<path d="M0 0 C0.33 0 0.66 0 1 0 C1 2.64 1 5.28 1 8 C0.01 8 -0.98 8 -2 8 C-1.125 1.125 -1.125 1.125 0 0 Z " fill="#335336" transform="translate(182,252)"/>
<path d="M0 0 C2.50298434 2.93828597 3.46930939 5.17902761 4 9 C3.01 8.67 2.02 8.34 1 8 C-0.35439668 5.29120665 -0.06501451 2.99066732 0 0 Z " fill="#E4E5E0" transform="translate(91,232)"/>
<path d="M0 0 C-0.99 1.485 -0.99 1.485 -2 3 C-4.625 3.1875 -4.625 3.1875 -7 3 C-6.67 2.01 -6.34 1.02 -6 0 C-3.42525708 -0.99667468 -2.51072708 -1.25536354 0 0 Z " fill="#B3BDB1" transform="translate(169,280)"/>
<path d="M0 0 C4.42857143 5.14285714 4.42857143 5.14285714 5 9 C2.5 6.75 2.5 6.75 0 4 C0 2.68 0 1.36 0 0 Z " fill="#C5CBC2" transform="translate(144,266)"/>
<path d="M0 0 C2.91227269 3.28804981 4.49701212 5.59885603 5 10 C1.32769295 6.92000054 0.43197635 4.7517398 0 0 Z " fill="#C0C7BD" transform="translate(102,266)"/>
<path d="M0 0 C0.66 0 1.32 0 2 0 C1.67 1.65 1.34 3.3 1 5 C0.01 5.33 -0.98 5.66 -2 6 C-1.125 1.125 -1.125 1.125 0 0 Z " fill="#ABB6A9" transform="translate(144,194)"/>
<path d="M0 0 C-2.97 2.475 -2.97 2.475 -6 5 C-6 3.35 -6 1.7 -6 0 C-3.50907189 -1.24546405 -2.58919267 -0.7767578 0 0 Z " fill="#C1C8BE" transform="translate(268,196)"/>
</svg>
