<?xml version="1.0" standalone="no"?>
<!DOCTYPE svg PUBLIC "-//W3C//DTD SVG 20010904//EN"
 "http://www.w3.org/TR/2001/REC-SVG-20010904/DTD/svg10.dtd">
<svg version="1.0" xmlns="http://www.w3.org/2000/svg"
 width="300.000000pt" height="285.000000pt" viewBox="0 0 300.000000 285.000000"
 preserveAspectRatio="xMidYMid meet">

<g transform="translate(0.000000,285.000000) scale(0.100000,-0.100000)"
fill="#000000" stroke="none">
<path d="M960 2792 c-17 -50 -63 -115 -94 -136 -42 -27 -60 -65 -71 -148 -10
-78 -11 -80 -85 -173 -41 -52 -78 -94 -82 -94 -22 -2 -4 41 26 64 38 29 66 94
66 154 0 20 11 68 24 106 14 39 23 71 22 72 -5 5 -124 -151 -149 -196 -30 -52
-32 -74 -22 -181 6 -62 5 -67 -25 -102 -17 -21 -35 -38 -40 -38 -5 0 0 26 12
58 29 80 29 182 -1 243 -23 48 -46 74 -94 104 l-27 17 24 -53 c33 -71 41 -141
22 -204 -8 -27 -20 -69 -27 -93 -12 -37 -11 -49 4 -93 l18 -50 -32 -50 c-17
-27 -33 -48 -35 -46 -2 2 0 26 5 53 8 40 6 63 -11 124 -15 56 -19 92 -15 144
4 64 3 68 -10 50 -41 -53 -67 -129 -68 -200 0 -63 4 -78 39 -144 37 -72 38
-77 31 -140 -4 -36 -13 -119 -19 -185 l-12 -120 -24 47 c-23 47 -23 47 -5 88
19 41 19 42 -8 148 -15 59 -27 127 -27 151 0 62 -9 46 -37 -61 -32 -125 -29
-201 13 -260 67 -95 88 -184 63 -273 l-11 -39 -15 29 c-9 17 -32 47 -52 68
-36 38 -36 38 -36 126 0 99 -6 98 -44 -2 -42 -115 -21 -177 78 -226 33 -17 62
-35 66 -41 4 -6 9 -36 12 -68 l5 -57 -37 55 c-52 78 -112 137 -169 165 -62 31
-108 35 -59 6 41 -25 76 -87 113 -196 35 -103 71 -168 107 -193 14 -9 57 -30
96 -47 65 -28 72 -34 103 -90 19 -33 34 -63 34 -67 0 -20 -30 -4 -55 28 -17
23 -49 46 -84 61 -69 30 -105 63 -139 128 l-27 50 -3 -41 c-4 -49 27 -142 64
-195 15 -22 46 -48 71 -60 44 -21 48 -21 95 -6 68 22 96 10 145 -61 57 -82 60
-89 29 -65 -32 25 -95 47 -186 64 -36 7 -77 18 -92 26 -52 25 -31 -9 52 -89
108 -104 179 -138 298 -147 74 -5 95 -11 131 -34 24 -16 78 -43 120 -61 45
-19 76 -38 76 -46 0 -23 -33 -23 -71 -1 -25 15 -52 21 -94 21 -95 0 -154 18
-235 70 -89 59 -133 82 -146 78 -18 -6 80 -116 160 -180 120 -96 174 -107 269
-58 72 37 159 51 232 38 66 -12 89 -28 39 -28 -19 0 -82 -16 -140 -36 -80 -28
-122 -36 -181 -37 -75 -2 -77 -2 -55 -19 12 -10 50 -32 84 -49 57 -29 68 -31
133 -27 83 6 151 42 186 98 44 70 60 82 107 76 23 -3 73 -8 112 -12 l69 -6
-35 -12 c-19 -7 -60 -31 -90 -54 -69 -52 -151 -90 -230 -106 -35 -7 -58 -16
-52 -19 6 -4 58 -10 115 -13 172 -11 254 25 318 139 29 50 41 63 64 65 36 4
48 -13 40 -60 -8 -54 11 -103 51 -128 39 -24 163 -50 239 -50 30 0 60 -6 72
-15 31 -24 37 -17 13 16 -31 44 -93 80 -185 109 -59 19 -88 35 -119 64 -33 32
-37 40 -22 44 28 6 82 -17 162 -69 91 -59 142 -73 243 -67 60 4 93 13 152 40
41 19 84 45 95 58 l20 23 -20 -8 c-41 -16 -133 -17 -209 -1 -96 20 -183 20
-216 1 -33 -19 -71 -19 -96 0 -16 13 -17 16 -4 25 8 5 28 10 43 10 15 0 50 11
78 25 88 45 95 46 126 22 24 -19 43 -23 153 -27 106 -5 132 -9 163 -28 49 -28
53 -28 32 6 -66 103 -225 155 -311 101 -20 -12 -34 -16 -34 -9 0 16 116 68
183 82 46 10 66 9 105 -2 26 -8 76 -16 110 -18 56 -3 72 0 127 27 78 39 156
121 179 187 20 60 20 74 -2 49 -35 -42 -89 -74 -176 -104 -87 -31 -178 -87
-190 -116 -6 -17 -40 -21 -34 -5 2 6 37 36 77 68 41 31 100 86 130 122 47 56
61 66 96 71 53 9 112 39 147 76 15 15 47 72 72 126 50 108 71 139 118 174 42
31 20 29 -49 -3 -68 -33 -192 -148 -222 -206 -11 -24 -26 -62 -31 -85 -6 -24
-19 -47 -30 -53 -25 -13 -25 -13 5 52 17 36 25 71 25 108 0 30 4 60 8 65 14
21 88 73 137 98 116 58 140 126 113 315 -12 80 -11 86 10 125 12 22 21 42 19
43 -2 2 -20 -9 -40 -23 -61 -43 -94 -124 -111 -274 -8 -70 -21 -140 -29 -155
-17 -34 -64 -80 -72 -72 -3 3 19 93 50 199 30 107 55 208 55 226 0 28 6 36 39
52 95 49 151 132 151 226 l0 50 -20 -30 c-11 -17 -40 -46 -65 -65 -26 -19 -62
-60 -81 -90 l-35 -55 7 40 c10 64 45 118 89 141 22 11 46 31 52 45 16 30 17
138 2 176 l-11 28 -11 -30 c-5 -16 -26 -52 -45 -79 -30 -41 -36 -57 -34 -95 2
-44 -20 -97 -37 -87 -4 3 1 51 11 108 27 146 21 194 -38 303 -42 78 -49 99
-54 165 l-5 75 -23 -43 c-13 -24 -28 -78 -34 -121 -17 -116 -2 -171 68 -252
60 -69 69 -92 61 -146 -12 -71 -11 -73 -111 142 -103 221 -99 208 -73 242 19
23 22 40 22 113 0 73 -4 93 -29 143 -17 36 -40 66 -59 77 -37 23 -43 20 -26
-12 9 -15 14 -64 14 -150 l0 -127 -43 67 c-37 57 -42 72 -37 102 18 107 17
170 -4 239 -12 39 -32 83 -45 97 l-23 28 -1 -65 c-1 -35 -6 -95 -12 -134 -9
-68 -9 -72 20 -127 16 -32 26 -58 21 -58 -19 0 -50 53 -86 145 -42 110 -63
131 -180 186 -94 43 -125 54 -125 41 0 -5 22 -40 49 -79 57 -81 126 -145 193
-179 43 -22 69 -44 52 -44 -3 0 -47 21 -97 48 -107 56 -179 117 -200 171 -21
51 -55 76 -136 102 -78 24 -254 38 -265 20 -4 -6 -1 -11 8 -11 31 0 126 -49
168 -87 51 -47 64 -52 147 -63 47 -6 72 -16 99 -37 49 -40 53 -57 10 -39 -19
8 -87 19 -153 26 -85 7 -129 16 -152 30 -70 41 -11 -33 70 -89 85 -58 174 -74
257 -45 79 28 198 -5 259 -70 l25 -26 -60 21 c-44 15 -88 21 -171 23 -62 1
-113 1 -113 -2 0 -8 169 -82 210 -91 35 -8 59 -6 107 6 34 8 73 13 85 9 14 -3
43 -36 77 -86 51 -77 61 -111 24 -78 -45 39 -213 108 -262 108 -23 -1 -22 -3
14 -21 22 -11 67 -46 100 -78 74 -72 91 -81 153 -81 60 0 68 -9 111 -112 17
-43 47 -104 66 -135 44 -73 45 -92 5 -63 -20 14 -31 33 -36 58 -9 49 -25 79
-66 123 -34 36 -147 123 -153 117 -1 -1 15 -45 37 -95 48 -110 103 -178 158
-194 21 -7 60 -31 87 -54 l48 -42 2 -149 c2 -101 -1 -159 -10 -179 -11 -27
-12 -20 -17 80 -5 106 -6 112 -42 167 -21 32 -40 69 -44 83 -12 49 -27 40 -19
-11 5 -27 9 -92 11 -144 1 -52 2 -102 3 -112 0 -9 17 -35 36 -58 19 -23 38
-52 41 -65 3 -12 -5 -60 -17 -106 l-24 -84 -7 82 c-3 45 -12 92 -19 105 -13
22 -14 20 -20 -28 -3 -27 -16 -72 -28 -98 -28 -64 -27 -112 4 -161 29 -47 32
-100 8 -153 l-16 -37 -8 53 c-5 29 -20 75 -35 103 -14 28 -23 57 -20 65 11 30
-5 12 -26 -29 -31 -60 -31 -163 0 -235 l23 -53 -23 -40 c-19 -34 -145 -149
-163 -149 -3 0 1 10 8 23 8 12 23 47 33 77 11 30 35 71 55 92 29 31 32 38 17
38 -34 0 -84 -27 -122 -66 -48 -50 -61 -75 -77 -153 -14 -68 -20 -73 -95 -87
l-37 -7 25 34 c14 19 37 55 52 81 14 26 34 52 44 57 39 23 -19 11 -69 -15 -93
-47 -169 -131 -169 -188 0 -30 -40 -63 -120 -100 -55 -26 -100 -34 -100 -17 0
4 21 16 46 26 81 31 154 115 154 176 0 23 0 23 -27 -3 -16 -14 -53 -41 -83
-59 -77 -45 -89 -57 -96 -96 -6 -33 -44 -73 -70 -73 -7 0 -38 22 -69 50 -65
56 -128 81 -212 82 -68 1 -143 -10 -143 -22 0 -4 17 -10 38 -13 20 -3 66 -17
102 -31 l65 -26 -130 4 c-71 3 -170 13 -220 22 -86 17 -88 18 -52 26 20 4 59
19 87 33 27 14 73 29 102 33 48 7 51 9 31 20 -12 6 -53 17 -91 24 -92 15 -140
2 -192 -55 -38 -40 -38 -40 -64 -24 -36 24 -59 63 -53 89 15 54 -85 182 -203
261 -49 33 -55 35 -58 19 -5 -29 35 -126 72 -174 18 -23 64 -65 101 -93 66
-48 75 -71 16 -41 -39 20 -144 118 -192 178 l-37 47 5 103 c4 89 2 111 -16
160 -22 56 -69 118 -89 118 -7 0 -6 -15 3 -42 15 -48 29 -247 16 -232 -4 5
-35 55 -69 111 l-61 102 38 38 c45 45 57 102 41 197 -12 73 -17 79 -26 30 -8
-48 -64 -194 -74 -194 -10 0 -30 47 -30 70 0 32 32 103 62 138 54 62 61 88 69
237 4 77 11 156 15 175 7 32 6 34 -10 21 -26 -22 -63 -90 -93 -172 -23 -63
-27 -90 -28 -184 0 -79 -5 -120 -16 -145 l-17 -35 -11 28 c-17 44 -13 115 14
241 15 71 25 148 25 199 0 98 12 122 67 130 54 9 79 30 130 111 25 39 57 83
71 99 33 34 25 34 -53 -3 -58 -28 -104 -69 -163 -146 l-22 -29 6 60 c4 33 11
66 17 73 17 21 146 94 222 125 79 32 103 51 146 119 34 53 102 218 90 218 -15
0 -136 -97 -177 -142 -22 -24 -49 -66 -58 -94 -10 -27 -21 -58 -26 -70 -7 -18
-126 -91 -135 -82 -5 5 221 288 278 347 29 30 82 74 118 97 l67 43 83 -14
c101 -18 213 -19 260 -3 36 12 163 90 173 106 3 5 -13 2 -37 -6 -28 -11 -80
-16 -158 -17 -110 -1 -118 -3 -170 -32 -53 -30 -100 -35 -114 -13 -7 11 68 37
145 51 36 6 87 22 113 37 46 25 167 142 167 162 0 5 -24 -2 -54 -15 -30 -13
-92 -32 -138 -41 -99 -19 -118 -30 -164 -94 -26 -36 -62 -65 -135 -111 -55
-34 -103 -58 -107 -54 -7 7 9 22 83 79 51 39 85 117 92 210 6 82 -6 105 -27
48z m-571 -1809 c1 -19 -17 -16 -27 5 -5 9 -14 38 -20 63 -7 26 -14 55 -17 65
-3 11 10 -12 29 -51 19 -38 35 -76 35 -82z m2275 51 c-9 -22 -18 -34 -21 -27
-5 13 26 78 33 70 3 -3 -2 -22 -12 -43z"/>
<path d="M1532 2365 c-14 -31 -15 -38 -3 -31 5 3 12 -2 15 -11 4 -9 1 -20 -6
-25 -10 -6 -9 -8 4 -8 9 0 20 -9 23 -20 3 -11 15 -20 26 -20 18 0 18 2 -5 55
-40 89 -41 90 -54 60z"/>
<path d="M1385 2374 c-7 -3 -7 -25 -1 -69 8 -53 13 -65 29 -65 13 0 17 5 14
18 -3 9 -8 39 -12 66 -7 48 -6 49 19 44 14 -3 26 -1 26 3 0 9 -56 11 -75 3z"/>
<path d="M1630 2371 c0 -4 12 -6 26 -3 25 5 26 4 19 -44 -4 -27 -9 -57 -12
-66 -3 -13 1 -18 14 -18 16 0 21 12 29 66 5 36 8 67 5 70 -8 8 -81 4 -81 -5z"/>
<path d="M1330 2354 c0 -14 3 -14 15 -4 8 7 15 14 15 16 0 2 -7 4 -15 4 -8 0
-15 -7 -15 -16z"/>
<path d="M1736 2363 c5 -5 12 -12 16 -18 4 -6 8 -2 8 8 0 9 -7 17 -17 17 -9 0
-12 -3 -7 -7z"/>
<path d="M1272 2341 c-11 -7 -11 -9 2 -14 10 -4 16 -1 16 8 0 17 -1 17 -18 6z"/>
<path d="M1794 2285 l-20 -65 43 -16 c34 -13 47 -14 56 -5 9 9 7 11 -8 10 -49
-5 -57 0 -50 28 9 36 12 38 29 24 11 -9 15 -7 19 8 3 15 0 17 -16 13 -16 -4
-19 -2 -14 12 4 10 7 22 7 27 0 14 27 11 44 -6 17 -18 26 -19 26 -5 0 10 -30
25 -73 35 -20 5 -24 -2 -43 -60z"/>
<path d="M1222 2328 c-29 -29 -9 -61 45 -73 40 -8 49 -20 32 -43 -11 -13 -8
-12 9 2 12 11 22 23 22 28 0 17 -41 48 -65 48 -29 0 -45 28 -24 41 8 5 9 9 4
9 -6 0 -16 -5 -23 -12z"/>
<path d="M1492 2275 c-6 -14 -8 -25 -4 -25 4 0 12 11 19 25 6 14 8 25 4 25 -4
0 -13 -11 -19 -25z"/>
<path d="M1998 2211 c-34 -59 -35 -75 -6 -95 36 -26 56 -19 93 32 36 49 41 62
25 62 -5 0 -10 -6 -10 -13 0 -7 -12 -29 -26 -50 -18 -28 -31 -37 -47 -35 -33
5 -32 38 4 87 24 34 28 45 17 52 -20 13 -21 12 -50 -40z"/>
<path d="M1055 2231 c7 -23 51 -72 58 -65 2 3 10 -2 17 -11 9 -11 17 -12 32
-4 18 9 15 14 -34 48 -81 57 -81 57 -73 32z"/>
<path d="M1230 2223 c0 -17 16 -31 27 -25 9 6 6 11 -7 20 -11 7 -20 9 -20 5z"/>
<path d="M1061 2168 c-1 -29 12 -37 25 -16 4 6 3 8 -4 4 -6 -3 -12 3 -15 16
-4 20 -4 19 -6 -4z"/>
<path d="M939 2164 c-10 -12 -7 -21 18 -47 16 -18 37 -42 45 -55 13 -19 17
-20 27 -8 10 12 4 25 -33 70 -38 47 -46 53 -57 40z"/>
<path d="M2127 2104 c-29 -31 -44 -55 -38 -59 6 -3 11 0 11 8 0 12 50 67 61
67 2 0 2 -30 -2 -67 -3 -38 -5 -69 -5 -70 1 -1 24 20 52 47 29 27 49 51 47 54
-3 2 -18 -10 -35 -27 l-29 -32 6 56 c9 82 -8 88 -68 23z"/>
<path d="M1070 2110 c0 -5 5 -10 11 -10 5 0 7 5 4 10 -3 6 -8 10 -11 10 -2 0
-4 -4 -4 -10z"/>
<path d="M870 2103 c0 -5 13 -17 27 -27 l27 -20 -20 27 c-18 26 -34 35 -34 20z"/>
<path d="M813 2039 c-9 -9 0 -21 38 -51 27 -22 49 -44 49 -49 0 -6 5 -7 11 -4
6 4 -7 20 -30 38 -23 17 -41 35 -41 40 0 4 33 5 73 1 71 -7 72 -6 55 13 -21
22 -135 32 -155 12z"/>
<path d="M2265 2001 c-17 -15 -41 -34 -54 -43 -20 -14 -22 -20 -12 -32 10 -12
16 -11 39 11 15 13 39 32 54 41 31 18 34 25 15 40 -9 7 -20 3 -42 -17z"/>
<path d="M1070 1771 c0 -126 3 -236 6 -245 5 -13 24 -16 105 -16 78 0 100 -3
107 -16 8 -14 10 -14 21 0 11 13 35 16 117 16 99 0 104 1 109 23 3 12 4 121 3
242 l-3 220 -232 3 -233 2 0 -229z m440 -15 l0 -225 -104 -3 c-57 -2 -150 -1
-207 2 l-104 5 -3 210 c-1 115 0 215 2 222 4 10 53 13 211 13 l205 0 0 -224z"/>
<path d="M1253 1915 c-13 -5 -23 -13 -23 -17 0 -5 -7 -8 -16 -8 -8 0 -12 -5
-9 -10 3 -6 -1 -13 -10 -16 -9 -4 -14 -13 -11 -20 3 -8 2 -14 -3 -14 -10 0
-21 -47 -13 -55 3 -3 7 -17 8 -32 2 -15 8 -29 14 -31 5 -2 10 -10 10 -18 0 -8
7 -14 15 -14 8 0 15 -4 15 -10 0 -5 7 -10 15 -10 8 0 15 -3 15 -8 0 -4 18 -7
40 -7 22 0 40 3 40 7 0 5 7 8 16 8 18 0 44 23 44 39 0 6 7 11 15 11 9 0 12 6
9 15 -4 8 -1 15 6 15 7 0 10 6 7 14 -3 7 -1 18 5 24 6 6 6 12 -1 16 -5 4 -8
13 -4 21 3 8 0 15 -6 15 -6 0 -8 7 -5 15 4 8 1 15 -5 15 -6 0 -11 7 -11 15 0
8 -6 15 -14 15 -8 0 -16 4 -18 10 -1 5 -14 11 -28 12 -14 2 -28 7 -32 12 -4 6
-12 5 -21 -3 -8 -6 -17 -8 -19 -4 -1 5 -13 4 -25 -2z"/>
<path d="M1206 1609 c7 -11 182 -10 189 1 3 5 -39 9 -95 8 -55 0 -97 -4 -94
-9z"/>
<path d="M1206 1578 c3 -5 48 -8 101 -8 53 0 93 3 89 8 -10 9 -196 10 -190 0z"/>
<path d="M1577 1993 c-13 -12 -8 -458 5 -471 8 -8 46 -12 103 -12 56 0 96 -5
103 -12 8 -8 15 -8 25 0 7 6 60 13 118 14 l104 3 3 243 2 242 -228 0 c-126 0
-232 -3 -235 -7z m441 -240 l2 -222 -108 -3 c-60 -2 -154 -2 -210 0 l-102 3 0
225 0 224 208 -2 207 -3 3 -222z"/>
<path d="M1640 1830 c-28 -25 -31 -31 -18 -43 8 -8 24 -18 36 -21 15 -5 22
-15 22 -32 0 -33 -17 -64 -35 -64 -7 0 -17 -5 -21 -11 -7 -12 68 -8 99 5 13 6
16 5 11 -8 -5 -13 1 -16 36 -16 33 0 41 3 36 15 -4 11 2 15 21 15 21 0 23 -3
14 -14 -11 -13 0 -15 74 -15 l87 1 -7 26 c-4 15 -7 45 -6 68 2 68 -14 79 -106
77 -87 -3 -182 13 -199 33 -9 11 -17 8 -44 -16z"/>
<path d="M759 1950 c-21 -12 -62 -80 -48 -80 5 0 34 -15 64 -34 46 -30 54 -33
60 -18 3 9 3 18 -2 20 -4 1 -30 16 -57 33 -43 27 -47 32 -34 45 19 19 48 7 48
-20 0 -19 4 -21 40 -18 21 2 44 10 51 18 9 12 5 14 -27 14 -31 0 -41 5 -49 22
-12 26 -24 31 -46 18z"/>
<path d="M2326 1922 c-11 -15 -31 -42 -44 -59 l-24 -33 31 0 c18 0 30 4 27 9
-3 4 7 25 23 47 16 21 27 44 24 51 -7 19 -16 16 -37 -15z"/>
<path d="M2385 1850 c-18 -8 -17 -9 8 -9 16 -1 26 3 22 9 -3 6 -7 10 -8 9 -1
0 -11 -4 -22 -9z"/>
<path d="M682 1793 c-7 -2 -17 -14 -23 -26 -9 -18 -9 -20 2 -9 18 16 54 15 89
-3 32 -17 39 -45 15 -65 -19 -16 -79 4 -100 33 l-15 21 0 -25 c0 -34 32 -62
70 -62 41 0 70 28 70 70 0 55 -53 88 -108 66z"/>
<path d="M2367 1758 c-43 -15 -57 -24 -53 -35 3 -8 6 -20 6 -26 0 -6 6 -3 13
6 6 9 23 19 37 21 14 3 38 9 54 12 28 7 29 6 24 -25 -4 -29 4 -41 16 -22 7 11
-18 84 -30 87 -5 1 -35 -7 -67 -18z"/>
<path d="M2380 1704 c-13 -15 -6 -17 24 -5 17 6 17 8 3 14 -8 3 -21 -1 -27 -9z"/>
<path d="M2330 1666 c0 -16 18 -31 27 -22 3 3 -2 12 -11 21 -14 14 -16 14 -16
1z"/>
<path d="M616 1618 c-3 -13 -6 -35 -6 -50 0 -25 3 -27 58 -34 31 -3 61 -7 67
-8 5 0 11 6 13 16 3 13 -9 18 -62 23 -54 6 -66 11 -66 25 0 10 7 26 16 34 13
14 13 16 1 16 -8 0 -17 -10 -21 -22z"/>
<path d="M2469 1616 c-2 -3 -30 -6 -62 -8 -48 -2 -57 -6 -57 -22 0 -15 5 -17
35 -12 43 8 45 -5 5 -34 -16 -12 -30 -30 -30 -41 0 -25 5 -24 37 5 21 20 29
22 45 13 24 -16 52 2 56 34 2 21 1 22 -8 7 -16 -26 -60 -24 -60 2 0 16 7 20
30 20 23 0 30 4 30 20 0 18 -10 26 -21 16z"/>
<path d="M660 1605 c0 -10 29 -24 34 -17 3 6 -3 12 -14 15 -11 3 -20 4 -20 2z"/>
<path d="M600 1460 c0 -16 10 -19 70 -22 65 -3 70 -1 70 17 0 18 -7 20 -70 22
-62 1 -70 -1 -70 -17z"/>
<path d="M2366 1434 c-20 -77 65 -99 89 -23 8 24 42 25 48 2 4 -15 5 -15 6 -2
0 9 -8 24 -18 33 -15 14 -24 15 -40 6 -12 -6 -21 -14 -21 -18 0 -15 -41 -52
-51 -47 -14 9 -11 37 8 57 14 16 14 18 1 18 -9 0 -19 -12 -22 -26z"/>
<path d="M1070 1217 c0 -168 3 -236 12 -245 8 -8 47 -12 110 -12 70 0 98 -3
98 -12 0 -9 3 -9 12 0 8 8 48 12 115 12 91 0 103 2 113 19 6 12 10 109 10 245
l0 226 -235 0 -235 0 0 -233z m440 -12 l0 -225 -207 2 -208 3 -3 223 -2 222
210 0 210 0 0 -225z"/>
<path d="M1135 1370 c11 -14 47 -54 82 -90 l62 -65 -51 -54 -52 -54 -28 32
c-15 17 -28 26 -28 20 0 -23 43 -80 70 -94 43 -22 55 -18 23 9 l-27 24 54 51
55 50 44 -44 c44 -43 45 -45 26 -64 -18 -20 -17 -21 17 -35 66 -28 99 6 67 67
-16 30 -15 30 -38 15 -19 -12 -25 -9 -63 30 l-43 42 83 83 c96 96 112 130 20
41 -35 -33 -75 -70 -91 -84 l-28 -24 -86 84 c-48 47 -79 74 -68 60z"/>
<path d="M1570 1224 c0 -136 4 -233 10 -245 10 -17 22 -19 108 -19 63 0 102
-4 110 -12 9 -9 12 -9 12 0 0 9 30 12 103 12 67 0 107 4 115 12 9 9 12 77 12
245 l0 233 -235 0 -235 0 0 -226z m448 -16 l-3 -223 -207 -3 -208 -2 0 225 0
225 210 0 210 0 -2 -222z"/>
<path d="M1687 1351 l-47 -16 2 -125 3 -125 25 5 c14 2 42 3 63 2 46 -2 75 -2
130 1 23 1 53 -1 67 -3 l25 -5 3 125 3 126 -48 13 c-67 19 -169 20 -226 2z"/>
<path d="M701 1397 c2 -1 12 -9 22 -16 14 -12 17 -11 17 3 0 10 -8 16 -22 16
-12 0 -19 -1 -17 -3z"/>
<path d="M2480 1380 c-13 -8 -12 -10 3 -10 9 0 17 5 17 10 0 12 -1 12 -20 0z"/>
<path d="M737 1340 c-5 -19 -38 -26 -114 -23 -7 1 -13 -10 -13 -22 0 -22 3
-23 32 -14 18 5 50 9 70 9 37 0 38 1 38 35 0 39 -5 45 -13 15z"/>
<path d="M2355 1312 c-7 -19 -11 -17 67 -28 59 -9 67 -8 71 7 4 14 -7 18 -64
26 -56 7 -69 7 -74 -5z"/>
<path d="M751 1255 c-1 -5 -23 -28 -51 -50 -27 -22 -49 -43 -50 -47 -1 -17 46
-6 58 13 7 12 16 19 19 16 2 -3 14 4 25 15 16 16 18 24 10 42 -6 11 -11 17
-11 11z"/>
<path d="M2460 1215 c7 -9 15 -13 17 -11 7 7 -7 26 -19 26 -6 0 -6 -6 2 -15z"/>
<path d="M2327 1200 c-4 -14 6 -20 47 -29 28 -6 58 -16 66 -21 13 -9 13 -12
-3 -24 -11 -8 -14 -17 -8 -20 5 -4 14 1 19 11 14 28 24 75 14 69 -5 -3 -36 3
-70 13 -57 18 -61 18 -65 1z"/>
<path d="M740 1161 c0 -5 -8 -12 -17 -14 -11 -3 -8 -5 9 -6 20 -1 26 3 22 14
-7 17 -14 20 -14 6z"/>
<path d="M775 1140 c3 -5 11 -10 16 -10 6 0 7 5 4 10 -3 6 -11 10 -16 10 -6 0
-7 -4 -4 -10z"/>
<path d="M808 1085 c30 -23 28 -59 -4 -84 -48 -38 -102 -19 -92 33 4 18 1 23
-9 19 -28 -11 13 -89 53 -99 83 -21 127 90 54 134 l-25 15 23 -18z"/>
<path d="M2272 1063 c-8 -13 -3 -20 22 -32 42 -22 113 -16 127 10 10 19 7 19
-40 13 -38 -5 -57 -3 -75 10 -23 15 -26 15 -34 -1z"/>
<path d="M2339 985 c17 -33 31 -51 31 -40 0 6 -10 21 -21 35 -13 17 -17 18
-10 5z"/>
<path d="M1410 887 c-20 -16 -16 -107 6 -107 11 0 14 14 14 60 0 33 -1 60 -2
60 -2 0 -10 -6 -18 -13z"/>
<path d="M1482 891 c-22 -14 -10 -56 17 -59 19 -3 22 -8 18 -28 -6 -33 15 -26
27 9 6 17 6 37 0 54 -13 38 -32 40 -26 3 3 -23 1 -30 -13 -30 -14 0 -16 7 -13
30 3 17 4 30 4 30 -1 0 -7 -4 -14 -9z"/>
<path d="M1599 868 c-16 -23 -18 -29 -5 -19 16 14 17 12 13 -27 -4 -35 -2 -42
12 -42 15 0 17 8 13 58 -2 31 -5 58 -7 60 -1 2 -13 -12 -26 -30z"/>
<path d="M1672 887 c-21 -25 -11 -52 21 -55 26 -3 28 -7 22 -29 -5 -23 -4 -25
9 -14 20 17 21 84 2 101 -13 10 -15 7 -13 -16 3 -39 -21 -42 -25 -3 -3 29 -5
30 -16 16z"/>
<path d="M2117 858 c-16 -9 -16 -11 3 -35 l20 -26 -21 -15 c-20 -14 -23 -14
-35 3 -7 10 -15 23 -17 29 -3 8 -9 7 -20 -2 -14 -12 -12 -18 19 -61 19 -27 34
-54 34 -60 0 -9 5 -9 20 -1 21 11 21 11 1 39 -15 21 -17 31 -9 39 19 19 38 14
50 -13 13 -28 19 -30 35 -14 9 9 6 20 -12 43 -13 17 -30 43 -37 58 -11 20 -18
24 -31 16z"/>
<path d="M980 850 c0 -5 -16 -32 -35 -59 l-35 -48 38 -27 c42 -29 57 -32 68
-14 5 8 2 9 -10 5 -20 -8 -56 8 -56 25 0 6 16 32 35 59 33 47 34 49 15 59 -14
7 -20 7 -20 0z"/>
<path d="M1565 820 c-3 -5 -1 -10 4 -10 6 0 11 5 11 10 0 6 -2 10 -4 10 -3 0
-8 -4 -11 -10z"/>
<path d="M1475 801 c-6 -11 9 -23 19 -14 9 9 7 23 -3 23 -6 0 -12 -4 -16 -9z"/>
<path d="M1670 795 c0 -8 5 -15 10 -15 6 0 10 7 10 15 0 8 -4 15 -10 15 -5 0
-10 -7 -10 -15z"/>
<path d="M2006 781 c-3 -5 1 -11 9 -15 8 -3 15 -1 15 4 0 13 -18 22 -24 11z"/>
<path d="M1060 758 c-11 -12 -20 -33 -20 -48 0 -29 25 -70 43 -70 8 0 8 3 -1
12 -28 28 -3 100 42 118 18 8 17 9 -11 9 -21 1 -39 -7 -53 -21z"/>
<path d="M1945 755 c-61 -60 7 -150 84 -111 16 9 32 23 35 33 6 14 2 13 -14
-4 -28 -30 -54 -29 -79 3 -27 35 -27 69 1 88 12 9 17 16 10 16 -7 0 -24 -11
-37 -25z"/>
<path d="M1157 752 c7 -28 -14 -79 -40 -97 -29 -20 -14 -30 21 -16 28 12 52
47 52 75 0 8 -9 24 -19 37 l-20 24 6 -23z"/>
<path d="M1214 715 c-1 -14 2 -23 6 -20 5 3 19 -22 32 -55 12 -33 26 -60 29
-60 17 0 15 44 -2 80 -10 21 -19 44 -19 49 0 9 -31 31 -42 31 -2 0 -4 -11 -4
-25z"/>
<path d="M1830 702 c0 -13 13 -37 30 -55 16 -18 30 -38 30 -44 0 -14 6 -15 32
-5 14 6 8 17 -37 67 -46 51 -54 57 -55 37z"/>
<path d="M1310 695 c0 -8 2 -15 4 -15 2 0 6 7 10 15 3 8 1 15 -4 15 -6 0 -10
-7 -10 -15z"/>
<path d="M1721 697 c2 -1 12 -9 22 -16 14 -12 17 -11 17 3 0 10 -8 16 -22 16
-12 0 -19 -1 -17 -3z"/>
<path d="M1350 670 c-28 -28 -27 -84 2 -104 29 -21 44 -21 24 0 -19 18 -20 53
-4 89 15 33 60 35 82 3 16 -22 16 -22 16 -1 0 37 -87 46 -120 13z"/>
<path d="M1663 677 c3 -8 8 -39 12 -70 7 -53 9 -57 33 -57 20 0 23 3 14 12
-18 18 -16 62 3 54 11 -4 15 1 14 17 0 12 -3 16 -6 10 -10 -26 -33 -13 -33 17
0 24 -4 30 -21 30 -14 0 -19 -5 -16 -13z"/>
<path d="M1538 610 l4 -70 34 0 c20 0 44 5 55 10 23 13 25 46 3 58 -11 6 -13
11 -5 16 16 11 13 43 -5 50 -9 3 -32 6 -52 6 l-37 0 3 -70z m67 35 c0 -11 -8
-21 -17 -23 -14 -3 -18 3 -18 23 0 20 4 26 18 23 9 -2 17 -12 17 -23z m4 -49
c15 -18 3 -46 -20 -46 -14 0 -19 7 -19 30 0 32 19 40 39 16z"/>
<path d="M1822 625 c0 -16 2 -22 5 -12 2 9 2 23 0 30 -3 6 -5 -1 -5 -18z"/>
<path d="M1186 624 c-8 -20 -8 -24 2 -24 4 0 8 9 9 20 2 24 -3 26 -11 4z"/>
<path d="M1425 590 c3 -5 1 -19 -5 -30 -9 -17 -8 -19 11 -11 12 4 26 17 30 29
7 19 5 22 -17 22 -14 0 -22 -4 -19 -10z"/>
<path d="M1762 575 c-11 -12 -10 -15 3 -15 8 0 15 7 15 15 0 18 -2 18 -18 0z"/>
<path d="M1810 580 c0 -5 5 -10 10 -10 6 0 10 5 10 10 0 6 -4 10 -10 10 -5 0
-10 -4 -10 -10z"/>
</g>
</svg>
