<?xml version="1.0" encoding="UTF-8"?>
<svg version="1.1" xmlns="http://www.w3.org/2000/svg" width="440" height="115">
<path d="M0 0 C145.2 0 290.4 0 440 0 C440 37.95 440 75.9 440 115 C294.8 115 149.6 115 0 115 C0 77.05 0 39.1 0 0 Z " fill="#FCFCFC" transform="translate(0,0)"/>
<path d="M0 0 C0.54785156 0.32613281 1.09570312 0.65226563 1.66015625 0.98828125 C12.28875809 6.84697397 23.34176736 8.06388636 35.25 8.5 C46.46782773 8.92202354 56.30342689 10.25461458 65 18 C75.23698931 29.51661297 77.51233424 46.62188643 77.25 61.4765625 C76.17028836 76.69374848 70.34997375 86.24030267 60 97 C59.36449219 97.67546875 58.72898438 98.3509375 58.07421875 99.046875 C56.42835578 100.75477715 54.73302589 102.38137924 53 104 C52.0925 104.9075 51.185 105.815 50.25 106.75 C47 108 47 108 44.35546875 107.16015625 C42.43752139 106.27435727 40.5443719 105.33236447 38.68359375 104.33203125 C34.18853353 102.10085871 30.01129595 101.87686515 25.04296875 101.90234375 C23.93115234 101.90556641 22.81933594 101.90878906 21.67382812 101.91210938 C19.9480957 101.92467773 19.9480957 101.92467773 18.1875 101.9375 C17.01767578 101.94201172 15.84785156 101.94652344 14.64257812 101.95117188 C11.76166642 101.9629307 8.88085956 101.97936574 6 102 C9.17412969 98.60932287 11.99286991 96.18645382 16.1875 94.1875 C17.04730469 93.76855469 17.90710938 93.34960938 18.79296875 92.91796875 C21 92 21 92 23 92 C24.59970044 83.20164756 24.3223793 74.63774056 23 65.8125 C21.27986997 53.77158977 19.49394988 39.94094784 26.7578125 29.46484375 C28.44752924 27.25179368 30.18134873 25.10764243 32 23 C31.39414062 22.90203125 30.78828125 22.8040625 30.1640625 22.703125 C20.71099713 21.01611641 11.48007867 18.51623338 5 11 C0 3.47461929 0 3.47461929 0 0 Z " fill="#263D57" transform="translate(5,1)"/>
<path d="M0 0 C3.95381556 1.73703194 6.30799174 5.92859042 7.8671875 9.8203125 C8.11201477 12.81799316 8.11201477 12.81799316 8.10668945 16.36132812 C8.10870361 17.00897629 8.11071777 17.65662445 8.11279297 18.32389832 C8.11632973 19.72562738 8.11558217 21.12737242 8.11101723 22.52909851 C8.10541303 24.74863023 8.1145994 26.96764154 8.1282196 29.18713379 C8.16530817 35.49571106 8.18387264 41.80410966 8.17260742 48.11279297 C8.1667559 51.9756113 8.18501462 55.8376947 8.21849632 59.70036316 C8.22644856 61.17073004 8.22517556 62.64117706 8.21447182 64.11152649 C8.20014021 66.1682632 8.21641249 68.22268785 8.23950195 70.27929688 C8.24013138 71.44859741 8.2407608 72.61789795 8.2414093 73.82263184 C9.05233224 77.70721591 10.69172653 78.60568696 13.8671875 80.8203125 C13.8671875 81.4803125 13.8671875 82.1403125 13.8671875 82.8203125 C12.2578125 84.36328125 12.2578125 84.36328125 10.1171875 86.0078125 C9.42109375 86.55824219 8.725 87.10867187 8.0078125 87.67578125 C5.8671875 88.8203125 5.8671875 88.8203125 3.7734375 88.64453125 C0.76064854 87.34187045 -1.0218686 85.28308039 -3.1328125 82.8203125 C-3.1328125 81.8303125 -3.1328125 80.8403125 -3.1328125 79.8203125 C-4.42524718 80.9444301 -5.71673325 82.06963842 -7.0078125 83.1953125 C-7.72710937 83.82179688 -8.44640625 84.44828125 -9.1875 85.09375 C-10.5404723 86.29458084 -11.853647 87.541147 -13.1328125 88.8203125 C-18.03185461 88.60257729 -20.76692656 87.35880798 -24.1328125 83.8203125 C-31.12012181 71.81395003 -31.99907843 58.79150473 -29.44921875 45.16796875 C-26.57684043 36.67001962 -21.49506427 31.34625741 -14.0625 26.5703125 C-11.63655061 25.62743338 -10.52625485 25.86690808 -8.1328125 26.8203125 C-7.4728125 27.4803125 -6.8128125 28.1403125 -6.1328125 28.8203125 C-6.02436219 26.25666767 -5.94531506 23.69764971 -5.8828125 21.1328125 C-5.84929687 20.41158203 -5.81578125 19.69035156 -5.78125 18.94726562 C-5.68864231 13.87699451 -6.53821739 11.63426283 -10.1328125 7.8203125 C-10.1328125 7.1603125 -10.1328125 6.5003125 -10.1328125 5.8203125 C-8.5234375 4.27734375 -8.5234375 4.27734375 -6.3828125 2.6328125 C-5.68671875 2.08238281 -4.990625 1.53195313 -4.2734375 0.96484375 C-2.1328125 -0.1796875 -2.1328125 -0.1796875 0 0 Z " fill="#283E59" transform="translate(410.1328125,5.1796875)"/>
<path d="M0 0 C3.2248879 2.14288787 3.95358899 3.98661409 5.38671875 7.5859375 C5.80843953 10.58124973 5.82769274 13.54095489 5.828125 16.5625 C5.84133286 17.41016937 5.85454071 18.25783875 5.8681488 19.13119507 C5.90885648 21.82447665 5.93066768 24.51741891 5.94921875 27.2109375 C5.9730387 29.91149423 6.00118149 32.61173305 6.04100037 35.31210327 C6.06527814 36.98811759 6.0802011 38.66430027 6.08460999 40.34048462 C6.10329754 45.78947129 6.10329754 45.78947129 8.38671875 50.5859375 C10.2752223 51.66236459 10.2752223 51.66236459 12.38671875 51.5859375 C14.15359695 50.62977954 14.15359695 50.62977954 15.38671875 48.5859375 C15.69738057 45.85643087 15.8309564 43.35964294 15.8203125 40.62890625 C15.82817528 39.45803215 15.82817528 39.45803215 15.8361969 38.26350403 C15.8426184 36.61179797 15.8412784 34.9600462 15.83276367 33.30834961 C15.8242834 30.79261699 15.85296122 28.27917837 15.88476562 25.76367188 C15.88637863 24.15625068 15.88579821 22.54882548 15.8828125 20.94140625 C15.89404648 20.19432907 15.90528046 19.44725189 15.91685486 18.67753601 C15.84587807 13.30101549 14.62595909 10.66219915 11.38671875 6.5859375 C12.79044677 5.38317055 14.21023972 4.19913231 15.63671875 3.0234375 C16.425625 2.36214844 17.21453125 1.70085938 18.02734375 1.01953125 C20.38671875 -0.4140625 20.38671875 -0.4140625 22.546875 -0.3046875 C25.60539157 1.17586829 26.74667538 3.70172331 28.38671875 6.5859375 C29.30197292 9.49387107 29.52833964 12.15918054 29.57617188 15.19921875 C29.5928894 16.10696045 29.60960693 17.01470215 29.62683105 17.94995117 C29.64040649 18.92295166 29.65398193 19.89595215 29.66796875 20.8984375 C29.68637817 21.90430908 29.7047876 22.91018066 29.72375488 23.9465332 C29.80233242 28.24777736 29.87012686 32.54917668 29.93896484 36.85058594 C29.99076091 39.9916133 30.04798361 43.13250994 30.10546875 46.2734375 C30.11904419 47.24643799 30.13261963 48.21943848 30.14660645 49.22192383 C30.16332397 50.12966553 30.1800415 51.03740723 30.19726562 51.97265625 C30.2097937 52.76889404 30.22232178 53.56513184 30.23522949 54.38549805 C30.38545938 56.56764469 30.81929206 58.4791429 31.38671875 60.5859375 C31.90038932 66.57217534 31.91009536 71.48311621 28.38671875 76.5859375 C23.13801058 81.98901944 16.2992527 83.73222357 8.94921875 83.9609375 C1.43704312 83.72914526 -6.28643573 82.24571086 -11.61328125 76.5859375 C-13.65389543 72.89339756 -14.04909034 69.76970476 -13.61328125 65.5859375 C-12.11328125 62.7109375 -12.11328125 62.7109375 -10.61328125 60.5859375 C-6.81080504 62.19467744 -3.0127465 64.1592502 -0.61328125 67.5859375 C-0.10429732 70.97743249 -0.25654613 74.18374145 -0.61328125 77.5859375 C5.00976528 79.46028634 11.08112863 79.53529814 16.57421875 77.2734375 C19.49858039 72.93731507 19.05534946 68.64942213 18.38671875 63.5859375 C17.60199409 60.73685193 16.61140957 58.29046307 15.38671875 55.5859375 C14.86722656 56.09125 14.34773438 56.5965625 13.8125 57.1171875 C12.76642578 58.09171875 12.76642578 58.09171875 11.69921875 59.0859375 C11.01472656 59.735625 10.33023438 60.3853125 9.625 61.0546875 C6.92443964 62.90219127 5.59658814 63.05113596 2.38671875 62.5859375 C-2.27454491 59.41627821 -4.41855095 56.8692845 -6.61328125 51.5859375 C-7.01999432 48.61275439 -7.00735288 45.67691949 -6.984375 42.6796875 C-7.00175207 40.94921672 -7.0193365 39.21874801 -7.03710938 37.48828125 C-7.04718474 34.78267655 -7.05077575 32.07720473 -7.04907227 29.37158203 C-7.0526511 26.74472088 -7.08001706 24.11886837 -7.109375 21.4921875 C-7.10119247 20.68890015 -7.09300995 19.88561279 -7.08457947 19.0579834 C-7.15597397 13.64418106 -8.20561812 10.81561536 -11.61328125 6.5859375 C-10.23640422 5.35604735 -8.83592292 4.15254172 -7.42578125 2.9609375 C-6.64847656 2.28804687 -5.87117187 1.61515625 -5.0703125 0.921875 C-2.61328125 -0.4140625 -2.61328125 -0.4140625 0 0 Z " fill="#263C57" transform="translate(233.61328125,31.4140625)"/>
<path d="M0 0 C5.95442163 2.38176865 9.79262195 5.91559581 13.5 11 C14.80218344 15.04169151 14.63503788 19.10420269 14.640625 23.30859375 C14.65894709 24.95899824 14.67851684 26.60938927 14.69921875 28.25976562 C14.72821019 30.85155119 14.75000093 33.44246539 14.75048828 36.03442383 C14.75382608 38.54325953 14.78838021 41.05010445 14.828125 43.55859375 C14.8210553 44.32956894 14.8139856 45.10054413 14.80670166 45.8948822 C14.90064002 50.05793626 15.32421722 51.79063751 18.04199219 55.02758789 C19.25870605 56.00393188 19.25870605 56.00393188 20.5 57 C19.28848458 58.20550294 18.05497111 59.38892747 16.8125 60.5625 C16.12800781 61.22378906 15.44351563 61.88507813 14.73828125 62.56640625 C12.5 64 12.5 64 9.8671875 63.83203125 C5.75827334 62.38780895 3.85754192 59.53631289 1.5 56 C0.98050781 56.5775 0.46101563 57.155 -0.07421875 57.75 C-0.77160156 58.4925 -1.46898437 59.235 -2.1875 60 C-2.87199219 60.7425 -3.55648438 61.485 -4.26171875 62.25 C-6.5 64 -6.5 64 -9.078125 64.3671875 C-12.86329605 63.79330673 -15.16447948 61.89373559 -17.5 59 C-19.15299951 55.76200412 -20.40204983 52.46276594 -21.5 49 C-21.6959375 48.39542969 -21.891875 47.79085937 -22.09375 47.16796875 C-24.14464699 36.22327806 -23.16300046 22.73250085 -17.828125 12.87890625 C-15.28418667 9.27998174 -11.97542948 6.66203109 -8.5 4 C-7.67048828 3.32710937 -7.67048828 3.32710937 -6.82421875 2.640625 C-4.49191321 0.88084924 -2.9516622 0 0 0 Z " fill="#283E59" transform="translate(313.5,30)"/>
<path d="M0 0 C2.84847539 1.4242377 4.22369258 3.39897842 6 6 C6 6.66 6 7.32 6 8 C6.73605469 7.41089844 7.47210938 6.82179688 8.23046875 6.21484375 C9.20628906 5.46332031 10.18210938 4.71179687 11.1875 3.9375 C12.15042969 3.18339844 13.11335938 2.42929687 14.10546875 1.65234375 C17 0 17 0 19.69921875 0.1171875 C23.94045855 1.74455625 26.27924033 4.8378726 28.62304688 8.61694336 C30.35638216 12.87560063 30.4232898 16.3931722 30.40625 20.94140625 C30.41708618 21.78670395 30.42792236 22.63200165 30.43908691 23.50291443 C30.48474524 27.09848721 30.49642362 30.69398429 30.51123047 34.28979492 C30.52694808 36.92392436 30.55994617 39.5574568 30.59375 42.19140625 C30.59072876 42.99985489 30.58770752 43.80830353 30.58459473 44.64125061 C30.64613058 49.27307991 31.10350478 52.17077577 34 56 C32.76446724 57.20254524 31.51097661 58.38666232 30.25 59.5625 C29.55390625 60.22378906 28.8578125 60.88507813 28.140625 61.56640625 C26 63 26 63 23.87109375 62.86328125 C21.04148264 61.5577613 19.74555044 59.52803857 18 57 C17.10304131 54.30912394 16.86318656 52.6940795 16.82641602 49.92749023 C16.81292618 49.11332138 16.79943634 48.29915253 16.78553772 47.46031189 C16.77509933 46.5852449 16.76466095 45.71017792 16.75390625 44.80859375 C16.72098503 42.95897934 16.68777311 41.10937008 16.65429688 39.25976562 C16.60676214 36.34093578 16.5622941 33.42212936 16.52319336 30.50317383 C16.48361118 27.68809842 16.43205282 24.87344106 16.37890625 22.05859375 C16.3704921 21.18150253 16.36207794 20.30441132 16.35340881 19.40074158 C16.47702979 14.71806377 16.47702979 14.71806377 14 11 C12.01508358 11.26676204 12.01508358 11.26676204 10 12 C9.01 12.33 8.02 12.66 7 13 C7.0688879 18.33900229 7.15685957 23.67722223 7.26245117 29.015625 C7.29568436 30.83129189 7.32372134 32.64706168 7.34643555 34.46289062 C7.38001141 37.07466442 7.43232762 39.68549654 7.48828125 42.296875 C7.49467117 43.10743347 7.5010611 43.91799194 7.50764465 44.75311279 C7.62221821 49.15499899 7.97339154 51.74034319 11 55 C11 55.66 11 56.32 11 57 C9.03125 58.7265625 9.03125 58.7265625 6.5 60.625 C5.6646875 61.25664063 4.829375 61.88828125 3.96875 62.5390625 C2.99421875 63.26222656 2.99421875 63.26222656 2 64 C-2.93920328 60.45665852 -4.78298282 58.0534039 -6 52 C-6.2961417 48.89031359 -6.34723051 45.79425768 -6.37890625 42.671875 C-6.39590073 41.80105286 -6.4128952 40.93023071 -6.43040466 40.03302002 C-6.48319461 37.27208553 -6.52369524 34.5111636 -6.5625 31.75 C-6.6064963 28.97462683 -6.65319384 26.19936623 -6.70530701 23.4241333 C-6.73715393 21.70249976 -6.76407792 19.98076651 -6.78553772 18.25897217 C-6.84316451 14.93541844 -6.9420417 12.1738749 -8 9 C-8.99 8.67 -9.98 8.34 -11 8 C-3.21621622 0 -3.21621622 0 0 0 Z " fill="#273D58" transform="translate(154,31)"/>
<path d="M0 0 C3.21129579 1.18817944 3.93346901 2.82394957 5.34375 5.8671875 C5.34375 6.5271875 5.34375 7.1871875 5.34375 7.8671875 C8.4070938 5.872452 11.15395848 4.04274465 13.84375 1.5546875 C16.34375 -0.1328125 16.34375 -0.1328125 19.34375 -0.1953125 C23.60010518 1.31214663 25.91160626 3.81513278 28.46728516 7.47705078 C29.83202538 11.19872398 29.62188036 14.86430189 29.6171875 18.796875 C29.63747745 20.57943335 29.65832826 22.36198539 29.6796875 24.14453125 C29.70227228 26.94455299 29.71875447 29.74432499 29.72460938 32.54443359 C29.73415527 35.25403583 29.76795638 37.96252365 29.8046875 40.671875 C29.79964203 41.50331024 29.79459656 42.33474548 29.78939819 43.19137573 C29.88185547 48.68075465 30.87240264 51.58554302 34.34375 55.8671875 C33.13223458 57.07269044 31.89872111 58.25611497 30.65625 59.4296875 C29.97175781 60.09097656 29.28726563 60.75226563 28.58203125 61.43359375 C26.34375 62.8671875 26.34375 62.8671875 23.82421875 63.08203125 C19.9208346 61.17029508 18.77539923 57.85657155 17.34375 53.8671875 C16.81599079 50.6291372 16.78522501 47.46345233 16.8046875 44.1875 C16.79289459 43.29352509 16.78110168 42.39955017 16.76895142 41.47848511 C16.7339047 38.64953805 16.72453755 35.82133337 16.71875 32.9921875 C16.70241288 30.1418399 16.68045052 27.29182075 16.64712524 24.44161987 C16.62746913 22.67439277 16.61816319 20.90701419 16.62020874 19.13967896 C16.79671318 14.5244426 16.79671318 14.5244426 14.34375 10.8671875 C11.33069043 11.25596938 9.94689689 12.13175624 7.34375 13.8671875 C7.02669214 16.56380773 6.89970342 19.02646861 6.91015625 21.7265625 C6.90229347 22.89955902 6.90229347 22.89955902 6.89427185 24.09625244 C6.88784152 25.75393486 6.88920172 27.41166285 6.89770508 29.06933594 C6.90617203 31.59393952 6.87754167 34.11624771 6.84570312 36.640625 C6.84408982 38.25260349 6.84467111 39.86458597 6.84765625 41.4765625 C6.83642227 42.22677673 6.82518829 42.97699097 6.81361389 43.74993896 C6.88442158 49.13801288 8.09567668 51.78343506 11.34375 55.8671875 C9.94002198 57.06995445 8.52022903 58.25399269 7.09375 59.4296875 C6.30484375 60.09097656 5.5159375 60.75226563 4.703125 61.43359375 C2.34375 62.8671875 2.34375 62.8671875 0.18359375 62.7578125 C-2.87492282 61.27725671 -4.01620663 58.75140169 -5.65625 55.8671875 C-6.50234976 53.13814884 -6.78700772 50.67009206 -6.81396484 47.82055664 C-6.82422699 47.03616714 -6.83448914 46.25177765 -6.84506226 45.44361877 C-6.85601425 44.18568764 -6.85601425 44.18568764 -6.8671875 42.90234375 C-6.89524936 41.11522511 -6.92391378 39.32811585 -6.953125 37.54101562 C-6.99440612 34.73217974 -7.03130776 31.9235203 -7.05761719 29.11450195 C-7.08525089 26.39758512 -7.13111124 23.68145613 -7.1796875 20.96484375 C-7.18294037 20.12824722 -7.18619324 19.2916507 -7.18954468 18.42970276 C-7.28819359 13.74010118 -7.71089949 10.73644487 -10.65625 6.8671875 C-9.44473458 5.66168456 -8.21122111 4.47826003 -6.96875 3.3046875 C-6.28425781 2.64339844 -5.59976562 1.98210938 -4.89453125 1.30078125 C-2.65625 -0.1328125 -2.65625 -0.1328125 0 0 Z " fill="#263C57" transform="translate(343.65625,31.1328125)"/>
<path d="M0 0 C5.35474215 0.42353893 10.71577253 1.41433422 14.69140625 5.27734375 C23.29988623 16.60970098 23.37063455 31.56923757 23.4375 45.1875 C23.47037109 46.38052734 23.50324219 47.57355469 23.53710938 48.80273438 C23.58302598 56.39567087 22.77242219 62.83638145 18 69 C16.01220703 70.30664062 16.01220703 70.30664062 14 71 C11.08203125 70.35546875 11.08203125 70.35546875 7.8125 69.1875 C2.43416254 67.38460358 -2.35327641 66.38282872 -8 66 C-7.65066406 65.52949219 -7.30132812 65.05898437 -6.94140625 64.57421875 C-6.48636719 63.95160156 -6.03132813 63.32898438 -5.5625 62.6875 C-4.88380859 61.76517578 -4.88380859 61.76517578 -4.19140625 60.82421875 C-1.89506064 57.30817482 -1.87159333 54.27107682 -1.8671875 50.1875 C-1.86589844 49.02863281 -1.86460938 47.86976562 -1.86328125 46.67578125 C-1.86714844 45.46277344 -1.87101562 44.24976563 -1.875 43 C-1.87113281 41.81792969 -1.86726563 40.63585937 -1.86328125 39.41796875 C-1.87034071 33.01504151 -2.1173753 26.72781975 -2.76855469 20.35839844 C-3.05460127 17.44361994 -3.16744373 14.55321569 -3.1875 11.625 C-3.20167969 10.66851562 -3.21585938 9.71203125 -3.23046875 8.7265625 C-2.96073428 5.53546658 -2.34070284 2.34070284 0 0 Z " fill="#FBFBFC" transform="translate(44,25)"/>
<path d="M0 0 C1.48049991 2.5681543 2.79562148 5.07991838 4.0625 7.75 C4.41376953 8.46671875 4.76503906 9.1834375 5.12695312 9.921875 C6.89768115 13.5637504 8.56072538 17.21165024 10 21 C7.41768612 23.10542027 4.83396996 25.20911269 2.25 27.3125 C1.52039063 27.90740234 0.79078125 28.50230469 0.0390625 29.11523438 C-0.66992188 29.69208984 -1.37890625 30.26894531 -2.109375 30.86328125 C-2.75874023 31.39219971 -3.40810547 31.92111816 -4.07714844 32.46606445 C-6.02279463 34.01818419 -8.0015431 35.51670952 -10 37 C-9.58726322 42.26239391 -8.88050973 45.32372763 -5 49 C0.00401224 51.69446813 4.43254875 52.51162708 10 53 C8.35468355 54.69370811 6.69133029 56.3531784 5 58 C4.53078125 58.47695312 4.0615625 58.95390625 3.578125 59.4453125 C0.92538647 61.94116865 -0.82551635 62.97144813 -4.4375 63.5625 C-9.84183269 62.70918431 -13.33854718 60.66145282 -17.1875 56.8125 C-24.23493695 45.87682197 -25.46517979 33.92020809 -23.57421875 21.1171875 C-21.6424142 13.55589116 -17.64587365 7.51544914 -11.203125 3.0703125 C-3.70408163 -1.23469388 -3.70408163 -1.23469388 0 0 Z " fill="#283E59" transform="translate(213,31)"/>
<path d="M0 0 C4.27952148 2.39653203 7.25289188 4.93021019 10 9 C10.37154883 10.32319324 10.71241873 11.65605584 11 13 C9.71283353 14.00578589 8.42011342 15.00446798 7.125 16 C6.40570313 16.556875 5.68640625 17.11375 4.9453125 17.6875 C3 19 3 19 1 19 C-0.18359375 17.3203125 -0.18359375 17.3203125 -1.4375 15.125 C-3.17330794 12.08869645 -3.98654002 11.00897332 -7 9 C-8.32 9 -9.64 9 -11 9 C-11.96407549 13.01698119 -12.39848488 15.20512752 -10.515625 18.9609375 C-7.41764693 22.70352592 -4.29631438 24.37519234 0 26.5 C5.49162831 29.21596835 9.12088562 31.30052868 12 37 C12.95905466 41.62602836 12.5423981 45.73440443 10.6875 50.0625 C-1.58393042 63.47545883 -1.58393042 63.47545883 -8.43359375 64.2890625 C-13.40147953 63.72951372 -17.21929846 60.06839148 -20.40234375 56.37109375 C-22.25711769 53.73744676 -23 52.26603849 -23 49 C-21.3203125 47.39453125 -21.3203125 47.39453125 -19.125 45.8125 C-18.40570313 45.28269531 -17.68640625 44.75289062 -16.9453125 44.20703125 C-15 43 -15 43 -13 43 C-12.731875 43.62648437 -12.46375 44.25296875 -12.1875 44.8984375 C-9.97250524 49.81511686 -9.97250524 49.81511686 -5.88671875 53.04296875 C-3.45918679 53.6604145 -3.45918679 53.6604145 0 54 C0.17043931 50.16852436 0.02602226 46.70907046 -1 43 C-3.5798834 40.2148986 -6.63811605 38.70348814 -10 37 C-11.80050015 35.99482869 -13.59239717 34.97407962 -15.375 33.9375 C-16.59316406 33.27041016 -16.59316406 33.27041016 -17.8359375 32.58984375 C-21.31582501 30.03331989 -22.73656375 27.38399477 -23.5390625 23.16796875 C-23.69360132 17.80828151 -23.63800941 13.92962457 -20.125 9.6875 C-18.19921875 7.828125 -18.19921875 7.828125 -16 6 C-15.18144531 5.31421875 -14.36289063 4.6284375 -13.51953125 3.921875 C-6.20029766 -1.70319408 -6.20029766 -1.70319408 0 0 Z " fill="#263D58" transform="translate(132,31)"/>
<path d="M0 0 C3.05851657 1.48055579 4.19980038 4.00641081 5.83984375 6.890625 C7.00660217 10.36357971 6.97699747 13.69481889 6.99755859 17.33984375 C7.00782074 18.64800049 7.01808289 19.95615723 7.02865601 21.30395508 C7.03209393 22.00034088 7.03553185 22.69672668 7.03907394 23.41421509 C7.05089985 25.60004612 7.07036004 27.78568284 7.0921936 29.97143555 C7.15369924 36.18434188 7.20789702 42.39722485 7.24121094 48.61035156 C7.26215583 52.41470911 7.29745073 56.21870614 7.34196854 60.02285767 C7.35612329 61.47087361 7.36484981 62.91895326 7.36802292 64.36703491 C7.37293143 66.39190337 7.39769894 68.4166942 7.42333984 70.44140625 C7.43547012 72.16870972 7.43547012 72.16870972 7.44784546 73.9309082 C7.87905139 77.18665566 8.74369928 78.44186093 10.83984375 80.890625 C10.83984375 81.550625 10.83984375 82.210625 10.83984375 82.890625 C7.71080987 85.95754406 4.50826852 88.70103128 0.08984375 89.203125 C-3.3989364 87.16800324 -4.89046091 84.61922832 -6.16015625 80.890625 C-6.6519852 76.43173706 -6.6813308 72.0039439 -6.64601135 67.52482224 C-6.62863905 65.2541381 -6.63631379 62.98471457 -6.65026855 60.71401978 C-6.67551556 55.8978005 -6.67011488 51.08188345 -6.66015625 46.265625 C-6.64861386 40.67451838 -6.6498026 35.084029 -6.68421936 29.49300003 C-6.69129743 27.26087834 -6.67466225 25.02974274 -6.65710449 22.79769897 C-6.66281296 21.42551141 -6.66963055 20.05332786 -6.67773438 18.68115234 C-6.674552 17.48759125 -6.67136963 16.29403015 -6.66809082 15.06430054 C-7.25231174 11.29624955 -8.56737493 9.62258937 -11.16015625 6.890625 C-9.75642823 5.68785805 -8.33663528 4.50381981 -6.91015625 3.328125 C-6.12125 2.66683594 -5.33234375 2.00554688 -4.51953125 1.32421875 C-2.16015625 -0.109375 -2.16015625 -0.109375 0 0 Z " fill="#293F59" transform="translate(277.16015625,5.109375)"/>
<path d="M0 0 C2.85503109 1.42751554 4.20393434 3.39880146 6 6 C6.90662527 8.71987581 7.12841231 10.32002522 7.1418457 13.11669922 C7.14888016 13.94120575 7.15591461 14.76571228 7.16316223 15.61520386 C7.16732651 16.50273346 7.17149078 17.39026306 7.17578125 18.3046875 C7.19897736 20.18620913 7.22309461 22.06771959 7.24804688 23.94921875 C7.283172 26.91397608 7.31251503 29.87832153 7.32592773 32.84326172 C7.34141052 35.7059096 7.38161811 38.56735714 7.42578125 41.4296875 C7.42387283 42.31316864 7.42196442 43.19664978 7.41999817 44.10690308 C7.5239268 49.34281147 8.05447465 52.17953481 12 56 C10.59627198 57.20276695 9.17647903 58.38680519 7.75 59.5625 C6.96109375 60.22378906 6.1721875 60.88507813 5.359375 61.56640625 C3 63 3 63 0.83984375 62.859375 C-1.99115932 61.53703811 -3.27597199 59.55631739 -5 57 C-5.86947292 54.24266173 -6.13863142 51.71177988 -6.18945312 48.82983398 C-6.20617065 48.01896835 -6.22288818 47.20810272 -6.2401123 46.37266541 C-6.25368774 45.50589676 -6.26726318 44.63912811 -6.28125 43.74609375 C-6.30886414 42.4001992 -6.30886414 42.4001992 -6.33703613 41.02711487 C-6.41559085 37.19275636 -6.48349095 33.35822641 -6.55224609 29.52368164 C-6.60398808 26.72273132 -6.66122303 23.92193026 -6.71875 21.12109375 C-6.73232544 20.25230087 -6.74590088 19.383508 -6.7598877 18.48838806 C-6.77660522 17.68067459 -6.79332275 16.87296112 -6.81054688 16.04077148 C-6.82933899 14.97632057 -6.82933899 14.97632057 -6.84851074 13.8903656 C-6.9421508 11.77448923 -6.9421508 11.77448923 -8 9 C-8.99 8.67 -9.98 8.34 -11 8 C-3.21621622 0 -3.21621622 0 0 0 Z " fill="#283D58" transform="translate(95,31)"/>
<path d="M0 0 C4.64430165 0.14073641 7.38649699 2.31564816 10.49633789 5.52368164 C13.39393232 10.29560894 12.9149207 15.68757068 12.74780273 21.12573242 C12.68730055 23.19431912 12.68624989 25.25682192 12.69335938 27.32617188 C12.55026972 37.34738209 12.55026972 37.34738209 9.96020508 40.41918945 C9.3133374 40.94085693 8.66646973 41.46252441 8 42 C4.13009005 40.47967823 2.19875278 38.51800445 0 35 C-2.4331825 28.53429594 -2.19847275 21.49952485 -2.25 14.6875 C-2.2593457 13.81536865 -2.26869141 12.9432373 -2.27832031 12.04467773 C-2.25600346 7.59203682 -2.10106975 4.04372552 0 0 Z " fill="#FBFBFC" transform="translate(393,41)"/>
<path d="M0 0 C3.27743159 0.29794833 5.47583313 0.62291296 8.17431641 2.56420898 C10.65253781 5.87060307 10.54087325 8.75312084 10.4609375 12.72265625 C10.46002106 13.46454697 10.45910461 14.20643768 10.4581604 14.97080994 C10.45213211 16.53504863 10.43640902 18.09927619 10.41162109 19.66333008 C10.37507042 22.05788664 10.37060215 24.45089647 10.37109375 26.84570312 C10.36126349 28.36720087 10.34960688 29.88868815 10.3359375 31.41015625 C10.33371185 32.12583267 10.33148621 32.84150909 10.32919312 33.57887268 C10.25889236 37.25690076 10.09475556 38.85786666 8 42 C4.15779191 41.78044525 3.03438793 41.03438793 0.25 38.25 C-3.7126048 32.52623751 -3.21217974 26.49146141 -3.25 19.75 C-3.270625 18.84636719 -3.29125 17.94273438 -3.3125 17.01171875 C-3.34822728 10.80410456 -2.3399996 5.74941079 0 0 Z " fill="#F8F9F9" transform="translate(305,40)"/>
<path d="M0 0 C0.763125 0.804375 1.52625 1.60875 2.3125 2.4375 C5.07654563 5.07298537 6.28837448 5.68186067 10 6 C9.04544602 9.81821593 8.03022896 10.97747646 4.8125 13.375 C0.92919708 15.36105513 -1.7768311 15.2513093 -6 14 C-8.9375 11.9375 -8.9375 11.9375 -11 10 C-10.62207203 7.32543283 -10.20233084 6.19388186 -8.22265625 4.296875 C-7.50980469 3.78640625 -6.79695313 3.2759375 -6.0625 2.75 C-5.35222656 2.22921875 -4.64195313 1.7084375 -3.91015625 1.171875 C-2 0 -2 0 0 0 Z " fill="#283F5A" transform="translate(95,13)"/>
<path d="M0 0 C2.48627517 3.0622744 4.09989404 6.1457054 5.6875 9.75 C6.12449219 10.73484375 6.56148437 11.7196875 7.01171875 12.734375 C7.33785156 13.48203125 7.66398438 14.2296875 8 15 C6.54712339 16.33927721 5.08752741 17.67126847 3.625 19 C2.40683594 20.11375 2.40683594 20.11375 1.1640625 21.25 C-1 23 -1 23 -3 23 C-3.08120751 20.10359882 -3.14059421 17.20949088 -3.1875 14.3125 C-3.21263672 13.49587891 -3.23777344 12.67925781 -3.26367188 11.83789062 C-3.32217012 7.02153514 -3.07302376 3.96024846 0 0 Z " fill="#F5F6F7" transform="translate(203,40)"/>
<path d="M0 0 C3.125 0.375 3.125 0.375 6 1 C6.625 4.375 6.625 4.375 7 8 C5 10 5 10 2 10.3125 C1.01 10.209375 0.02 10.10625 -1 10 C-3 7 -3 7 -2.75 4.4375 C-2 2 -2 2 0 0 Z " fill="#344B64" transform="translate(385,99)"/>
<path d="M0 0 C5.75 -0.125 5.75 -0.125 8 1 C8 3.97 8 6.94 8 10 C6 9 4 8 2 7 C2 7.99 2 8.98 2 10 C1.34 10 0.68 10 0 10 C0 6.7 0 3.4 0 0 Z " fill="#2F4560" transform="translate(397,99)"/>
<path d="M0 0 C2.875 -0.125 2.875 -0.125 6 0 C6.66 0.66 7.32 1.32 8 2 C7.70740515 4.00636471 7.37366113 6.00714063 7 8 C7.33 8.66 7.66 9.32 8 10 C5 10 5 10 3.3125 8.5 C2.879375 8.005 2.44625 7.51 2 7 C2 7.99 2 8.98 2 10 C1.34 10 0.68 10 0 10 C0 6.7 0 3.4 0 0 Z " fill="#4A5E76" transform="translate(340,99)"/>
<path d="M0 0 C2.64 0 5.28 0 8 0 C8 0.66 8 1.32 8 2 C6.02 2 4.04 2 2 2 C2 2.66 2 3.32 2 4 C3.32 4 4.64 4 6 4 C6 4.66 6 5.32 6 6 C4.68 6 3.36 6 2 6 C2 6.66 2 7.32 2 8 C3.98 8 5.96 8 8 8 C8 8.66 8 9.32 8 10 C5.36 10 2.72 10 0 10 C0 6.7 0 3.4 0 0 Z " fill="#3D526C" transform="translate(354,99)"/>
<path d="M0 0 C2.5 0.125 2.5 0.125 3.5 1.125 C3.54063832 2.79117115 3.542721 4.45888095 3.5 6.125 C1.52 7.115 1.52 7.115 -0.5 8.125 C-1.49 7.465 -2.48 6.805 -3.5 6.125 C-3.75 3.5625 -3.75 3.5625 -3.5 1.125 C-2.5 0.125 -2.5 0.125 0 0 Z " fill="#939CA8" transform="translate(431.5,86.875)"/>
<path d="M0 0 C0 0.33 0 0.66 0 1 C-1.65 1 -3.3 1 -5 1 C-5 1.66 -5 2.32 -5 3 C-3.35 3.33 -1.7 3.66 0 4 C0.5625 5.9375 0.5625 5.9375 1 8 C0 9 0 9 -3.5625 9.0625 C-4.696875 9.041875 -5.83125 9.02125 -7 9 C-7 8.34 -7 7.68 -7 7 C-5.02 7 -3.04 7 -1 7 C-1 6.34 -1 5.68 -1 5 C-2.65 5 -4.3 5 -6 5 C-6.33 3.35 -6.66 1.7 -7 0 C-4.3333581 -1.33332095 -2.83319697 -0.67102033 0 0 Z " fill="#2E4560" transform="translate(375,100)"/>
<path d="M0 0 C2.64 0 5.28 0 8 0 C8 0.66 8 1.32 8 2 C7.01 2 6.02 2 5 2 C5 4.64 5 7.28 5 10 C4.34 10 3.68 10 3 10 C3 7.36 3 4.72 3 2 C2.01 2 1.02 2 0 2 C0 1.34 0 0.68 0 0 Z " fill="#2D425D" transform="translate(410,99)"/>
<path d="M0 0 C1.65 0.33 3.3 0.66 5 1 C4.67 2.65 4.34 4.3 4 6 C2.35 5.67 0.7 5.34 -1 5 C-0.67 3.35 -0.34 1.7 0 0 Z " fill="#EBEDEF" transform="translate(385,101)"/>
<path d="M0 0 C2.31 0 4.62 0 7 0 C7.33 0.99 7.66 1.98 8 3 C8.66 3.33 9.32 3.66 10 4 C6.37 4 2.74 4 -1 4 C-0.01 3.34 0.98 2.68 2 2 C1.34 1.34 0.68 0.68 0 0 Z " fill="#394C64" transform="translate(238,111)"/>
<path d="M0 0 C1.32 0 2.64 0 4 0 C4.66 2.64 5.32 5.28 6 8 C4.68 7.34 3.36 6.68 2 6 C2 5.34 2 4.68 2 4 C1.34 4 0.68 4 0 4 C0 2.68 0 1.36 0 0 Z " fill="#8C98A6" transform="translate(399,101)"/>
<path d="M0 0 C0.66 0.33 1.32 0.66 2 1 C2.125 3.375 2.125 3.375 2 6 C0 8 0 8 -2.625 8.125 C-3.40875 8.08375 -4.1925 8.0425 -5 8 C-4.360625 7.608125 -3.72125 7.21625 -3.0625 6.8125 C-0.56221181 4.61527704 -0.35049575 3.24208567 0 0 Z " fill="#0F2F4E" transform="translate(390,101)"/>
<path d="M0 0 C0.99 0 1.98 0 3 0 C3 1.65 3 3.3 3 5 C2.01 5.33 1.02 5.66 0 6 C0 4.02 0 2.04 0 0 Z " fill="#BBC1C8" transform="translate(431,89)"/>
</svg>
